<svg xmlns="http://www.w3.org/2000/svg" viewBox="0 0 24 24"><path d="M20.5,6h-.71V4a2,2,0,0,0-4,0V6H8.27V4a2,2,0,0,0-4,0V6H3.5A1.5,1.5,0,0,0,2,7.5v13A1.5,1.5,0,0,0,3.5,22h17A1.5,1.5,0,0,0,22,20.5V7.5A1.5,1.5,0,0,0,20.5,6ZM11.36,16.48a2.73,2.73,0,0,1-.66.93,3.17,3.17,0,0,1-1,.63,3.64,3.64,0,0,1-1.31.23A3.26,3.26,0,0,1,7.05,18a3.4,3.4,0,0,1-1-.66,3.07,3.07,0,0,1-.56-.82,1.79,1.79,0,0,1-.2-.72.83.83,0,0,1,.26-.63.85.85,0,0,1,.63-.25.69.69,0,0,1,.39.12.6.6,0,0,1,.25.3,3.52,3.52,0,0,0,.63,1.16,1.1,1.1,0,0,0,.88.36A1.4,1.4,0,0,0,9,16.7a1.35,1.35,0,0,0,.5-.48,1.37,1.37,0,0,0,.21-.75,1.4,1.4,0,0,0-.34-1,1.25,1.25,0,0,0-1-.35l-.35,0-.33,0a.83.83,0,0,1-.58-.2A.71.71,0,0,1,7,13.44a.69.69,0,0,1,.26-.55,1.11,1.11,0,0,1,.71-.2h.24A1.33,1.33,0,0,0,9,12.4a1,1,0,0,0,.34-.81.94.94,0,0,0-.28-.69,1,1,0,0,0-.74-.29,1.38,1.38,0,0,0-.54.09.8.8,0,0,0-.32.23,2.34,2.34,0,0,0-.24.4L7,11.81a.53.53,0,0,1-.27.26,1,1,0,0,1-.41.08.73.73,0,0,1-.51-.23.78.78,0,0,1-.24-.59,1.53,1.53,0,0,1,.2-.71A2.48,2.48,0,0,1,6.35,10a2.81,2.81,0,0,1,.92-.51,3.67,3.67,0,0,1,1.22-.2,3.4,3.4,0,0,1,1.08.17,2.35,2.35,0,0,1,.85.47,2,2,0,0,1,.56.72,2.17,2.17,0,0,1,.19.88,2,2,0,0,1-.28,1.07,3.43,3.43,0,0,1-.62.74,3,3,0,0,1,.65.49,2.39,2.39,0,0,1,.49.74,2.34,2.34,0,0,1,.17.88A2.71,2.71,0,0,1,11.36,16.48Zm5.75.49c0,1.08-.51,1.3-.93,1.3a.85.85,0,0,1-.67-.28,1.17,1.17,0,0,1-.25-.79V12.12a4.25,4.25,0,0,1-1.88,1,.73.73,0,0,1-.52-.23.78.78,0,0,1-.23-.54.63.63,0,0,1,.24-.54,4,4,0,0,1,.68-.38,5.49,5.49,0,0,0,1.11-.68,4.69,4.69,0,0,0,.73-.81c.23-.31.37-.5.44-.57a.6.6,0,0,1,.47-.15.72.72,0,0,1,.59.29,1.18,1.18,0,0,1,.22.74Z"/></svg>