<svg xmlns="http://www.w3.org/2000/svg" viewBox="0 0 24 24"><path d="M21.8,18.79A5.24,5.24,0,0,1,17.14,22c-.26,0-4.22.22-9.94-5.22A16.06,16.06,0,0,1,2,6.8c0-.87.2-3.06,3.2-4.68a1.4,1.4,0,0,1,1.55.28c.06.09,2.35,3.85,2.41,4a1.11,1.11,0,0,1,.1.41,1.22,1.22,0,0,1-.4.7A6.62,6.62,0,0,1,8,8.28a7.14,7.14,0,0,0-.88.77,1.09,1.09,0,0,0-.4.66c0,.44.38,2,3.14,4.46A20.93,20.93,0,0,0,14,17.32a1.24,1.24,0,0,0,.32.08c.18,0,.38-.14.66-.4s1.16-1.49,1.44-1.77a1.22,1.22,0,0,1,.7-.4,1,1,0,0,1,.4.1c.14.06,4.28,2.49,4.36,2.57s0,.9-.12,1.29"/></svg>