<svg xmlns="http://www.w3.org/2000/svg" viewBox="0 0 15 14.57"><path d="M7.89,13.55l.42.41a1.87,1.87,0,0,0,1.84.44,1.76,1.76,0,0,0,.95-.67C11.37,13.37,14.94,2.3,15,2.21A1.87,1.87,0,0,0,12.72.05L1.47,3.34A1.86,1.86,0,0,0,.58,6.51L3,8.88A.59.59,0,0,0,3.76,9l6-4.78a.12.12,0,0,1,.16.18l-5.05,6.1a1,1,0,0,0-.21.43v2c0,.23,0,.46,0,.68a3.75,3.75,0,0,0,0,.67.34.34,0,0,0,.19.28.31.31,0,0,0,.32,0,1.45,1.45,0,0,0,.19-.23c.18-.24.34-.49.51-.74a7.66,7.66,0,0,1,.45-.66c.08-.1.19-.3.32-.34a.41.41,0,0,1,.4.15"/></svg>
