<svg xmlns="http://www.w3.org/2000/svg" viewBox="0 0 16 16" id="ds-icon-dashboard-controls"><path d="M2.196 13.099c0 .609.305.914.914.914s.914-.304.914-.914V7.313H2.197v5.786Z" class="cls-1"/><path d="M4.327 4.268h-.305V3.05c0-.609 0-1.218-.914-1.218s-.914.609-.914 1.218v1.218h-.305c-.392 0-.914.305-.914.914s.521.914.914.914h2.436c.392 0 .914-.305.914-.914s-.521-.914-.914-.914Z" class="cls-1"/><path d="M11.94 13.099c0 .609.305.914.914.914s.914-.304.914-.914V7.313h-1.827v5.786Z" class="cls-1"/><path d="M14.072 4.268h-.305V3.05c0-.609 0-1.218-.914-1.218s-.914.609-.914 1.218v1.218h-.305c-.392 0-.914.305-.914.914s.521.914.914.914h2.436c.392 0 .914-.305.914-.914s-.521-.914-.914-.914Z" class="cls-1"/><path d="M8.895 2.745c0-.609-.305-.914-.914-.914s-.914.305-.914.914v5.786h1.827V2.745Z" class="cls-1"/><path d="M9.2 9.749H6.764c-.392 0-.914.305-.914.914s.521.914.914.914h.304v1.218c0 .609 0 1.218.914 1.218s.914-.609.914-1.218v-1.218h.305c.392 0 .914-.305.914-.914s-.521-.914-.914-.914Z" class="cls-1"/></svg>