<svg xmlns="http://www.w3.org/2000/svg" viewBox="0 0 21.999 19.131" id="ds-icon-dashboard-controls"><path d="M3.348 0c1.435 0 1.435.957 1.435 1.913v1.913h.478c.616 0 1.435.478 1.435 1.435s-.818 1.435-1.435 1.435H1.435C.819 6.696 0 6.218 0 5.261s.818-1.435 1.435-1.435h.478V1.913C1.913.956 1.913 0 3.348 0Zm1.435 17.696V8.609h-2.87v9.087c0 .957.478 1.435 1.435 1.435s1.435-.478 1.435-1.435ZM18.652 0c1.435 0 1.435.957 1.435 1.913v1.913h.478c.616 0 1.435.478 1.435 1.435s-.818 1.435-1.435 1.435h-3.826c-.616 0-1.435-.478-1.435-1.435s.818-1.435 1.435-1.435h.478V1.913c0-.957 0-1.913 1.435-1.913Zm1.435 17.696V8.609h-2.869v9.087c0 .957.478 1.435 1.435 1.435s1.435-.478 1.435-1.435Zm-7.652-7.174V1.435C12.435.478 11.957 0 11 0S9.565.478 9.565 1.435v9.087h2.87Zm0 6.696c0 .956 0 1.913-1.435 1.913s-1.435-.957-1.435-1.913v-1.913h-.478c-.616 0-1.435-.478-1.435-1.435s.818-1.435 1.435-1.435h3.826c.616 0 1.435.478 1.435 1.435s-.818 1.435-1.435 1.435h-.478v1.913Z" style="fill-rule:evenodd"/></svg>