<svg xmlns="http://www.w3.org/2000/svg" viewBox="0 0 24 24" id="ds-icon-dashboard-cue-point"><path d="M7.11 19.69H1.94c-.49 0-.89.4-.89.89s.4.89.89.89h5.17c.49 0 .89-.4.89-.89s-.4-.89-.89-.89Z"/><path d="M22.11 19.69h-5.17c-.49 0-.89.4-.89.89s.4.89.89.89h5.17c.49 0 .89-.4.89-.89s-.4-.89-.89-.89Z"/><path d="M12.06 18.29a2.279 2.279 0 1 0 0 4.56 2.279 2.279 0 1 0 0-4.56Z"/><path d="M22.24 1H1.76c-.42 0-.76.36-.76.81v10.05c0 .45.34.81.76.81h7.88l1.65 2.84c.16.3.47.49.79.49s.63-.19.79-.49l1.65-2.84h7.7c.42 0 .76-.36.76-.81V1.81c0-.45-.34-.81-.76-.81Zm-5.87 8.74H7.81c-.51 0-.92-.44-.92-.97s.41-.97.92-.97h8.56c.51 0 .92.44.92.97s-.41.97-.92.97Zm2.3-4.19H5.22c-.51 0-.92-.44-.92-.97s.41-.97.92-.97h13.44c.51 0 .92.44.92.97s-.41.97-.92.97Z"/></svg>