<svg xmlns="http://www.w3.org/2000/svg" viewBox="0 0 24 24" id="ds-icon-dashboard-embed"><path d="M5.5 16.5a1.51 1.51 0 0 1-1.06-.44l-3-3a1.49 1.49 0 0 1 0-2.12l3-3a1.5 1.5 0 1 1 2.12 2.12L4.62 12l1.94 1.94a1.49 1.49 0 0 1 0 2.12 1.51 1.51 0 0 1-1.06.44Z"/><path d="M18.5 16.5a1.51 1.51 0 0 1-1.06-.44 1.49 1.49 0 0 1 0-2.12L19.38 12l-1.94-1.94a1.5 1.5 0 1 1 2.12-2.12l3 3a1.49 1.49 0 0 1 0 2.12l-3 3a1.51 1.51 0 0 1-1.06.44Z"/><path d="M8.68 21a1.52 1.52 0 0 1-.59-.12 1.49 1.49 0 0 1-.79-2l6.35-15a1.5 1.5 0 0 1 2.77 1.16l-6.36 15a1.49 1.49 0 0 1-1.38.96Z"/></svg>