<svg xmlns="http://www.w3.org/2000/svg" viewBox="0 0 24 24" id="ds-icon-dashboard-help"><path d="M12 2a10 10 0 1 0 10 10A10 10 0 0 0 12 2Zm1 16.05a1.37 1.37 0 0 1-.94.36 1.48 1.48 0 0 1-1-.35 1.4 1.4 0 0 1 0-2 1.38 1.38 0 0 1 1-.4 1.35 1.35 0 0 1 1.36 1.37 1.26 1.26 0 0 1-.42 1.02Zm2.76-8a3.49 3.49 0 0 1-.66.89c-.24.24-.68.64-1.29 1.18q-.24.22-.39.39a1.54 1.54 0 0 0-.19.28.77.77 0 0 0-.1.25c0 .09-.07.26-.12.5a1.08 1.08 0 0 1-1.13 1 1.16 1.16 0 0 1-.88-.34 1.27 1.27 0 0 1-.34-.94 2.86 2.86 0 0 1 .22-1.18 3.12 3.12 0 0 1 .56-.89c.22-.23.51-.51.89-.84s.54-.49.68-.63a1.8 1.8 0 0 0 .32-.42.9.9 0 0 0 .12-.46 1.09 1.09 0 0 0-.37-.84 1.41 1.41 0 0 0-1-.35 1.36 1.36 0 0 0-1 .35 3 3 0 0 0-.61 1.14 1.22 1.22 0 0 1-1.2 1 1.16 1.16 0 0 1-.88-.37A1.12 1.12 0 0 1 8 9a3 3 0 0 1 .5-1.58A3.72 3.72 0 0 1 9.92 6.1a4.46 4.46 0 0 1 2.17-.51 4.69 4.69 0 0 1 2 .42 3.51 3.51 0 0 1 1.39 1.18A3 3 0 0 1 16 8.83a2.57 2.57 0 0 1-.29 1.23Z"/></svg>