<svg xmlns="http://www.w3.org/2000/svg" viewBox="0 0 24 24" id="ds-icon-dashboard-jump-to-bottom"><path d="M21 20.008H3a1 1 0 0 0 0 2h18a1 1 0 0 0 0-2ZM21 11.008h-7a1 1 0 0 0 0 2h7a1 1 0 0 0 0-2ZM14 4.008h7a1 1 0 0 0 0-2h-7a1 1 0 0 0 0 2ZM5.8 16.694a1.009 1.009 0 0 0 1.462 0l3.482-3.481a1.155 1.155 0 0 0 0-1.463 1.047 1.047 0 0 0-.766-.278 1.046 1.046 0 0 0-.766.278l-1.676 1.671V3.044a1.045 1.045 0 0 0-2.089 0v10.377L3.776 11.75a1.01 1.01 0 0 0-1.463 0 1.012 1.012 0 0 0 0 1.463Z" fill-rule="evenodd"/></svg>