<svg xmlns="http://www.w3.org/2000/svg" viewBox="0 0 24 24" id="ds-icon-dashboard-jump-to-top"><path fill-rule="evenodd" d="M3 4h18a1 1 0 0 0 0-2H3a1 1 0 0 0 0 2Z"/><path fill-rule="evenodd" d="M21 11h-7a1 1 0 0 0 0 2h7a1 1 0 0 0 0-2Z"/><path fill-rule="evenodd" d="M21 20h-7a1 1 0 0 0 0 2h7a1 1 0 0 0 0-2Z"/><path fill-rule="evenodd" d="M7.257 7.313a1.011 1.011 0 0 0-1.462 0L2.313 10.8a1.011 1.011 0 0 0 0 1.462 1.01 1.01 0 0 0 1.463 0l1.671-1.671v10.372a1.045 1.045 0 1 0 2.089 0V10.586l1.671 1.671a1.047 1.047 0 0 0 .766.279 1.048 1.048 0 0 0 .766-.279 1.153 1.153 0 0 0 0-1.462Z"/></svg>