<svg xmlns="http://www.w3.org/2000/svg" viewBox="0 0 24 24" id="ds-icon-dashboard-link"><path d="M14 16.35l.78-.79a1 1 0 0 0 .32-.76 1.07 1.07 0 0 0-.32-.77l-.59-.58a1.07 1.07 0 0 0-1.53 0l-.78.78a.61.61 0 0 1-.82 0l-5.9-5.89a.61.61 0 0 1 0-.82l2.36-2.36a.61.61 0 0 1 .82 0l1 1a1.08 1.08 0 0 0 1.53 0l.59-.58a1.09 1.09 0 0 0 0-1.54l-1-1A3.6 3.6 0 0 0 5.4 3L3 5.4a3.6 3.6 0 0 0 0 5.06l5.89 5.89a3.57 3.57 0 0 0 4.34.54 3.86 3.86 0 0 0 .77-.54z"/><path d="M21 13.54l-5.93-5.89a3.62 3.62 0 0 0-4.34-.54 3.56 3.56 0 0 0-.72.54l-.78.78a1.08 1.08 0 0 0 0 1.54l.59.58a1.07 1.07 0 0 0 1.53 0l.78-.78a.61.61 0 0 1 .82 0l5.88 5.89a.58.58 0 0 1 0 .82l-2.35 2.36a.61.61 0 0 1-.82 0l-1-1a1.07 1.07 0 0 0-1.53 0l-.59.58a1.07 1.07 0 0 0-.32.77 1 1 0 0 0 .32.76l1 1a3.6 3.6 0 0 0 5.06 0L21 18.6a3.57 3.57 0 0 0 0-5.06z"/></svg>