<svg xmlns="http://www.w3.org/2000/svg" viewBox="0 0 24 24" id="ds-icon-dashboard-monetize"><path d="M17.25 14.71a5.1 5.1 0 0 0-4.91-5 1.58 1.58 0 0 0-.38 0c-.55 0-1.21-.17-1.21-1 0-.49.65-1 1.59-1a1.85 1.85 0 0 1 1.37.52 1.75 1.75 0 1 0 2.58-2.36 5.12 5.12 0 0 0-2.79-1.54V3.5a1.5 1.5 0 0 0-3 0v1a4.57 4.57 0 0 0-3.25 4.24 4.37 4.37 0 0 0 4.23 4.41 1.58 1.58 0 0 0 .38 0c1.09 0 1.89.63 1.89 1.51s-1 1.5-2.14 1.5a2.45 2.45 0 0 1-1.81-.72 1.75 1.75 0 0 0-2.6 2.34 5.7 5.7 0 0 0 3.3 1.77v.9a1.5 1.5 0 0 0 3 0v-1.04a5.08 5.08 0 0 0 3.75-4.7Z"/></svg>