<svg xmlns="http://www.w3.org/2000/svg" viewBox="0 0 24 24" id="ds-icon-dashboard-preview-off"><path d="M11.844 9.016c.053 0 .1-.016.156-.016a3 3 0 0 1 3 3c0 .053-.013.1-.016.156l3.871 3.871A16.628 16.628 0 0 0 22 12s-3.6-7-10-7a8.809 8.809 0 0 0-3.454.718ZM19.778 19.778 4.222 4.222a1 1 0 0 0-1.414 1.414l2.337 2.337A16.628 16.628 0 0 0 2 12s3.6 7 10 7a8.809 8.809 0 0 0 3.454-.718l2.91 2.91a1 1 0 0 0 1.414-1.414ZM12 15a3 3 0 0 1-3-3c0-.053.013-.1.016-.156l3.14 3.14c-.056.003-.103.016-.156.016Z" fill-rule="evenodd"/></svg>