<svg xmlns="http://www.w3.org/2000/svg" width="24" height="24" id="ds-icon-dashboard-sparkles"><path d="M.505 11.425c4.38 0 8.758-4.885 8.758-9.77 0 4.885 4.38 9.77 8.758 9.77-4.379 0-8.758 4.885-8.758 9.77 0-4.885-4.379-9.77-8.758-9.77Z"/><path d="M13.642 18.322c2.463 0 4.926-2.586 4.926-5.173 0 2.587 2.463 5.173 4.926 5.173-2.462 0-4.926 2.586-4.926 5.173 0-2.587-2.463-5.173-4.926-5.173Z"/><path d="M13.642 3.954c1.642 0 3.284-1.724 3.284-3.448 0 1.724 1.642 3.448 3.284 3.448-1.642 0-3.284 1.724-3.284 3.448 0-1.724-1.642-3.448-3.284-3.448Z"/></svg>