<svg xmlns="http://www.w3.org/2000/svg" viewBox="0 0 24 24" id="ds-icon-dashboard-split"><path d="M12 22a1.5 1.5 0 0 1-1.5-1.5v-17a1.5 1.5 0 0 1 3 0v17A1.5 1.5 0 0 1 12 22Zm10.94-9.62a1 1 0 0 0 0-.76 1 1 0 0 0-.21-.33l-2.5-2.5a1 1 0 0 0-1.42 1.42l.8.79h-2.86a1 1 0 0 0 0 2h2.84l-.8.79a1 1 0 0 0 0 1.42 1 1 0 0 0 1.42 0l2.5-2.5a1 1 0 0 0 .21-.33ZM7.25 11H4.41l.8-.79a1 1 0 0 0-1.42-1.42l-2.5 2.5a1 1 0 0 0-.21.33 1 1 0 0 0 0 .76.93.93 0 0 0 .21.33l2.5 2.5a1 1 0 0 0 1.42 0 1 1 0 0 0 0-1.42l-.8-.79h2.84a1 1 0 0 0 0-2Z"/></svg>