<svg xmlns="http://www.w3.org/2000/svg" viewBox="0 0 16 16" id="ds-icon-dashboard-title"><path d="M4 .667v8h8v-8H4Zm6.688 2.623H8.769v3.274a.769.769 0 1 1-1.538 0V3.29H5.312a.645.645 0 0 1 0-1.29h5.377a.645.645 0 0 1 0 1.29Z" class="cls-1"/><path d="M12 10.667a.667.667 0 0 1-.667.667H4.666a.667.667 0 1 1 0-1.334h6.667c.368 0 .667.299.667.667Z" class="cls-2"/><path d="M12 12.667a.667.667 0 0 1-.667.667H4.666a.667.667 0 1 1 0-1.334h6.667c.368 0 .667.299.667.667Z" class="cls-2"/><path d="M12 14.667a.667.667 0 0 1-.667.667H4.666a.667.667 0 1 1 0-1.334h6.667c.368 0 .667.299.667.667Z" class="cls-2"/></svg>