<svg xmlns="http://www.w3.org/2000/svg" width="24" height="24" id="ds-icon-dashboard-trending"><path d="M21.985 11.315a1.872 1.872 0 0 1-.314 1.29c-.247.357-.61.611-1.022.707a1.58 1.58 0 0 1-1.213-.207 1.705 1.705 0 0 1-.74-1.085l-.317-1.845-4.658 7.07a.65.65 0 0 1-.861.222l-4.637-2.564-3.275 5.328c-.478.777-1.468 1.003-2.212.504-.744-.5-.96-1.535-.482-2.314l4.534-7.376a.651.651 0 0 1 .874-.24l4.701 2.6 3.285-4.986-1.594.369a1.581 1.581 0 0 1-1.243-.297 1.728 1.728 0 0 1-.65-1.09 1.872 1.872 0 0 1 .231-1.26 1.745 1.745 0 0 1 1.018-.798l5.604-1.302c.435-.1.89-.016 1.263.244.372.26.622.667.702 1.124v.002l1.006 5.904Z"/></svg>