<svg xmlns="http://www.w3.org/2000/svg" viewBox="0 0 24 24" id="ds-icon-dashboard-warning"><path d="M12 2a10 10 0 1 0 10 10A10 10 0 0 0 12 2zm1 15.79a1.43 1.43 0 0 1-1 .37 1.46 1.46 0 0 1-1-.37 1.32 1.32 0 0 1-.44-1.05 1.39 1.39 0 0 1 .41-1 1.45 1.45 0 0 1 2 0 1.44 1.44 0 0 1 0 2zM13.37 9L13 12.81a3.31 3.31 0 0 1-.22 1.19.85.85 0 0 1-.82.51.83.83 0 0 1-.81-.5 3.7 3.7 0 0 1-.26-1.16l-.25-3.74c-.05-.73-.07-1.27-.07-1.59A1.66 1.66 0 0 1 11 6.28a1.37 1.37 0 0 1 1.07-.44 1.15 1.15 0 0 1 1.13.6 3.34 3.34 0 0 1 .25 1.45A9.73 9.73 0 0 1 13.37 9z"/></svg>