<svg xmlns="http://www.w3.org/2000/svg"><defs><style>.cls-1{fill:none;}</style><style>.cls-1{fill:none;}</style></defs><symbol viewBox="0 0 24 24" id="add"><path d="M20,10H14V4a2,2,0,0,0-4,0v6H4a2,2,0,0,0,0,4h6v6a2,2,0,0,0,4,0V14h6a2,2,0,0,0,0-4Z"/></symbol><symbol viewBox="0 0 24 24" id="airplay"><path d="M20,3.51H4a2,2,0,0,0-2,2v9.33a2,2,0,0,0,2,2H6.05l3.74-4.08a3,3,0,0,1,4.42,0L18,16.84H20a2,2,0,0,0,2-2V5.51A2,2,0,0,0,20,3.51Z"/><path d="M17.31,18.82l-2.08-2.26-2.5-2.73a1,1,0,0,0-1.46,0l-2.5,2.73L6.69,18.82a1,1,0,0,0,.74,1.67h9.14A1,1,0,0,0,17.31,18.82Z"/></symbol><symbol viewBox="0 0 24 24" id="analytics"><rect x="9.47" y="2" width="5" height="20" rx="1" ry="1"/><rect x="17" y="7" width="5" height="15" rx="1" ry="1"/><rect x="2" y="12" width="5" height="10" rx="1" ry="1"/></symbol><symbol viewBox="0 0 24 24" id="arrow-down"><path transform="rotate(180,12,12)" d="M21.41,10.59l-8-8a2,2,0,0,0-2.82,0l-8,8a2,2,0,0,0,2.82,2.82L10,8.83V20a2,2,0,0,0,4,0V8.83l4.59,4.58a2,2,0,0,0,2.82-2.82Z"/></symbol><symbol viewBox="0 0 24 24" id="arrow-left"><path transform="rotate(270,12,12)" d="M21.41,10.59l-8-8a2,2,0,0,0-2.82,0l-8,8a2,2,0,0,0,2.82,2.82L10,8.83V20a2,2,0,0,0,4,0V8.83l4.59,4.58a2,2,0,0,0,2.82-2.82Z"/></symbol><symbol viewBox="0 0 24 24" id="arrow-right"><path transform="rotate(90,12,12)" d="M21.41,10.59l-8-8a2,2,0,0,0-2.82,0l-8,8a2,2,0,0,0,2.82,2.82L10,8.83V20a2,2,0,0,0,4,0V8.83l4.59,4.58a2,2,0,0,0,2.82-2.82Z"/></symbol><symbol viewBox="0 0 24 24" id="arrow-up"><path d="M21.41,10.59l-8-8a2,2,0,0,0-2.82,0l-8,8a2,2,0,0,0,2.82,2.82L10,8.83V20a2,2,0,0,0,4,0V8.83l4.59,4.58a2,2,0,0,0,2.82-2.82Z"/></symbol><symbol viewBox="0 0 24 24" id="calendar"><path d="M20.5,6h-.71V4a2,2,0,0,0-4,0V6H8.27V4a2,2,0,0,0-4,0V6H3.5A1.5,1.5,0,0,0,2,7.5v13A1.5,1.5,0,0,0,3.5,22h17A1.5,1.5,0,0,0,22,20.5V7.5A1.5,1.5,0,0,0,20.5,6ZM11.36,16.48a2.73,2.73,0,0,1-.66.93,3.17,3.17,0,0,1-1,.63,3.64,3.64,0,0,1-1.31.23A3.26,3.26,0,0,1,7.05,18a3.4,3.4,0,0,1-1-.66,3.07,3.07,0,0,1-.56-.82,1.79,1.79,0,0,1-.2-.72.83.83,0,0,1,.26-.63.85.85,0,0,1,.63-.25.69.69,0,0,1,.39.12.6.6,0,0,1,.25.3,3.52,3.52,0,0,0,.63,1.16,1.1,1.1,0,0,0,.88.36A1.4,1.4,0,0,0,9,16.7a1.35,1.35,0,0,0,.5-.48,1.37,1.37,0,0,0,.21-.75,1.4,1.4,0,0,0-.34-1,1.25,1.25,0,0,0-1-.35l-.35,0-.33,0a.83.83,0,0,1-.58-.2A.71.71,0,0,1,7,13.44a.69.69,0,0,1,.26-.55,1.11,1.11,0,0,1,.71-.2h.24A1.33,1.33,0,0,0,9,12.4a1,1,0,0,0,.34-.81.94.94,0,0,0-.28-.69,1,1,0,0,0-.74-.29,1.38,1.38,0,0,0-.54.09.8.8,0,0,0-.32.23,2.34,2.34,0,0,0-.24.4L7,11.81a.53.53,0,0,1-.27.26,1,1,0,0,1-.41.08.73.73,0,0,1-.51-.23.78.78,0,0,1-.24-.59,1.53,1.53,0,0,1,.2-.71A2.48,2.48,0,0,1,6.35,10a2.81,2.81,0,0,1,.92-.51,3.67,3.67,0,0,1,1.22-.2,3.4,3.4,0,0,1,1.08.17,2.35,2.35,0,0,1,.85.47,2,2,0,0,1,.56.72,2.17,2.17,0,0,1,.19.88,2,2,0,0,1-.28,1.07,3.43,3.43,0,0,1-.62.74,3,3,0,0,1,.65.49,2.39,2.39,0,0,1,.49.74,2.34,2.34,0,0,1,.17.88A2.71,2.71,0,0,1,11.36,16.48Zm5.75.49c0,1.08-.51,1.3-.93,1.3a.85.85,0,0,1-.67-.28,1.17,1.17,0,0,1-.25-.79V12.12a4.25,4.25,0,0,1-1.88,1,.73.73,0,0,1-.52-.23.78.78,0,0,1-.23-.54.63.63,0,0,1,.24-.54,4,4,0,0,1,.68-.38,5.49,5.49,0,0,0,1.11-.68,4.69,4.69,0,0,0,.73-.81c.23-.31.37-.5.44-.57a.6.6,0,0,1,.47-.15.72.72,0,0,1,.59.29,1.18,1.18,0,0,1,.22.74Z"/></symbol><symbol viewBox="0 0 24 24" id="checkbox-indeterminate"><rect width="19.608" height="4.128" x="2.196" y="9.936" rx="2.064" ry="2.064"/></symbol><symbol viewBox="0 0 24 24" id="checkmark"><path d="M9,20H8.91a2,2,0,0,1-1.48-.71l-5-5.9a2,2,0,1,1,3.06-2.57L9,15,18.53,4.65a2,2,0,0,1,2.94,2.7l-11,12A2,2,0,0,1,9,20Z"/></symbol><symbol viewBox="0 0 24 24" id="chevron-down"><path transform="rotate(180,12,12)" d="M20,18a2,2,0,0,1-1.41-.59L12,10.83,5.41,17.41a2,2,0,0,1-2.82-2.82l8-8a2,2,0,0,1,2.82,0l8,8A2,2,0,0,1,20,18Z"/></symbol><symbol viewBox="0 0 24 24" id="chevron-left"><path transform="rotate(270,12,12)" d="M20,18a2,2,0,0,1-1.41-.59L12,10.83,5.41,17.41a2,2,0,0,1-2.82-2.82l8-8a2,2,0,0,1,2.82,0l8,8A2,2,0,0,1,20,18Z"/></symbol><symbol viewBox="0 0 24 24" id="chevron-right"><path transform="rotate(90,12,12)" d="M20,18a2,2,0,0,1-1.41-.59L12,10.83,5.41,17.41a2,2,0,0,1-2.82-2.82l8-8a2,2,0,0,1,2.82,0l8,8A2,2,0,0,1,20,18Z"/></symbol><symbol viewBox="0 0 24 24" id="chevron-up"><path d="M20,18a2,2,0,0,1-1.41-.59L12,10.83,5.41,17.41a2,2,0,0,1-2.82-2.82l8-8a2,2,0,0,1,2.82,0l8,8A2,2,0,0,1,20,18Z"/></symbol><symbol viewBox="0 0 24 24" id="chromecast"><path id="chromecast-cast-on" d="M2,17.45v2.73H4.73A2.73,2.73,0,0,0,2,17.45Zm0-3.63v1.82a4.55,4.55,0,0,1,4.55,4.54H8.36A6.35,6.35,0,0,0,2,13.82ZM18.36,7.45H5.64V8.94a11.86,11.86,0,0,1,7.61,7.61h5.11V7.45ZM2,10.18V12a8.18,8.18,0,0,1,8.18,8.18H12a10,10,0,0,0-10-10ZM20.18,3.82H3.82A1.83,1.83,0,0,0,2,5.64V8.36H3.82V5.64H20.18V18.36H13.82v1.82h6.36A1.83,1.83,0,0,0,22,18.36V5.64a1.83,1.83,0,0,0-1.82-1.82Z"/></symbol><symbol viewBox="0 0 24 24" id="collapse-expand"><path d="M20.5,22A1.5,1.5,0,0,1,19,20.5V3.5a1.5,1.5,0,0,1,3,0v17A1.5,1.5,0,0,1,20.5,22Z"/><path d="M14.56,10.94l-5-5A1.5,1.5,0,1,0,7.44,8.06L9.88,10.5H3.5a1.5,1.5,0,0,0,0,3H9.88L7.44,15.94a1.49,1.49,0,0,0,0,2.12,1.5,1.5,0,0,0,2.12,0l5-5A1.49,1.49,0,0,0,14.56,10.94Z"/></symbol><symbol viewBox="0 0 24 24" id="credit-card"><path d="M2,17a2,2,0,0,0,2,2H20a2,2,0,0,0,2-2V9.5H2Zm15-1.67h3.33V17H17Z"/><path d="M20,5H4A2,2,0,0,0,2,7v.83H22V7A2,2,0,0,0,20,5Z"/></symbol><symbol viewBox="0 0 24 24" id="cross"><path d="M14.83,12l6.58-6.59a2,2,0,0,0-2.82-2.82L12,9.17,5.41,2.59A2,2,0,0,0,2.59,5.41L9.17,12,2.59,18.59a2,2,0,1,0,2.82,2.82L12,14.83l6.59,6.58a2,2,0,0,0,2.82-2.82Z"/></symbol><symbol viewBox="0 0 24 24" id="customize"><path d="M20.5,22H3.5a1.5,1.5,0,0,1,0-3h17a1.5,1.5,0,0,1,0,3Z"/><path d="M17,11.25A4.88,4.88,0,0,1,12,16a4.91,4.91,0,0,1-5-4.75C7,8.6,10.33,6,12,2,13.78,5.8,17,8.6,17,11.25Z"/></symbol><symbol viewBox="0 0 24 24" id="device-desktop"><path d="M19,5V15H5V5H19m1-3H4A2,2,0,0,0,2,4V16a2,2,0,0,0,2,2H20a2,2,0,0,0,2-2V4a2,2,0,0,0-2-2Z"/><path d="M15.33,22H8.67a1.5,1.5,0,0,1,0-3h6.66a1.5,1.5,0,0,1,0,3Z"/></symbol><symbol viewBox="0 0 24 24" id="device-landscape"><rect class="cls-1" x="6.99" y="8" width="11.67" height="8"/><path d="M22,16V8a2,2,0,0,0-2-2H4A2,2,0,0,0,2,8v8a2,2,0,0,0,2,2H20A2,2,0,0,0,22,16ZM3.4,12a1.25,1.25,0,1,1,1.25,1.25A1.25,1.25,0,0,1,3.4,12ZM7,16V8H18.66v8Z"/></symbol><symbol viewBox="0 0 24 24" id="device-portrait"><rect class="cls-1" x="8" y="5.34" width="8" height="11.67"/><path d="M16,2H8A2,2,0,0,0,6,4V20a2,2,0,0,0,2,2h8a2,2,0,0,0,2-2V4A2,2,0,0,0,16,2ZM12,20.6a1.25,1.25,0,1,1,1.25-1.25A1.25,1.25,0,0,1,12,20.6ZM16,17H8V5.34h8Z"/></symbol><symbol viewBox="0 0 24 24" id="document"><path d="M18,2H6A2,2,0,0,0,4,4V20a2,2,0,0,0,2,2H18a2,2,0,0,0,2-2V4A2,2,0,0,0,18,2ZM14.18,17.37h-7a1,1,0,0,1,0-2h7a1,1,0,0,1,0,2ZM16.8,13H7.2a1,1,0,1,1,0-2h9.6a1,1,0,0,1,0,2Zm0-4.37H7.2a1,1,0,1,1,0-2h9.6a1,1,0,1,1,0,2Z"/></symbol><symbol viewBox="0 0 24 24" id="download"><path d="M20.5,19H3.5a1.5,1.5,0,0,0,0,3h17a1.5,1.5,0,0,0,0-3Z"/><path d="M10.94,14.56a1.5,1.5,0,0,0,2.12,0l5-5a1.5,1.5,0,1,0-2.12-2.12L13.5,9.88V3.5a1.5,1.5,0,0,0-3,0V9.88L8.06,7.44A1.5,1.5,0,1,0,5.94,9.56Z"/></symbol><symbol viewBox="0 0 24 24" id="drag"><path d="M20.5,22H3.5a1.5,1.5,0,0,1,0-3h17a1.5,1.5,0,0,1,0,3Z"/><path d="M18.5,13.61H5.5a1.5,1.5,0,0,1,0-3h13a1.5,1.5,0,0,1,0,3Z"/><path d="M20.5,5H3.5a1.5,1.5,0,0,1,0-3h17a1.5,1.5,0,0,1,0,3Z"/></symbol><symbol viewBox="0 0 24 24" id="edit"><path d="M21.64,7,10.23,18.39a1.53,1.53,0,0,1-2.14-.17L5.78,15.91a1.53,1.53,0,0,1-.17-2.14L17,2.36a1.54,1.54,0,0,1,2.14.17l2.31,2.31A1.54,1.54,0,0,1,21.64,7Z"/><path d="M2.5,22H6.3a.5.5,0,0,0,.35-.85l-3.8-3.8A.5.5,0,0,0,2,17.7v3.8A.5.5,0,0,0,2.5,22Z"/></symbol><symbol viewBox="0 0 24 24" id="embed"><path d="M5.5,16.5a1.51,1.51,0,0,1-1.06-.44l-3-3a1.49,1.49,0,0,1,0-2.12l3-3a1.5,1.5,0,1,1,2.12,2.12L4.62,12l1.94,1.94a1.49,1.49,0,0,1,0,2.12A1.51,1.51,0,0,1,5.5,16.5Z"/><path d="M18.5,16.5a1.51,1.51,0,0,1-1.06-.44,1.49,1.49,0,0,1,0-2.12L19.38,12l-1.94-1.94a1.5,1.5,0,1,1,2.12-2.12l3,3a1.49,1.49,0,0,1,0,2.12l-3,3A1.51,1.51,0,0,1,18.5,16.5Z"/><path d="M8.68,21a1.52,1.52,0,0,1-.59-.12,1.49,1.49,0,0,1-.79-2l6.35-15a1.5,1.5,0,0,1,2.77,1.16l-6.36,15A1.49,1.49,0,0,1,8.68,21Z"/></symbol><symbol viewBox="0 0 24 24" id="external-link"><path d="M14.12,22H3.5A1.5,1.5,0,0,1,2,20.5V9.88a1.5,1.5,0,0,1,3,0V19h9.12a1.5,1.5,0,0,1,0,3Z"/><path d="M20.5,2H9.88a1.5,1.5,0,0,0,0,3h7l-5.7,5.7a1.51,1.51,0,0,0,0,2.12,1.53,1.53,0,0,0,1.06.44,1.49,1.49,0,0,0,1.06-.44L19,7.12v7a1.5,1.5,0,0,0,3,0V3.5A1.5,1.5,0,0,0,20.5,2Z"/></symbol><symbol viewBox="0 0 24 24" id="full-screen-off"><path d="M20.5,14.57a1.5,1.5,0,0,1-1.5-1.5V5H10.93a1.5,1.5,0,0,1,0-3H20.5A1.5,1.5,0,0,1,22,3.5v9.57A1.5,1.5,0,0,1,20.5,14.57Z"/><path d="M13.07,22H3.5A1.5,1.5,0,0,1,2,20.5V10.93a1.5,1.5,0,0,1,3,0V19h8.07a1.5,1.5,0,0,1,0,3Z"/></symbol><symbol viewBox="0 0 24 24" id="full-screen-on"><path d="M9.5,22A1.5,1.5,0,0,1,8,20.5V16H3.5a1.5,1.5,0,0,1,0-3h6A1.5,1.5,0,0,1,11,14.5v6A1.5,1.5,0,0,1,9.5,22Z"/><path d="M20.5,11h-6A1.5,1.5,0,0,1,13,9.5v-6a1.5,1.5,0,0,1,3,0V8h4.5a1.5,1.5,0,0,1,0,3Z"/></symbol><symbol viewBox="0 0 24 24" id="grid"><rect x="2" y="2" width="8.33" height="8.33" rx="1" ry="1"/><rect x="13.67" y="2" width="8.33" height="8.33" rx="1" ry="1"/><rect x="2" y="13.67" width="8.33" height="8.33" rx="1" ry="1"/><rect x="13.67" y="13.67" width="8.33" height="8.33" rx="1" ry="1"/></symbol><symbol viewBox="0 0 24 24" id="help"><path d="M12,2A10,10,0,1,0,22,12,10,10,0,0,0,12,2ZM13,18.05a1.37,1.37,0,0,1-.94.36,1.48,1.48,0,0,1-1-.35,1.4,1.4,0,0,1,0-2,1.38,1.38,0,0,1,1-.4,1.35,1.35,0,0,1,1.36,1.37A1.26,1.26,0,0,1,13,18.05Zm2.76-8a3.49,3.49,0,0,1-.66.89c-.24.24-.68.64-1.29,1.18q-.24.22-.39.39a1.54,1.54,0,0,0-.19.28.77.77,0,0,0-.1.25c0,.09-.07.26-.12.5a1.08,1.08,0,0,1-1.13,1A1.16,1.16,0,0,1,11,14.2a1.27,1.27,0,0,1-.34-.94,2.86,2.86,0,0,1,.22-1.18,3.12,3.12,0,0,1,.56-.89c.22-.23.51-.51.89-.84s.54-.49.68-.63a1.8,1.8,0,0,0,.32-.42.9.9,0,0,0,.12-.46A1.09,1.09,0,0,0,13.08,8a1.41,1.41,0,0,0-1-.35,1.36,1.36,0,0,0-1,.35,3,3,0,0,0-.61,1.14,1.22,1.22,0,0,1-1.2,1,1.16,1.16,0,0,1-.88-.37A1.12,1.12,0,0,1,8,9a3,3,0,0,1,.5-1.58A3.72,3.72,0,0,1,9.92,6.1a4.46,4.46,0,0,1,2.17-.51,4.69,4.69,0,0,1,2,.42,3.51,3.51,0,0,1,1.39,1.18A3,3,0,0,1,16,8.83,2.57,2.57,0,0,1,15.71,10.06Z"/></symbol><symbol viewBox="0 0 24 24" id="home"><path d="M20.5,11.48a1.47,1.47,0,0,1-.91-.31L12,5.39,4.41,11.17A1.5,1.5,0,0,1,2.59,8.78l8.5-6.47a1.5,1.5,0,0,1,1.82,0l8.5,6.47a1.51,1.51,0,0,1-.91,2.7Z"/><path d="M17.36,22H6.64A1.49,1.49,0,0,1,5,20.72V15.11a1.22,1.22,0,0,1,.63-1l5.8-4.44a1.11,1.11,0,0,1,1.14,0l5.8,4.44a1.22,1.22,0,0,1,.63,1v5.61A1.49,1.49,0,0,1,17.36,22Z"/></symbol><symbol viewBox="0 0 24 24" id="key"><path d="M11.57,10a5.07,5.07,0,1,0,0,4H16v3h4V14h2V10ZM7,13.63A1.63,1.63,0,1,1,8.63,12,1.63,1.63,0,0,1,7,13.63Z"/></symbol><symbol viewBox="0 0 24 24" id="labs"><path d="M20.68,18.72l-4.79-8a.36.36,0,0,1,0-.11V4H16a1,1,0,0,0,0-2H8A1,1,0,0,0,8,4h.13v6.64a.36.36,0,0,1,0,.11l-4.79,8a2.2,2.2,0,0,0,0,2.23A2,2,0,0,0,5.05,22H19A2,2,0,0,0,20.71,21,2.2,2.2,0,0,0,20.68,18.72ZM9.82,11.78a2.24,2.24,0,0,0,.31-1.14V4h3.74v6.64a2.24,2.24,0,0,0,.31,1.14l3.05,5.08a10.56,10.56,0,0,0-5.12-1.12,9.76,9.76,0,0,0-5.49,1.37Z"/></symbol><symbol viewBox="0 0 24 24" id="link"><path d="M14,16.35l.78-.79a1,1,0,0,0,.32-.76,1.07,1.07,0,0,0-.32-.77l-.59-.58a1.07,1.07,0,0,0-1.53,0l-.78.78a.61.61,0,0,1-.82,0L5.16,8.34a.61.61,0,0,1,0-.82L7.52,5.16a.61.61,0,0,1,.82,0l1,1a1.08,1.08,0,0,0,1.53,0l.59-.58a1.09,1.09,0,0,0,0-1.54l-1-1A3.6,3.6,0,0,0,5.4,3L3,5.4a3.6,3.6,0,0,0,0,5.06l5.89,5.89a3.57,3.57,0,0,0,4.34.54A3.86,3.86,0,0,0,14,16.35Z"/><path d="M21,13.54,15.07,7.65a3.62,3.62,0,0,0-4.34-.54,3.56,3.56,0,0,0-.72.54l-.78.78a1.08,1.08,0,0,0,0,1.54l.59.58a1.07,1.07,0,0,0,1.53,0l.78-.78a.61.61,0,0,1,.82,0l5.88,5.89a.58.58,0,0,1,0,.82l-2.35,2.36a.61.61,0,0,1-.82,0l-1-1a1.07,1.07,0,0,0-1.53,0l-.59.58a1.07,1.07,0,0,0-.32.77,1,1,0,0,0,.32.76l1,1a3.6,3.6,0,0,0,5.06,0L21,18.6A3.57,3.57,0,0,0,21,13.54Z"/></symbol><symbol viewBox="0 0 24 24" id="list-big"><rect x="2" y="2.02" width="20" height="3.33" rx="1" ry="1"/><rect x="2" y="10.32" width="20" height="3.33" rx="1" ry="1"/><rect x="2" y="18.67" width="20" height="3.33" rx="1" ry="1"/></symbol><symbol viewBox="0 0 24 24" id="list-small"><rect x="2" y="2" width="20" height="1.66" rx="0.5" ry="0.5"/><rect x="2" y="7.99" width="20" height="1.66" rx="0.5" ry="0.5"/><rect x="2" y="20.34" width="20" height="1.66" rx="0.5" ry="0.5"/><rect x="2" y="14.26" width="20" height="1.66" rx="0.5" ry="0.5"/></symbol><symbol viewBox="0 0 24 24" id="lock"><path d="M20,10.49A8.28,8.28,0,0,0,12,2a8.28,8.28,0,0,0-8,8.49H4V20a2,2,0,0,0,2,2H18a2,2,0,0,0,2-2V10.49ZM12,5a5.28,5.28,0,0,1,5,5.49H7A5.28,5.28,0,0,1,12,5Z"/></symbol><symbol viewBox="0 0 24 24" id="mail"><path d="M20,4H4A2,2,0,0,0,2,6V18a2,2,0,0,0,2,2H20a2,2,0,0,0,2-2V6A2,2,0,0,0,20,4Zm-.71,5.05-6.67,5.34a1,1,0,0,1-1.24,0L4.71,9.05A1,1,0,1,1,6,7.49l6,4.83,6-4.83a1,1,0,1,1,1.25,1.56Z"/></symbol><symbol viewBox="0 0 24 24" id="monetize"><path d="M17.25,14.71a5.1,5.1,0,0,0-4.91-5,1.58,1.58,0,0,0-.38,0c-.55,0-1.21-.17-1.21-1,0-.49.65-1,1.59-1a1.85,1.85,0,0,1,1.37.52,1.75,1.75,0,1,0,2.58-2.36A5.12,5.12,0,0,0,13.5,4.33V3.5a1.5,1.5,0,0,0-3,0v1A4.57,4.57,0,0,0,7.25,8.74a4.37,4.37,0,0,0,4.23,4.41,1.58,1.58,0,0,0,.38,0c1.09,0,1.89.63,1.89,1.51s-1,1.5-2.14,1.5a2.45,2.45,0,0,1-1.81-.72,1.75,1.75,0,0,0-2.6,2.34,5.7,5.7,0,0,0,3.3,1.77v.9a1.5,1.5,0,0,0,3,0V19.41A5.08,5.08,0,0,0,17.25,14.71Z"/></symbol><symbol viewBox="0 0 24 24" id="more"><path d="M6,12a2,2,0,1,1-2-2A2,2,0,0,1,6,12Zm6-2a2,2,0,1,0,2,2A2,2,0,0,0,12,10Zm8,0a2,2,0,1,0,2,2A2,2,0,0,0,20,10Z"/></symbol><symbol viewBox="0 0 24 24" id="phone"><path d="M21.8,18.79A5.24,5.24,0,0,1,17.14,22c-.26,0-4.22.22-9.94-5.22A16.06,16.06,0,0,1,2,6.8c0-.87.2-3.06,3.2-4.68a1.4,1.4,0,0,1,1.55.28c.06.09,2.35,3.85,2.41,4a1.11,1.11,0,0,1,.1.41,1.22,1.22,0,0,1-.4.7A6.62,6.62,0,0,1,8,8.28a7.14,7.14,0,0,0-.88.77,1.09,1.09,0,0,0-.4.66c0,.44.38,2,3.14,4.46A20.93,20.93,0,0,0,14,17.32a1.24,1.24,0,0,0,.32.08c.18,0,.38-.14.66-.4s1.16-1.49,1.44-1.77a1.22,1.22,0,0,1,.7-.4,1,1,0,0,1,.4.1c.14.06,4.28,2.49,4.36,2.57s0,.9-.12,1.29"/></symbol><symbol viewBox="0 0 24 24" id="play"><path d="M20.11,10.34l-12-8A2,2,0,0,0,5,4V20a2,2,0,0,0,3.11,1.66l12-8A2,2,0,0,0,20.11,10.34Z"/></symbol><symbol viewBox="0 0 24 24" id="preview"><path d="M12,5C5.56,5,2,12,2,12s3.56,7,10,7,10-7,10-7S18.44,5,12,5Zm3.33,7.45A3.33,3.33,0,1,1,15,11,3.33,3.33,0,0,1,15.33,12.45Z"/></symbol><symbol viewBox="0 0 17.13 16.64" id="publish"><path d="M9,15.48l.49.46a2.13,2.13,0,0,0,2.1.51,2.09,2.09,0,0,0,1.08-.77c.3-.42,4.38-13,4.41-13.16A2.14,2.14,0,0,0,14.52.05L1.68,3.81a2.14,2.14,0,0,0-1,3.63l2.8,2.7a.69.69,0,0,0,.84.08l6.8-5.46a.14.14,0,0,1,.18.21l-5.77,7a1.32,1.32,0,0,0-.24.49v2.33c0,.26,0,.52,0,.78a3.86,3.86,0,0,0,0,.76.36.36,0,0,0,.23.31.32.32,0,0,0,.35,0,1.38,1.38,0,0,0,.22-.26c.2-.28.39-.57.58-.85s.34-.51.52-.76.22-.34.37-.38a.47.47,0,0,1,.45.17"/></symbol><symbol viewBox="0 0 24 24" id="recommendations"><rect x="2" y="5.63" width="5.5" height="5.5" rx="1" ry="1"/><rect x="9.25" y="5.63" width="5.5" height="5.5" rx="1" ry="1"/><rect x="2" y="12.88" width="5.5" height="5.5" rx="1" ry="1"/><rect x="9.37" y="12.88" width="5.5" height="5.5" rx="1" ry="1"/><rect x="16.5" y="5.63" width="5.5" height="5.5" rx="1" ry="1"/><rect x="16.5" y="12.88" width="5.5" height="5.5" rx="1" ry="1"/></symbol><symbol viewBox="0 0 24 24" id="search"><path d="M21.41,18.59,16,13.19A7.52,7.52,0,1,0,13.19,16l5.4,5.39a2,2,0,0,0,2.82-2.82ZM9.5,13A3.5,3.5,0,1,1,13,9.5,3.5,3.5,0,0,1,9.5,13Z"/></symbol><symbol viewBox="0 0 24 24" id="settings"><path d="M20.19,14a7.73,7.73,0,0,0,0-3.9l1.52-.83A.64.64,0,0,0,22,8.44L20.1,5.56a.57.57,0,0,0-.7-.23l-1.53.83a8.35,8.35,0,0,0-3.56-2V2.56A.53.53,0,0,0,13.8,2H10.27a.53.53,0,0,0-.58.49V4.17a8.35,8.35,0,0,0-3.56,2L4.6,5.33a.57.57,0,0,0-.7.23L2.17,8.44a.53.53,0,0,0,.1.77h0l1.52.83a7.73,7.73,0,0,0,0,3.9l-1.52.83a.63.63,0,0,0-.24.77L3.9,18.44a.57.57,0,0,0,.7.23l1.53-.83a8.35,8.35,0,0,0,3.56,2v1.61a.53.53,0,0,0,.51.56h3.53a.53.53,0,0,0,.58-.49V19.83a8.35,8.35,0,0,0,3.56-2l1.53.83a.63.63,0,0,0,.81-.23L22,15.55a.71.71,0,0,0-.24-.77Zm-4.72-2a3.33,3.33,0,0,1-3.34,3.33H12A3.41,3.41,0,0,1,8.53,12,3.39,3.39,0,0,1,12,8.66,3.39,3.39,0,0,1,15.47,12Z"/></symbol><symbol viewBox="0 0 24 24" id="share"><path d="M21.3,9.48l-7-6a2,2,0,1,0-2.6,3L14.54,9C7.94,9.6,3.75,13.12,2.07,19.49a2,2,0,0,0,1.42,2.44A1.79,1.79,0,0,0,4,22a2,2,0,0,0,1.93-1.49c1.24-4.69,4-7.09,8.75-7.58l-3,2.55a2,2,0,0,0,2.6,3l7-6a2,2,0,0,0,0-3Z"/></symbol><symbol viewBox="0 0 24 24" id="sort"><path d="M 12.104 22 C 11.735 21.997 11.379 21.858 11.104 21.61 L 5.604 16.61 C 4.681 15.917 4.854 14.484 5.916 14.031 C 6.499 13.782 7.174 13.926 7.604 14.39 L 12.104 18.47 L 16.594 14.39 C 17.518 13.697 18.845 14.263 18.984 15.409 C 19.037 15.847 18.895 16.287 18.594 16.61 L 13.094 21.61 C 12.823 21.856 12.471 21.994 12.104 22 Z"/><path d="M 17.445 10 C 17.075 9.997 16.719 9.858 16.445 9.61 L 11.945 5.53 L 7.455 9.61 C 6.531 10.303 5.204 9.737 5.065 8.591 C 5.012 8.153 5.155 7.713 5.455 7.39 L 10.955 2.39 C 11.524 1.881 12.385 1.881 12.955 2.39 L 18.455 7.39 C 19.068 7.948 19.113 8.897 18.555 9.51 C 18.269 9.82 17.867 9.998 17.445 10 Z"/></symbol><symbol viewBox="0 0 24 24" id="split"><path d="M12,22a1.5,1.5,0,0,1-1.5-1.5V3.5a1.5,1.5,0,0,1,3,0v17A1.5,1.5,0,0,1,12,22Zm10.94-9.62a1,1,0,0,0,0-.76,1,1,0,0,0-.21-.33l-2.5-2.5a1,1,0,0,0-1.42,1.42l.8.79H16.75a1,1,0,0,0,0,2h2.84l-.8.79a1,1,0,0,0,0,1.42,1,1,0,0,0,1.42,0l2.5-2.5A1,1,0,0,0,22.92,12.38ZM7.25,11H4.41l.8-.79A1,1,0,0,0,3.79,8.79l-2.5,2.5a1,1,0,0,0-.21.33,1,1,0,0,0,0,.76.93.93,0,0,0,.21.33l2.5,2.5a1,1,0,0,0,1.42,0,1,1,0,0,0,0-1.42L4.41,13H7.25a1,1,0,0,0,0-2Z"/></symbol><symbol viewBox="0 0 24 24" id="thumbnail"><path d="M20,4H4A2,2,0,0,0,2,6V18a2,2,0,0,0,2,2H20a2,2,0,0,0,2-2V6A2,2,0,0,0,20,4ZM7.48,11.63A2.08,2.08,0,1,1,9.57,9.55,2.08,2.08,0,0,1,7.48,11.63Zm11.13,4.11h-8a.49.49,0,0,1-.41-.78l4-5.71a.5.5,0,0,1,.82,0L19,15A.5.5,0,0,1,18.61,15.74Z"/></symbol><symbol viewBox="0 0 24 24" id="tool"><path d="M21.49,5.46l-3,3L15.52,5.54l3-3A5.7,5.7,0,0,0,16.17,2a5.84,5.84,0,0,0-5.84,5.83,5.77,5.77,0,0,0,.35,2L2.73,17.73a2.5,2.5,0,0,0,3.54,3.54l7.94-7.95a5.77,5.77,0,0,0,2,.35A5.84,5.84,0,0,0,22,7.83,5.7,5.7,0,0,0,21.49,5.46Zm-17,15.31a1.25,1.25,0,1,1,1.25-1.25A1.25,1.25,0,0,1,4.48,20.77Z"/></symbol><symbol viewBox="0 0 24 24" id="trash"><path d="M21,4H17a1,1,0,0,0,0-2H7A1,1,0,0,0,7,4H3A1,1,0,0,0,3,6H21a1,1,0,0,0,0-2Z"/><rect x="6" y="8.91" width="12" height="13.09" rx="1" ry="1"/></symbol><symbol viewBox="0 0 24 24" id="trim"><path d="M18,14a4,4,0,0,0-2.25.7l-2-2.48c.27-.19.57-.42.91-.7.53-.43,5.18-4.29,5.31-7.07a2.4,2.4,0,0,0-.86-1.73L18.35,2,12,10,5.65,2l-.79.7A2.4,2.4,0,0,0,4,4.43c.13,2.78,4.78,6.64,5.31,7.07.34.28.64.51.91.7l-2,2.48A4,4,0,1,0,10,18a4,4,0,0,0-.42-1.77l2.42-3,2.42,3A4,4,0,1,0,22,18,4,4,0,0,0,18,14ZM6,20a2,2,0,1,1,2-2A2,2,0,0,1,6,20Zm12,0a2,2,0,1,1,2-2A2,2,0,0,1,18,20Z"/></symbol><symbol viewBox="0 0 24 24" id="undo"><path d="M18.4,7.63A8.45,8.45,0,0,0,12.34,5.1a7.26,7.26,0,0,0-.93.06l.5-.5A1.5,1.5,0,0,0,9.78,2.54l-3,3a1.51,1.51,0,0,0,0,2.12l3,3a1.51,1.51,0,0,0,2.13,0,1.51,1.51,0,0,0,0-2.12l-.38-.38a5.52,5.52,0,0,1,.81-.06,5.5,5.5,0,0,1,5.5,5.58,5.61,5.61,0,0,1-5.42,5.42h-.08a5.51,5.51,0,0,1-5.5-5.5,1.5,1.5,0,1,0-3,0,8.52,8.52,0,0,0,8.5,8.5h.12a8.56,8.56,0,0,0,8.38-8.38A8.39,8.39,0,0,0,18.4,7.63Z"/></symbol><symbol viewBox="0 0 24 24" id="upload"><path d="M20.5,5H3.5a1.5,1.5,0,0,1,0-3h17a1.5,1.5,0,0,1,0,3Z"/><path d="M18.06,14.44l-5-5a1.49,1.49,0,0,0-2.12,0l-5,5a1.5,1.5,0,1,0,2.12,2.12l2.44-2.44V20.5a1.5,1.5,0,0,0,3,0V14.12l2.44,2.44a1.5,1.5,0,0,0,2.12,0A1.49,1.49,0,0,0,18.06,14.44Z"/></symbol><symbol viewBox="0 0 24 24" id="warning"><path d="M12,2A10,10,0,1,0,22,12,10,10,0,0,0,12,2Zm1,15.79a1.43,1.43,0,0,1-1,.37,1.46,1.46,0,0,1-1-.37,1.32,1.32,0,0,1-.44-1.05,1.39,1.39,0,0,1,.41-1,1.45,1.45,0,0,1,2,0,1.44,1.44,0,0,1,0,2ZM13.37,9,13,12.81A3.31,3.31,0,0,1,12.78,14a.85.85,0,0,1-.82.51.83.83,0,0,1-.81-.5,3.7,3.7,0,0,1-.26-1.16h0l-.25-3.74c-.05-.73-.07-1.27-.07-1.59A1.66,1.66,0,0,1,11,6.28a1.37,1.37,0,0,1,1.07-.44,1.15,1.15,0,0,1,1.13.6,3.34,3.34,0,0,1,.25,1.45A9.73,9.73,0,0,1,13.37,9Z"/></symbol></svg>