<svg xmlns="http://www.w3.org/2000/svg"><symbol viewBox="25.5 179.2 561.1 433.6" id="airplay-off"><title>airplay-off</title> <g transform="translate(239 799)"> <path d="M296.5-568.7v255H169l51,51h114.8c6.6,0.4,12.3-4.6,12.8-11.3c0-0.5,0-1,0-1.5V-607c0.4-6.6-4.6-12.3-11.3-12.8
		c-0.5,0-1,0-1.5,0h-535.5c-6.6-0.4-12.3,4.6-12.8,11.3c0,0.5,0,1,0,1.5v331.5c-0.4,6.6,4.6,12.3,11.3,12.8c0.5,0,1,0,1.5,0H-86
		l51-51h-127.5v-255H296.5 M-86-186.2L67-364.7l153,178.5L-86-186.2L-86-186.2z"/> </g> </symbol><symbol viewBox="-407.5 1639 495 382.5" id="airplay-on"><title>airplay-on</title> <path d="M87.5,1650.2v292.5c0.4,5.9-4.1,10.9-10,11.2c-0.4,0-0.9,0-1.3,0h-99l-38.2-45H42.5v-225h-405v225h105.8l-38.2,45h-101.2
	c-5.9,0.4-10.9-4.1-11.2-10c0-0.4,0-0.9,0-1.3v-292.5c-0.4-5.9,4.1-10.9,10-11.2c0.4,0,0.9,0,1.3,0H76.2c5.9-0.4,10.9,4.1,11.2,10
	C87.5,1649.4,87.5,1649.8,87.5,1650.2z M-193.8,1834.8l33.8-40.5l33.8,40.5l24.8,29.2h99v-135h-315v135h99L-193.8,1834.8z
	 M-25,2021.5L-160,1864l-135,157.5H-25z"/> </symbol><symbol viewBox="-172.8 353.6 313.6 313.6" id="arrow-left"><title>arrow-left</title> <path d="M-101.8,491c-1.5,1.4-2.9,3-4.1,4.7c-9,12.9-5.7,30.7,7.2,39.7l133.3,133L79,624L-32,513L79,402l-47.5-47.5L-101.8,491
	L-101.8,491z"/> </symbol><symbol viewBox="-172.8 353.6 313.6 313.6" id="arrow-right"><title>arrow-right</title> <path d="M69.8,491L-63.4,354.5L-111,402L0,513l-111,111l44.4,44.4l133.3-133c12.9-9,16.2-26.7,7.2-39.7
	C72.7,494,71.3,492.3,69.8,491L69.8,491z"/> </symbol><symbol viewBox="0 0 433.6 433.6" id="audio-tracks"><title>audio-tracks</title> <path fill="#010101" d="M0,0h408v51H0V0z M0,153h408v-51H0V153z M0,255h153v-51H0V255z M318.8,204C259,200.6,207.7,246.2,204,306
	v127.5h51c13.3,0.8,24.7-9.3,25.5-22.6c0.1-1,0.1-1.9,0-2.9v-51c0.8-13.3-9.3-24.7-22.6-25.5c-1-0.1-1.9-0.1-2.9,0h-25.5V306
	c3.7-45.7,43.5-79.9,89.2-76.5c45.7-3.4,85.6,30.8,89.2,76.5v25.5h-25.3c-13.3-0.8-24.7,9.3-25.5,22.6c-0.1,1-0.1,1.9,0,2.9v51
	c-0.8,13.3,9.3,24.7,22.6,25.5c1,0.1,1.9,0.1,2.9,0h51V306C429.9,246.3,378.6,200.7,318.8,204z"/> </symbol><symbol viewBox="0 90 612 612" id="buffer"><title>buffer</title> <g transform="translate(950 1130)"> <path d="M-644-479c-140.8,0-255-114.2-255-255s114.2-255,255-255v-51c-169,0-306,137-306,306s137,306,306,306s306-137,306-306h-51
		C-389.4-593.3-503.3-479.4-644-479z"/> <path d="M-644-912.5c-98-0.6-177.9,78.3-178.5,176.3c0,0.7,0,1.5,0,2.2h51c0-70.4,57.1-127.5,127.5-127.5s127.5,57.1,127.5,127.5
		S-573.6-606.5-644-606.5v51c98.6,0,178.5-79.9,178.5-178.5S-545.4-912.5-644-912.5z"/> </g> </symbol><symbol viewBox="50.9 192 510.1 408.1" id="captions-off"><title>captions-off</title> <g transform="translate(503 990)"> <path d="M-249.6-650.6c-6.2-0.4-12.3,1.7-16.9,5.8c-4.3,4.4-6.5,10.5-6.1,16.6v65.2c0,24.4,29.7,29,45.2,14.1
		c1.8-1.8,3.9-3.7,6.2-5.8l16.8,20c-5.7,6.2-12.7,11.3-20.4,14.8c-20.5,8.8-44.2,6-62.1-7.3c-9.9-9.1-15.1-22.3-14.1-35.7v-65.2
		c-0.1-6.8,1.2-13.6,3.8-19.8c2.4-5.7,6-10.9,10.7-15c14.6-11.5,33.6-15.8,51.8-11.7c8.3,1.4,16.1,5.2,22.3,11
		c3.3,3.2,6.3,6.7,8.8,10.6l-18.1,17.7C-227.9-644.9-238.3-650.6-249.6-650.6z M-135.5-650.6c-6.2-0.4-12.3,1.7-16.9,5.8
		c-4.3,4.4-6.5,10.5-6.1,16.6v65.2c0,24.4,29.7,29,45.2,14.1c1.8-1.8,3.9-3.7,6.2-5.8l16.8,20c-5.7,6.2-12.7,11.3-20.4,14.8
		c-20.5,8.8-44.2,6-62.1-7.3c-9.9-9.1-15.1-22.3-14.1-35.7v-65.2c-0.1-6.8,1.2-13.6,3.8-19.8c2.4-5.7,6-10.9,10.7-15
		c14.6-11.5,33.6-15.8,51.8-11.7c8.3,1.4,16.1,5.2,22.3,11c3.3,3.2,6.3,6.7,8.8,10.6l-18.1,17.7
		C-113.8-644.9-124.3-650.6-135.5-650.6L-135.5-650.6z M7-747v306h-408v-306H7 M45.2-798h-484.5c-7,0-12.8,5.7-12.8,12.8v382.5
		c0,7,5.7,12.8,12.8,12.8H45.2c7,0,12.8-5.7,12.8-12.8v-382.5C58-792.3,52.3-798,45.2-798z"/> </g> </symbol><symbol viewBox="50.9 192 510.1 408.1" id="captions-on"><title>captions-on</title> <g transform="translate(980 1292)"> <path d="M-431.8-1100h-484.5c-7,0-12.8,5.7-12.8,12.8v382.5c0,7,5.7,12.8,12.8,12.8h484.5c7,0,12.8-5.7,12.8-12.8v-382.5
		C-419-1094.3-424.7-1100-431.8-1100z M-704.3-850.8c1.8-1.8,3.9-3.7,6.2-5.8l16.8,20c-5.7,6.2-12.7,11.3-20.4,14.8
		c-20.5,8.8-44.2,6-62.1-7.3c-9.9-9.1-15.1-22.3-14.1-35.7V-930c-0.1-6.8,1.2-13.6,3.8-19.8c2.4-5.7,6-10.9,10.7-15
		c14.6-11.5,33.6-15.8,51.8-11.7c8.3,1.4,16.1,5.2,22.3,11c3.3,3.2,6.3,6.7,8.8,10.6l-18.1,17.7c-6.1-9.4-16.5-15.1-27.8-15.1
		c-6.2-0.4-12.3,1.7-16.9,5.8c-4.3,4.4-6.5,10.5-6.1,16.6v65.2C-749.5-840.6-719.9-835.9-704.3-850.8z M-590.2-850.8
		c1.8-1.8,3.9-3.7,6.2-5.8l16.8,20c-5.7,6.2-12.7,11.3-20.4,14.8c-20.5,8.8-44.2,6-62.1-7.3c-9.9-9.1-15.1-22.3-14.1-35.7V-930
		c-0.1-6.8,1.2-13.6,3.8-19.8c2.4-5.7,6-10.9,10.7-15c14.6-11.5,33.6-15.8,51.8-11.7c8.3,1.4,16.1,5.2,22.3,11
		c3.3,3.2,6.3,6.7,8.8,10.6l-18.1,17.7c-6.1-9.4-16.5-15.1-27.8-15.1c-6.2-0.4-12.3,1.7-16.9,5.8c-4.3,4.4-6.5,10.5-6.1,16.6v65.2
		C-635.4-840.6-605.8-835.9-590.2-850.8z"/> </g> </symbol><symbol viewBox="11.5 179.3 589.1 433.5" id="chromecast-off"><title>chromecast-off</title> <g transform="translate(239 945)"> <path d="M-23.5-332.2h-38.2c0.2-91.4-73.7-165.6-165.1-165.8c-0.2,0-0.4,0-0.7,0v-38.2C-115-535.9-23.9-444.8-23.5-332.2z
		 M-227.5-459.7v38.2c49,0.6,88.7,40.2,89.2,89.2h38.2c0.7-69.7-55.3-126.8-125-127.5C-225.9-459.7-226.7-459.7-227.5-459.7z
		 M-227.5-383.2v51h51C-176.6-360.4-199.4-383.2-227.5-383.2z M346.2-765.7h-535.5c-6.6-0.4-12.3,4.6-12.8,11.3c0,0.5,0,1,0,1.5
		v155.5c17.3,1.9,34.3,5.3,51,10.2v-127.5h459v306H30c4.9,16.7,8.3,33.7,10.2,51h308.6c6.6,0.4,12.3-4.6,12.8-11.3c0-0.5,0-1,0-1.5
		V-753C359.9-760.2,353.6-765.5,346.2-765.7z"/> </g> </symbol><symbol viewBox="-430 1859 519.8 382.5" id="chromecast-on"><title>chromecast-on</title> <g transform="translate(-710 1563)"> <path d="M460,678.5h-33.8c0.2-80.6-65.1-146.1-145.7-146.2c-0.2,0-0.4,0-0.6,0v-33.8C379.3,498.8,459.7,579.2,460,678.5z M280,566
		v33.8c43.3,0.5,78.2,35.5,78.8,78.8h33.8c0.6-61.5-48.8-111.9-110.3-112.5C281.5,566,280.7,566,280,566z M280,633.5v45h45
		C324.9,653.7,304.8,633.6,280,633.5z M786.2,296H313.8c-5.9-0.4-10.9,4.1-11.2,10c0,0.4,0,0.9,0,1.3v137.2c15.2,1.7,30.3,4.7,45,9
		V341h405v270H507.2c4.3,14.7,7.3,29.8,9,45h272.2c5.9,0.4,10.9-4.1,11.2-10c0-0.4,0-0.9,0-1.3V307.2
		C798.4,300.8,792.8,296.2,786.2,296z M392.5,386v85.5c40.3,21.2,73.3,54.2,94.5,94.5h220.5V386H392.5z"/> </g> </symbol><symbol viewBox="149.2 239.2 313.6 313.6" id="close"><title>close</title> <g transform="translate(157 1395)"> <path d="M184.7-999L302-1116.3c4.9-4.7,5.1-12.5,0.4-17.4c-0.1-0.1-0.3-0.3-0.4-0.4l-17.9-17.8c-4.7-4.9-12.5-5.1-17.4-0.4
		c-0.1,0.1-0.3,0.3-0.4,0.4L149-1034.7L31.7-1152c-4.7-4.9-12.5-5.1-17.4-0.4c-0.1,0.1-0.3,0.3-0.4,0.4L-4-1134.2
		c-4.9,4.7-5.1,12.5-0.4,17.4c0.1,0.1,0.3,0.3,0.4,0.4L113.3-999L-4-881.7c-4.9,4.7-5.1,12.5-0.4,17.4c0.1,0.1,0.3,0.3,0.4,0.4
		L13.8-846c4.7,4.9,12.5,5.1,17.4,0.4c0.1-0.1,0.3-0.3,0.4-0.4L149-963.3L266.3-846c4.7,4.9,12.5,5.1,17.4,0.4
		c0.1-0.1,0.3-0.3,0.4-0.4l17.9-17.9c4.9-4.7,5.1-12.5,0.4-17.4c-0.1-0.1-0.3-0.3-0.4-0.4L184.7-999z"/> </g> </symbol><symbol viewBox="92.5 222.2 427 347.7" id="discover"><title>discover</title> <g transform="translate(266 969)"> <path d="M-20.5-666.1l173,93.1l-172.9,93.1V-666 M-65-746.8c-3.9,0-6.5,3-6.5,8.1v331.5c0,5.1,2.6,8.1,6.5,8.1
		c1.7-0.1,3.3-0.5,4.8-1.4l309-166.5c6.2-3.3,6.2-8.8,0-12.1l-309-166.4C-61.7-746.3-63.3-746.8-65-746.8L-65-746.8z M-122.5-420
		H-97v-306h-25.5V-420z M-173.5-445.5h25.5v-255h-25.5V-445.5z"/> </g> </symbol><symbol viewBox="16 267.2 579.9 257.8" id="dvr"><title>dvr</title> <g transform="translate(980 1600)"> <path d="M-416.3-1300.6v193.3h-515.4v-193.3H-416.3 M-392.2-1332.8h-563.7c-4.4,0-8.1,3.6-8.1,8.1v241.6c0,4.4,3.6,8.1,8.1,8.1
		h563.7c4.4,0,8.1-3.6,8.1-8.1v-241.6C-384.1-1329.2-387.7-1332.8-392.2-1332.8z M-711.6-1254.2v82.6h36.5v15.9H-729v-98.6
		L-711.6-1254.2L-711.6-1254.2z M-659.1-1254.2h18v98.6h-18V-1254.2z M-606.2-1254.2l19.3,72.9l19.7-72.9h18.3l-27.5,98.6h-20.9
		l-26.7-98.6H-606.2z M-519.8-1198v26.4h33.6v15.9h-50.9v-98.6h48.5v15.9h-31.2v25.1h26.2v15.2L-519.8-1198L-519.8-1198z
		 M-835.1-1252.3c-26.7,0-48.3,21.6-48.3,48.3s21.6,48.3,48.3,48.3s48.3-21.6,48.3-48.3S-808.4-1252.3-835.1-1252.3z M-802.8-1204
		c0,5.7-1.6,11.4-4.6,16.3l-43.9-43.9c15.2-9.1,34.8-4.2,43.9,11C-804.4-1215.6-802.8-1209.9-802.8-1204z M-867.3-1204
		c0-5.7,1.6-11.4,4.6-16.3l43.9,43.9c-15.2,9.1-34.8,4.2-43.9-11C-865.7-1192.4-867.3-1198.1-867.3-1204z"/> </g> </symbol><symbol viewBox="26.5 192 559.2 408.1" id="email"><title>email</title> <g transform="translate(950 1130)"> <path d="M-375.3-938h-540.6l-7.6,7.7v387.6c-0.4,6.6,4.6,12.3,11.3,12.8c0.5,0,1,0,1.5,0h532.9c6.6,0.4,12.3-4.6,12.8-11.3
		c0-0.5,0-1,0-1.5v-382.5C-362.5-932.9-367.6-938-375.3-938z M-462-887l-181,145.3L-824-887H-462z M-413.5-581h-459v-278L-643-675.4
		L-413.5-859V-581z"/> </g> </symbol><symbol viewBox="0.2 157.6 611.7 476.8" id="embed"><title>embed</title> <g transform="translate(950 1130)"> <path d="M-345.5-727.6l-107.1-109.7l-38.2,38.2l89.2,89.2l-89.2,89.2l35.7,35.7L-348-691.9c10.4-7.2,13-21.5,5.8-31.9
		C-343.2-725.2-344.3-726.5-345.5-727.6L-345.5-727.6z M-835.1-837.3l-107.1,107.1c-9.9,9.4-10.2,25-0.8,34.9
		c0.3,0.3,0.6,0.6,0.8,0.8l107.1,112.2l38.2-38.2l-91.8-89.2l91.8-89.2L-835.1-837.3z M-750.9-513.4l165.8-459l48.5,17.8l-165.8,459
		L-750.9-513.4z"/> </g> </symbol><symbol viewBox="51 141 510 510" id="facebook"><title>facebook</title> <g transform="translate(360 522)"> <path d="M172.9-381H-281c-15.4,0.1-27.9,12.6-28,28v453.9c0.1,15.4,12.6,27.9,28,28.1h244.8V-67.3h-66.3v-76.5h66.3v-58.7
		c-5-51.2,32.4-96.8,83.6-101.8c5.3-0.5,10.6-0.6,15.9-0.2c28.1,0,53.6,2.5,58.6,2.5v68.9H81.1c-33.2,0-38.2,15.3-38.2,38.2v48.4
		h76.5L109.2-70H42.9v199h130c15.4-0.1,27.9-12.6,28.1-28.1V-353C200.9-368.4,188.4-380.9,172.9-381z"/> </g> </symbol><symbol viewBox="102 192 408 408.1" id="fullscreen-not"><title>fullscreen-not</title> <g transform="translate(980 1512)"> <path d="M-701.6-1077.9L-722.9-950c-1.1,6.9-6.1,8.5-11.1,3.6l-36.7-36.7l-71.2,71.2L-878-948l71.2-71.2l-36.7-36.7
		c-4.9-4.9-3.4-10,3.6-11.1l127.9-21.3c4.6-1.2,9.2,1.5,10.5,6C-701.2-1080.9-701.2-1079.4-701.6-1077.9L-701.6-1077.9z
		 M-541.2-1212.7l71.2-71.2l-36.1-36.1l-71.2,71.2l-36.7-36.7c-4.9-4.9-10-3.4-11.1,3.6l-21.3,127.9c-1.2,4.6,1.5,9.3,6.1,10.5
		c1.4,0.4,3,0.4,4.4,0l127.9-21.3c6.9-1.1,8.5-6.1,3.6-11.1L-541.2-1212.7z"/> </g> </symbol><symbol viewBox="103.7 193.8 404.4 404.4" id="fullscreen"><title>fullscreen</title> <g transform="translate(192 1007)"> <path d="M54-441.5c4.9,4.9,3.4,10-3.6,11.1l-127.9,21.3c-4.6,1.2-9.3-1.5-10.5-6.1c-0.4-1.4-0.4-3,0-4.4l21.3-127.9
		c1.1-6.9,6.1-8.5,11.1-3.6l36.7,36.7l71.2-71.2l36.1,36.1l-71.2,71.2L54-441.5z M305.4-812.9l-127.9,21.3
		c-6.9,1.1-8.5,6.1-3.6,11.1l36.7,36.7l-71.2,71.2l36.1,36.1l71.2-71.2l36.7,36.7c4.9,4.9,10,3.4,11.1-3.6l21.3-127.9
		c1.2-4.6-1.5-9.2-6-10.5C308.4-813.3,306.9-813.3,305.4-812.9L305.4-812.9z"/> </g> </symbol><symbol viewBox="52.3 141.5 507.5 509.1" id="google"><title>google</title> <g transform="translate(950 1130)"> <path d="M-394.8-781.7h-244.8v99.5h142.8c-5.6,32.2-24,60.7-51,79c-17.5,10.2-36.4,18-56.1,23c-20.3,2.6-40.9,2.6-61.2,0
		c-21-4.7-40.9-13.4-58.7-25.5c-27.8-19.1-48.5-46.9-58.6-79c-10.2-32.4-10.2-67.1,0-99.5c7.8-23.1,20.9-44.1,38.3-61.2
		c39.6-40.8,98.9-55.6,153-38.2c21.3,6,40.6,17.4,56.1,33.2c15.3-15.3,33.1-30.6,48.5-45.9c9.1-7.8,17.7-16.4,25.5-25.5
		c-24.9-21.7-53.4-39-84.2-51c-56.8-20-118.6-20.9-176-2.5c-64.4,20.9-117.8,66.8-147.9,127.5c-38.2,71.7-38.2,157.8,0,229.5
		c17.3,33,41.7,61.7,71.4,84.1c27.5,22.3,59.8,38,94.4,45.9c43.4,11,88.8,11.9,132.6,2.6c39.7-8.4,76.6-26.8,107.1-53.5
		c31-29.3,53.9-66.2,66.3-107.1C-388.8-691.1-388-736.8-394.8-781.7z"/> </g> </symbol><symbol viewBox="52.5 141 507 510" id="link"><title>link</title> <g transform="translate(950 1130)"> <path d="M-645.1-657.5h51v7.7c0.5,35.3-13.3,69.3-38.2,94.3l-38.2,38.2c-52.6,51-136.1,51-188.7,0c-51-52.6-51-136.1,0-188.7
		l35.7-40.8c25-25,59-38.7,94.4-38.2h7.6v51h-5.1c-22.4-0.8-44,8.5-58.7,25.5l-38.2,38.2c-32.4,31.3-33.2,83-1.9,115.4
		c0.6,0.6,1.3,1.3,1.9,1.9c31.3,32.4,83,33.2,115.4,1.9c0.6-0.6,1.3-1.3,1.9-1.9l38.2-38.2c16-15.4,25.2-36.5,25.5-58.6l0,0v-7.7
		L-645.1-657.5L-645.1-657.5z M-428.4-950.8L-428.4-950.8c-52.6-51-136.1-51-188.7,0l-40.8,38.2c-25,25-38.7,59-38.2,94.3v7.7h51
		v-7.7c-0.8-22.4,8.5-44,25.5-58.7l38.2-38.2c31.3-32.4,83-33.2,115.4-1.9c0.6,0.6,1.3,1.3,1.9,1.9c32.4,31.3,33.2,83,1.9,115.4
		c-0.6,0.6-1.3,1.3-1.9,1.9l-40.8,38.2c-15.4,16-36.5,25.2-58.6,25.5h-5.1v51h5.1c35.3,0.5,69.3-13.3,94.3-38.2l38.2-38.2
		C-377.9-811.8-376.8-897-428.4-950.8z M-708.9-632l165.8-165.8l-38.2-38.2l-165.8,165.8L-708.9-632z"/> </g> </symbol><symbol viewBox="51.1 141 510 509.9" id="linkedIn"><title>linkedIn</title> <g transform="translate(950 1130)"> <path d="M-427.2-989h-433.5c-20.4-0.7-37.5,15.3-38.2,35.7v436c-0.4,20.7,16.1,37.9,36.9,38.2c0.5,0,0.9,0,1.4,0h433.5
		c20.4,0.7,37.5-15.3,38.2-35.7v-438.6C-389.7-973.7-406.8-989.7-427.2-989z M-748.5-555.5h-74v-242.2h76.5v242.2H-748.5z
		 M-786.8-830.9c-23.7,0.2-43.1-18.9-43.4-42.6c0-0.3,0-0.5,0-0.8c0.7-23.6,19.7-42.7,43.4-43.3c23.6,0.7,42.7,19.7,43.3,43.3
		c1.1,22.9-16.6,42.3-39.5,43.3C-784.2-830.8-785.5-830.8-786.8-830.9z M-465.5-555.5H-542v-117.3c0-28.1,0-63.8-38.2-63.8
		s-45.9,30.6-45.9,63.8v117.3h-76.5v-242.2h71.4v33.2l0,0c14.7-25.1,42.3-39.9,71.4-38.2c76.5,0,91.8,51,91.8,114.8v132.6h2.5
		V-555.5z"/> </g> </symbol><symbol viewBox="16 267.2 579.9 257.8" id="live"><title>live</title> <g transform="translate(980 1556)"> <path d="M-392.2-1288.8h-563.7c-4.4,0-8.1,3.6-8.1,8.1v241.6c0,4.4,3.6,8.1,8.1,8.1h563.7c4.4,0,8.1-3.6,8.1-8.1v-241.6
		C-384.1-1285.2-387.7-1288.8-392.2-1288.8z M-835.1-1127.8c-17.8,0-32.2-14.4-32.2-32.2s14.4-32.2,32.2-32.2s32.2,14.4,32.2,32.2
		S-817.3-1127.8-835.1-1127.8z M-675-1111.7h-54v-98.6h17.4v82.6h36.5L-675-1111.7z M-641.1-1111.7h-18v-98.6h18V-1111.7z
		 M-576.5-1111.7h-20.9l-26.7-98.6h18l19.3,72.9l19.6-72.9h18.3L-576.5-1111.7z M-486.1-1111.7h-51v-98.6h48.5v15.9h-31.2v25.1h26.2
		v15.2h-26.2v26.4h33.6L-486.1-1111.7z"/> </g> </symbol><symbol viewBox="140.3 197.3 331.5 397.5" id="next"><title>next</title> <g transform="translate(650 1292)"> <path d="M-229.2-1049v136l-269.9-179.9c-5.8-3.9-10.6-1.3-10.6,5.7v382.5c0,7,4.8,9.6,10.6,5.7l269.9-180v136h51v-306H-229.2z"/> </g> </symbol><symbol viewBox="152.9 191.9 306.1 408.2" id="pause"><title>pause</title> <g transform="translate(887 1622)"> <path d="M-632-1034.8c0.4,6.6-4.6,12.3-11.3,12.8c-0.5,0-1,0-1.5,0h-76.5c-6.6,0.4-12.3-4.6-12.8-11.3c0-0.5,0-1,0-1.5v-382.5
		c-0.4-6.6,4.6-12.3,11.3-12.8c0.5,0,1,0,1.5,0h76.5c6.6-0.4,12.3,4.6,12.8,11.3c0,0.5,0,1,0,1.5V-1034.8z M-428-1417.2
		c0.4-6.6-4.6-12.3-11.3-12.8c-0.5,0-1,0-1.5,0h-76.5c-6.6-0.4-12.3,4.6-12.8,11.3c0,0.5,0,1,0,1.5v382.5
		c-0.4,6.6,4.6,12.3,11.3,12.8c0.5,0,1,0,1.5,0h76.5c6.6,0.4,12.3-4.6,12.8-11.3c0-0.5,0-1,0-1.5V-1417.2z"/> </g> </symbol><symbol viewBox="51 141 510 510.3" id="pinterest"><title>pinterest</title> <g transform="translate(950 1130)"> <path d="M-644-989c-140.7,0.4-254.6,114.3-255,255c0.7,101.4,60.5,193.1,153,234.6c-0.7-19.7,1-39.4,5.1-58.6
		c5.1-20.4,33.2-137.7,33.2-137.7c-5.4-12.9-8-26.8-7.7-40.8c0-38.2,23-66.3,48.5-66.3c23,0,33.2,17.8,33.2,38.2
		c-5,30.4-12.6,60.2-23,89.2c-5.9,20.1,5.6,41.2,25.7,47.2c4.9,1.4,10,1.9,15.1,1.3c48.5,0,81.6-61.2,81.6-135.1
		c0-56.1-38.2-96.9-107.1-96.9c-67-2-122.9,50.7-124.9,117.8c0,1.5-0.1,3.1,0,4.6c-0.4,18.6,5.9,36.7,17.8,51
		c3.8,3.1,4.9,8.4,2.5,12.8c0,5.1-5.1,15.3-5.1,20.4c-2.5,7.7-7.7,7.7-12.8,7.7c-35.7-15.3-51-53.5-51-96.9
		c0-71.4,61.2-158.1,181-158.1c84.1-4.6,156,59.8,160.6,143.9c0,0.5,0.1,1,0.1,1.5c0,99.5-56.1,176-137.7,176
		c-24.3,0.8-47.3-10.7-61.2-30.6c0,0-15.3,58.6-17.8,68.9c-5.4,19.2-14,37.3-25.5,53.6c23.4,5.2,47.4,7.8,71.4,7.6
		c140.8,0,255-114.2,255-255S-503.2-989-644-989z"/> </g> </symbol><symbol viewBox="67 145.5 477.9 501.1" id="play"><title>play</title> <g transform="translate(887 1706)"> <path d="M-808.6-1060.9c-3.1,2.4-7.5,1.8-9.9-1.3c-1.2-1.6-1.7-3.6-1.4-5.5v-484.5c-0.7-3.8,1.9-7.5,5.7-8.2c2-0.3,4,0.2,5.5,1.4
		l461.9,243.1c6.2,3.3,6.2,8.6,0,11.9L-808.6-1060.9z"/> </g> </symbol><symbol viewBox="49.7 139.7 512.6 512.7" id="playback-error"><title>playback-error</title> <g transform="translate(950 1134)"> <path d="M-408.1-706.1L-757.5-520l249.9-249.9l99.4,53.5c2.8,0.8,4.4,3.7,3.6,6.6C-405-708-406.4-706.6-408.1-706.1z M-426-994.3
		l-173.4,173.4l-170.8-89.2c-5.1-2.5-10.2,0-10.2,7.7v265.2l-119.9,119.9l35.7,35.7L-387.7-956L-426-994.3z"/> </g> </symbol><symbol viewBox="76.5 192 459 408" id="playlist"><title>playlist</title> <path d="M522.8,294H89.2c-7,0-12.8,5.7-12.8,12.8v280.5c0,7,5.7,12.8,12.8,12.8h433.5c7,0,12.8-5.7,12.8-12.8V306.8
	C535.5,299.7,529.8,294,522.8,294z M371.6,453.6l-105.6,63.4c-6,3.6-10.9,0.8-10.9-6.2V383.2c0-7,4.9-9.8,10.9-6.2l105.6,63.4
	c3.6,1.4,5.4,5.4,4.1,9C374.9,451.4,373.4,452.8,371.6,453.6z M484.5,268.5h-357V243h357V268.5z M433.5,217.5h-255V192h255V217.5z"/> </symbol><symbol viewBox="0 0 24 24" id="quality-100"><title>quality-100</title> <style type="text/css"> .st0{fill:#FFFFFF;} </style> <path class="st0" d="M5.5,20h-2C3.2,20,3,19.8,3,19.6c0,0,0,0,0-0.1v-3C3,16.2,3.2,16,3.4,16c0,0,0,0,0.1,0h2C5.8,16,6,16.2,6,16.4
	c0,0,0,0,0,0.1v3C6,19.8,5.8,20,5.5,20C5.5,20,5.5,20,5.5,20z M11,19.5v-7c0-0.3-0.2-0.5-0.4-0.5c0,0,0,0-0.1,0h-2
	C8.2,12,8,12.2,8,12.4c0,0,0,0,0,0.1v7C8,19.8,8.2,20,8.4,20c0,0,0,0,0.1,0h2C10.8,20,11,19.8,11,19.5C11,19.5,11,19.5,11,19.5z
	 M16,19.5v-11C16,8.2,15.8,8,15.6,8c0,0,0,0-0.1,0h-2C13.2,8,13,8.2,13,8.4c0,0,0,0,0,0.1v11c0,0.3,0.2,0.5,0.4,0.5c0,0,0,0,0.1,0h2
	C15.8,20,16,19.8,16,19.5C16,19.5,16,19.5,16,19.5z M21,19.5v-15C21,4.2,20.8,4,20.6,4c0,0,0,0-0.1,0h-2C18.2,4,18,4.2,18,4.4
	c0,0,0,0,0,0.1v15c0,0.3,0.2,0.5,0.4,0.5c0,0,0,0,0.1,0h2C20.8,20,21,19.8,21,19.5C21,19.5,21,19.5,21,19.5z"/> </symbol><symbol viewBox="0 0 24 24" id="quality-25"><title>quality-25</title> <style type="text/css"> .st0{opacity:0.2;fill:#FFFFFF;enable-background:new ;} .st1{fill:#FFFFFF;} </style> <path class="st0" d="M10.5,20h-2C8.2,20,8,19.8,8,19.6c0,0,0,0,0-0.1v-7C8,12.2,8.2,12,8.4,12c0,0,0,0,0.1,0h2
	c0.3,0,0.5,0.2,0.5,0.4c0,0,0,0,0,0.1v7C11,19.8,10.8,20,10.5,20C10.5,20,10.5,20,10.5,20z M16,19.5v-11C16,8.2,15.8,8,15.6,8
	c0,0,0,0-0.1,0h-2C13.2,8,13,8.2,13,8.4c0,0,0,0,0,0.1v11c0,0.3,0.2,0.5,0.4,0.5c0,0,0,0,0.1,0h2C15.8,20,16,19.8,16,19.5
	C16,19.5,16,19.5,16,19.5z M21,19.5v-15C21,4.2,20.8,4,20.6,4c0,0,0,0-0.1,0h-2C18.2,4,18,4.2,18,4.4c0,0,0,0,0,0.1v15
	c0,0.3,0.2,0.5,0.4,0.5c0,0,0,0,0.1,0h2C20.8,20,21,19.8,21,19.5C21,19.5,21,19.5,21,19.5z"/> <path class="st1" d="M5.5,20h-2C3.2,20,3,19.8,3,19.6c0,0,0,0,0-0.1v-3C3,16.2,3.2,16,3.4,16c0,0,0,0,0.1,0h2C5.8,16,6,16.2,6,16.4
	c0,0,0,0,0,0.1v3C6,19.8,5.8,20,5.5,20C5.5,20,5.5,20,5.5,20z M11,19.5v-1c0-0.3-0.2-0.5-0.4-0.5c0,0,0,0-0.1,0h-2
	C8.2,18,8,18.2,8,18.4c0,0,0,0,0,0.1v1C8,19.8,8.2,20,8.4,20c0,0,0,0,0.1,0h2C10.8,20,11,19.8,11,19.5C11,19.5,11,19.5,11,19.5z
	 M16,19.5v-1c0-0.3-0.2-0.5-0.4-0.5c0,0,0,0-0.1,0h-2c-0.3,0-0.5,0.2-0.5,0.4c0,0,0,0,0,0.1v1c0,0.3,0.2,0.5,0.4,0.5c0,0,0,0,0.1,0
	h2C15.8,20,16,19.8,16,19.5C16,19.5,16,19.5,16,19.5z M21,19.5v-1c0-0.3-0.2-0.5-0.4-0.5c0,0,0,0-0.1,0h-2c-0.3,0-0.5,0.2-0.5,0.4
	c0,0,0,0,0,0.1v1c0,0.3,0.2,0.5,0.4,0.5c0,0,0,0,0.1,0h2C20.8,20,21,19.8,21,19.5C21,19.5,21,19.5,21,19.5z"/> </symbol><symbol viewBox="0 0 24 24" id="quality-50"><title>quality-50</title> <style type="text/css"> .st0{opacity:0.2;fill:#FFFFFF;enable-background:new ;} .st1{fill:#FFFFFF;} </style> <path class="st0" d="M15.5,20h-2c-0.3,0-0.5-0.2-0.5-0.4c0,0,0,0,0-0.1v-11C13,8.2,13.2,8,13.4,8c0,0,0,0,0.1,0h2
	C15.8,8,16,8.2,16,8.4c0,0,0,0,0,0.1v11C16,19.8,15.8,20,15.5,20C15.5,20,15.5,20,15.5,20z M21,19.5v-15C21,4.2,20.8,4,20.6,4
	c0,0,0,0-0.1,0h-2C18.2,4,18,4.2,18,4.4c0,0,0,0,0,0.1v15c0,0.3,0.2,0.5,0.4,0.5c0,0,0,0,0.1,0h2C20.8,20,21,19.8,21,19.5
	C21,19.5,21,19.5,21,19.5z"/> <path class="st1" d="M5.5,20h-2C3.2,20,3,19.8,3,19.6c0,0,0,0,0-0.1v-3C3,16.2,3.2,16,3.4,16c0,0,0,0,0.1,0h2C5.8,16,6,16.2,6,16.4
	c0,0,0,0,0,0.1v3C6,19.8,5.8,20,5.5,20C5.5,20,5.5,20,5.5,20z M16,19.5v-1c0-0.3-0.2-0.5-0.4-0.5c0,0,0,0-0.1,0h-2
	c-0.3,0-0.5,0.2-0.5,0.4c0,0,0,0,0,0.1v1c0,0.3,0.2,0.5,0.4,0.5c0,0,0,0,0.1,0h2C15.8,20,16,19.8,16,19.5C16,19.5,16,19.5,16,19.5z
	 M21,19.5v-1c0-0.3-0.2-0.5-0.4-0.5c0,0,0,0-0.1,0h-2c-0.3,0-0.5,0.2-0.5,0.4c0,0,0,0,0,0.1v1c0,0.3,0.2,0.5,0.4,0.5c0,0,0,0,0.1,0
	h2C20.8,20,21,19.8,21,19.5C21,19.5,21,19.5,21,19.5z M11,19.5v-7c0-0.3-0.2-0.5-0.4-0.5c0,0,0,0-0.1,0h-2C8.2,12,8,12.2,8,12.4
	c0,0,0,0,0,0.1v7C8,19.8,8.2,20,8.4,20c0,0,0,0,0.1,0h2C10.8,20,11,19.8,11,19.5C11,19.5,11,19.5,11,19.5z"/> </symbol><symbol viewBox="0 0 24 24" id="quality-75"><title>quality-75</title> <style type="text/css"> .st0{opacity:0.2;fill:#FFFFFF;enable-background:new ;} .st1{fill:#FFFFFF;} </style> <path class="st0" d="M20.5,20h-2c-0.3,0-0.5-0.2-0.5-0.4c0,0,0,0,0-0.1v-15C18,4.2,18.2,4,18.4,4c0,0,0,0,0.1,0h2
	C20.8,4,21,4.2,21,4.4c0,0,0,0,0,0.1v15C21,19.8,20.8,20,20.5,20C20.5,20,20.5,20,20.5,20z"/> <path class="st1" d="M5.5,20h-2C3.2,20,3,19.8,3,19.6c0,0,0,0,0-0.1v-3C3,16.2,3.2,16,3.4,16c0,0,0,0,0.1,0h2C5.8,16,6,16.2,6,16.4
	c0,0,0,0,0,0.1v3C6,19.8,5.8,20,5.5,20C5.5,20,5.5,20,5.5,20z M21,19.5v-1c0-0.3-0.2-0.5-0.4-0.5c0,0,0,0-0.1,0h-2
	c-0.3,0-0.5,0.2-0.5,0.4c0,0,0,0,0,0.1v1c0,0.3,0.2,0.5,0.4,0.5c0,0,0,0,0.1,0h2C20.8,20,21,19.8,21,19.5C21,19.5,21,19.5,21,19.5z
	 M11,19.5v-7c0-0.3-0.2-0.5-0.4-0.5c0,0,0,0-0.1,0h-2C8.2,12,8,12.2,8,12.4c0,0,0,0,0,0.1v7C8,19.8,8.2,20,8.4,20c0,0,0,0,0.1,0h2
	C10.8,20,11,19.8,11,19.5C11,19.5,11,19.5,11,19.5z M16,19.5v-11C16,8.2,15.8,8,15.6,8c0,0,0,0-0.1,0h-2C13.2,8,13,8.2,13,8.4
	c0,0,0,0,0,0.1v11c0,0.3,0.2,0.5,0.4,0.5c0,0,0,0,0.1,0h2C15.8,20,16,19.8,16,19.5C16,19.5,16,19.5,16,19.5z"/> </symbol><symbol viewBox="24.2 161.4 563.6 469.3" id="reddit"><title>reddit</title> <g transform="translate(950 1130)"> <path d="M-431.1-802.9c-15.8,0-31.1,5.4-43.4,15.3c-45.7-26.9-97.5-41.8-150.4-43.3l30.6-94.3l79.1,17.8
		c2.5,29.1,26.9,51.3,56.1,51c31,0,56.1-25.1,56.1-56.1s-25.1-56.1-56.1-56.1c-21.3,0-40.9,11.8-51,30.6l-94.4-22.9
		c-7.7-2.1-15.7,2.4-17.8,10.1c0,0,0,0,0,0.1l-33.1,117.3c-56.3,1.3-111.4,16.1-160.7,43.3c-11.7-9.2-25.9-14.5-40.8-15.3
		c-37.3,1.6-67.2,31.5-68.9,68.8c0.7,21.9,11,42.4,28,56.1v15.3c3,50.5,31.9,95.9,76.5,119.8c53,31.8,114.1,47.8,176,45.9
		c61.6,0.3,122.3-15.5,176-45.9c44.6-24,73.5-69.3,76.5-119.9v-15.3c18.6-12.7,30-33.6,30.6-56.1
		C-364.9-773-394.6-801.6-431.1-802.9z M-459.1-935.5c13.3-0.8,24.7,9.3,25.5,22.6c0.1,1,0.1,1.9,0,2.9c0,14.1-11.4,25.5-25.5,25.5
		c-13.3,0.8-24.7-9.3-25.5-22.6c-0.1-1-0.1-1.9,0-2.9C-483.7-923.7-472.8-934.6-459.1-935.5z M-767.7-695.8
		c0-21.1,17.1-38.2,38.2-38.2c21.1,0,38.2,17.1,38.2,38.2c0,21.1-17.1,38.2-38.2,38.2C-750.3-658.1-767.2-674.9-767.7-695.8z
		 M-553.5-583.6c-25.4,21.7-58.6,31.8-91.8,28l0,0c-33,2.5-65.8-7.5-91.8-28c-5.8-5.4-6.1-14.6-0.7-20.4c5.4-5.8,14.6-6.1,20.4-0.7
		c0.2,0.2,0.5,0.4,0.7,0.7c20.3,15.8,45.9,23.1,71.4,20.4l0,0c25.5,1.8,50.7-5.4,71.4-20.4c5.8-5.1,14.6-5.1,20.4,0
		C-545.8-598.9-545.8-591.3-553.5-583.6L-553.5-583.6z M-561.1-657.6c-21.1,0-38.2-17.1-38.2-38.2c0-21.1,17.1-38.2,38.2-38.2
		c21.1,0,38.2,17.1,38.2,38.2C-523.4-674.9-540.2-658.1-561.1-657.6L-561.1-657.6z"/> </g> </symbol><symbol viewBox="102 159.1 408 473.9" id="replay"><title>replay</title> <g transform="translate(986 1863)"> <path d="M-680-1638v-51c0-12.8-10.2-20.4-20.4-10.2l-112.2,71.4c-7.7,3-11.6,11.8-8.5,19.5c1.5,3.9,4.6,7,8.5,8.5l109.6,74
		c12.8,10.2,23,2.5,23-10.2v-51c84.5,0,153,68.5,153,153s-68.5,153-153,153s-153-68.5-153-153h-51c0,112.7,91.3,204,204,204
		s204-91.3,204-204C-476-1546.7-567.3-1638-680-1638z"/> </g> </symbol><symbol viewBox="57.2 184.4 497.6 423.2" id="rewind-10"><title>rewind-10</title> <g transform="translate(912 1447)"> <path d="M-624-990c-9.8-16.7-27.4-27.3-46.7-28c-19.3,0.8-36.9,11.3-46.7,28c-22.8,37.6-22.8,84.8,0,122.4
		c9.8,16.7,27.4,27.3,46.7,28c19.3-0.8,37-11.3,46.7-28C-601.3-905.2-601.3-952.3-624-990L-624-990z M-670.7-865
		c-20.7,0-38.2-29.2-38.2-63.8s17.5-63.8,38.2-63.8s38.2,29.2,38.2,63.8S-650-865-670.7-865z M-785.5-839.5v-135l-12.8,12.8l-18-18
		l34.5-34.5c5-5,13.1-4.9,18,0.1c2.4,2.4,3.7,5.6,3.7,8.9v165.8L-785.5-839.5L-785.5-839.5z M-357.2-1183.8v331.5
		c0,7-5.7,12.8-12.8,12.8h-165.7v-51h127.5v-255h-306v51c0,14-9.5,19.1-21.2,11.3l-110.6-73.7c-7.8-3.9-11-13.4-7.1-21.2
		c1.5-3.1,4-5.5,7.1-7.1l110.6-73.7c11.7-7.8,21.2-2.7,21.2,11.3v51H-370C-362.9-1196.5-357.2-1190.8-357.2-1183.8z"/> </g> </symbol><symbol viewBox="85.5 166.5 441 459.2" id="settings"><title>settings</title> <g transform="translate(202 1500)"> <path d="M318.2-1040.2l-63.7-35.7c2.1-9.2,3-18.6,2.6-28.1c0.4-9.4-0.4-18.9-2.6-28.1l63.7-35.7c5.7-4,7.9-11.4,5.1-17.8
		l-40.8-66.3c-3.1-5.3-9.6-7.5-15.3-5.1l-63.7,35.7c-15.2-10.8-31.5-20.2-48.4-28v-71.4c0.4-6.6-4.6-12.3-11.3-12.8
		c-0.5,0-1,0-1.5,0H65.8c-6.6-0.4-12.3,4.6-12.8,11.3c0,0.5,0,1,0,1.5v71.4c-17,7.8-33.2,17.2-48.4,28l-63.8-35.7
		c-5.7-2.4-12.2-0.2-15.3,5.1l-38.2,66.3c-4.2,5.5-3.2,13.4,2.3,17.7c0.1,0.1,0.2,0.1,0.2,0.2l63.8,35.7c-2.1,9.2-3,18.6-2.5,28.1
		c-0.4,9.4,0.4,18.9,2.5,28.1l-63.8,35.7c-5.7,4-7.9,11.4-5.1,17.8l40.8,66.3c3.1,5.3,9.6,7.5,15.3,5.1l63.8-35.7
		c14.6,11.8,31,21.2,48.4,28.1v71.4c-0.4,6.6,4.6,12.3,11.3,12.8c0.5,0,1,0,1.5,0h76.5c6.6,0.4,12.3-4.6,12.8-11.3c0-0.5,0-1,0-1.5
		v-71.4c17.9-5.8,34.5-15.4,48.4-28.1l63.7,35.7c6.4,3.3,14.2,1.1,17.9-5.1l38.2-66.3C325.3-1028.8,323.3-1035.8,318.2-1040.2z
		 M104-1027.5c-42.2,0-76.5-34.3-76.5-76.5s34.3-76.5,76.5-76.5s76.5,34.3,76.5,76.5c0.8,41.5-32.2,75.7-73.7,76.5
		C105.9-1027.5,104.9-1027.5,104-1027.5z"/> </g> </symbol><symbol viewBox="89.2 141 433.5 510" id="share"><title>share</title> <g transform="translate(886 1713)"> <path d="M-439.8-1215c-17.7,0.5-34.7,6.7-48.5,17.8l-158.1-99.4c2.1-6.6,3-13.5,2.6-20.4c0.4-6.9-0.5-13.8-2.6-20.4l158.1-99.4
		c13.8,11.1,30.8,17.4,48.5,17.8c41.5,0.8,75.7-32.2,76.5-73.7c0-0.9,0-1.9,0-2.8c0-42.2-34.3-76.5-76.5-76.5s-76.5,34.3-76.5,76.5
		c-0.4,6.9,0.5,13.8,2.5,20.4l-158.1,99.4c-13.8-11.1-30.8-17.4-48.4-17.8c-42.2,0-76.5,34.3-76.5,76.5s34.3,76.5,76.5,76.5
		c17.7-0.5,34.7-6.7,48.4-17.8l158.1,99.4c-2.1,6.6-3,13.5-2.6,20.4c0,42.2,34.3,76.5,76.5,76.5s76.5-34.3,76.5-76.5
		S-397.5-1215-439.8-1215z"/> </g> </symbol><symbol viewBox="127.4 217.5 357.1 357.1" id="stop"><title>stop</title> <g transform="translate(887 1890)"> <path d="M-402.5-1328.2c0.4,6.6-4.6,12.3-11.3,12.8c-0.5,0-1,0-1.5,0h-331.5c-6.6,0.4-12.3-4.6-12.8-11.3c0-0.5,0-1,0-1.5v-331.5
		c-0.4-6.6,4.6-12.3,11.3-12.8c0.5,0,1,0,1.5,0h331.5c6.6-0.4,12.3,4.6,12.8,11.3c0,0.5,0,1,0,1.5V-1328.2z"/> </g> </symbol><symbol viewBox="168.4 166.4 275.4 459.3" id="tumblr"><title>tumblr</title> <g transform="translate(950 1130)"> <path d="M-508.9-532.6c-23.4,19.8-53.5,29.9-84.1,28h-2.5c-107.1,0-132.6-79-132.6-125v-130h-43.3c-5.5-0.4-9.8-4.7-10.2-10.2l0,0
		v-58.6c1.2-6.3,4.9-11.8,10.2-15.3c44.4-16,74.7-57.4,76.5-104.5c-1.1-7.4,4.1-14.2,11.5-15.3c1.3-0.2,2.6-0.2,3.8,0h63.8
		c5.5,0.4,9.8,4.7,10.2,10.2v102h74c4.6,0.2,8.7,3.3,10.2,7.6v74c-0.4,5.5-4.7,9.8-10.2,10.2h-74v119.8c-2.7,18.3,10,35.2,28.3,37.9
		c1.6,0.2,3.3,0.4,4.9,0.3c9.5-1,18.8-2.7,28-5.1c3.1-1.8,6.6-2.7,10.2-2.5c2.6,0,5.1,2.5,7.6,7.6l20.4,58.6
		C-508.9-540.2-506.3-537.7-508.9-532.6z"/> </g> </symbol><symbol viewBox="48.4 188 515.1 415.8" id="twitter"><title>twitter</title> <g transform="translate(324 791)"> <path d="M-109.8-187.2C54.7-187,188.3-320.1,188.5-484.7c0-0.3,0-0.6,0-0.9v-12.8c20.1-14.6,37.4-32.7,51-53.6
		c-19.5,8.1-40.2,13.2-61.2,15.3c21.9-13.4,38.1-34.2,45.9-58.7c-20.5,12.2-42.9,20.8-66.3,25.5c-19.6-21.5-47.4-33.5-76.5-33.1
		c-57.1-0.6-103.9,45.1-104.6,102.2c0,0.8,0,1.5,0,2.3c-0.4,7.7,0.4,15.5,2.6,22.9c-83.7-2.3-162.1-41.5-214.2-107.1
		c-10.4,15.9-15.7,34.6-15.3,53.5c-0.3,34.8,16.9,67.4,45.9,86.7c-16.9-0.3-33.6-4.7-48.4-12.8v2.6c0,49.8,35.3,92.5,84.1,102
		c-9.2,2.2-18.6,3.1-28.1,2.6c-6.9,0.4-13.8-0.5-20.4-2.6c13.3,42.4,52.5,71.3,96.9,71.4c-37,29.3-82.8,45.5-130,45.9
		c-8.6,0.4-17.2-0.4-25.5-2.6C-225.8-204.6-168.4-187.9-109.8-187.2"/> </g> </symbol><symbol viewBox="67.5 197.9 477 396.2" id="volume-0"><title>volume-0</title> <g transform="translate(887 1890)"> <path d="M-590-1685.2v382.5c0,7-4.3,9-9.5,4.3l-133.9-119h-73.3c-7,0-12.8-5.7-12.8-12.8v-127.5c0-7,5.7-12.8,12.8-12.8h73.3
		l133.9-119C-594.3-1694.2-590-1692.3-590-1685.2z M-342.5-1552.5l-36.1-36.1l-58.5,58.5l-58.5-58.5l-36.1,36.1l58.5,58.5
		l-58.5,58.5l36.1,36.1l58.5-58.5l58.5,58.5l36.1-36.1L-401-1494L-342.5-1552.5z"/> </g> </symbol><symbol viewBox="63.7 192 484.5 408" id="volume-100"><title>volume-100</title> <g transform="translate(887 1936)"> <path d="M-593.8-1731.2v382.5c0,7-4.3,9-9.5,4.3l-133.9-119h-73.3c-7,0-12.8-5.7-12.8-12.8v-127.5c0-7,5.7-12.8,12.8-12.8h73.3
		l133.9-119C-598-1740.2-593.8-1738.3-593.8-1731.2z M-338.8-1540c-0.1-112.6-91.4-203.9-204-204v51c84.5,0,153,68.5,153,153
		s-68.5,153-153,153v51C-430.1-1336.1-338.9-1427.4-338.8-1540z M-542.8-1438v-51c28.2,0,51-22.8,51-51s-22.8-51-51-51v-51
		c56.3,0,102,45.7,102,102S-486.4-1438-542.8-1438z"/> </g> </symbol><symbol viewBox="114.7 197.9 382.5 396.2" id="volume-50"><title>volume-50</title> <g transform="translate(950 1130)"> <path d="M-605.8-925.2v382.5c0,7-4.3,9-9.5,4.3l-133.9-119h-73.3c-7,0-12.8-5.7-12.8-12.8v-127.5c0-7,5.7-12.8,12.8-12.8h73.3
		l133.9-119C-610-934.2-605.8-932.3-605.8-925.2z M-452.8-734c0-56.3-45.7-102-102-102v51c28.2,0,51,22.8,51,51s-22.8,51-51,51v51
		C-498.4-632-452.8-677.7-452.8-734z"/> </g> </symbol></svg>