<svg id="ds-sprites--icons-logos"><symbol viewBox="0 0 104 36.96" id="ds-icon-jw-logo-full"><path d="M36.59,22.09a3.21,3.21,0,0,0,1.91.69c1,0,1.38-.57,1.38-2V14.68h2.06v6.39c0,2.49-1.17,3.58-3.26,3.58a4.24,4.24,0,0,1-2.09-.56Z" fill="#fff"/><polygon points="50.27 14.68 51.96 21.28 53.57 14.68 55.59 14.68 53.03 24.49 51.16 24.49 49.44 18.02 47.71 24.49 45.84 24.49 43.29 14.68 45.35 14.68 46.95 21.28 48.67 14.68 50.27 14.68" fill="#fff"/><path d="M58.4,20.56v3.93H57.14V14.68h3.63c2,0,3.27,1,3.27,2.94s-1.29,2.94-3.27,2.94Zm2.35-4.77H58.4v3.65h2.35c1.33,0,2-.72,2-1.82s-.72-1.83-2-1.83" fill="#fff"/><polygon points="65.83 14.68 67.09 14.68 67.09 23.36 72.09 23.36 72.09 24.49 65.83 24.49 65.83 14.68" fill="#fff"/><path d="M76.32,14.68l3.84,9.81H78.88l-1.13-3h-4l-1.12,3H71.31l3.83-9.81Zm-2.2,5.75h3.19l-1.59-4.18Z" fill="#fff"/><polygon points="86.37 14.68 87.71 14.68 84.13 20.45 84.13 24.49 82.89 24.49 82.89 20.45 79.34 14.68 80.72 14.68 83.54 19.32 86.37 14.68" fill="#fff"/><polygon points="94.98 14.68 94.98 15.8 89.98 15.8 89.98 18.9 94.51 18.9 94.51 20.02 89.98 20.02 89.98 23.36 94.98 23.36 94.98 24.49 88.73 24.49 88.73 14.68 94.98 14.68" fill="#fff"/><path d="M98,20.34v4.15H96.75V14.68h3.59c2,0,3.26,1,3.26,2.85a2.61,2.61,0,0,1-2.51,2.76l2.91,4.2h-1.44l-2.81-4.15Zm0-1.07h2.3c1.29,0,2-.66,2-1.74s-.76-1.74-2-1.74H98Z" fill="#fff"/><path d="M3.21,19c-.09.3-.23.29-.31,0l-.14-.53s-.2-.76-.54-1.66a2.58,2.58,0,0,0-.41-.83,1,1,0,0,0-1.12-.28,1,1,0,0,0-.68.85,3.8,3.8,0,0,0,.09,1,36.23,36.23,0,0,0,1.3,5.8,1.69,1.69,0,0,0,2.29.84,4.28,4.28,0,0,0,1.55-2.27C5.66,20.85,7.8,15,7.8,15c.21-.58.37-.55.36.07,0,0-.11,5.76-.12,8.4a16.22,16.22,0,0,0,.34,3.68,3.06,3.06,0,0,0,1,1.61,2.46,2.46,0,0,0,1.79.49,2.8,2.8,0,0,0,.89-.29,3.48,3.48,0,0,0,1-.9,16.21,16.21,0,0,0,1.58-2.66c1-2,3.69-8.31,3.69-8.31.24-.57.43-.53.41.09,0,0-.33,10.56-.34,14.59A8,8,0,0,0,19,34.67a3.6,3.6,0,0,0,1.83,2,3.17,3.17,0,0,0,2.89-.16,4.66,4.66,0,0,0,1.61-1.66A17.94,17.94,0,0,0,26.69,32c.8-2.08,1.47-4.21,2.12-6.33s6.31-22.28,6.66-24A1.69,1.69,0,0,0,35.52,1a1.19,1.19,0,0,0-.66-.93,1.26,1.26,0,0,0-1.66.6c-.31.62-8,19.32-8,19.32-.23.58-.43.54-.42-.08,0,0,0-6.5,0-11.88,0-2.92-1.42-4.55-3.43-4.88a3.81,3.81,0,0,0-2.67.59A6,6,0,0,0,16.79,6c-.62,1.19-4.38,12.22-4.38,12.22-.2.59-.37.56-.39-.06,0,0-.11-4.75-.22-5.87C11.64,10.6,11.25,7.77,9,7.64s-3,2.43-3.55,4c-.36,1.05-2.1,6.77-2.1,6.77Z" fill="#fff"/></symbol><symbol viewBox="0 0 24 25.05" id="ds-icon-jw-logo-mark"><path d="M6.06,16.9c-.07.23-.15.23-.22,0l-.08-.38s-.15-.53-.38-1.13a1.78,1.78,0,0,0-.3-.53.58.58,0,0,0-.75-.15.65.65,0,0,0-.46.6A2,2,0,0,0,4,16a21.58,21.58,0,0,0,.91,3.93,1.12,1.12,0,0,0,1.58.53A3.07,3.07,0,0,0,7.5,18.94c.23-.76,1.66-4.76,1.66-4.76.16-.38.23-.38.23.07,0,0-.07,3.93-.07,5.75a13.34,13.34,0,0,0,.22,2.49,2.82,2.82,0,0,0,.68,1.14,1.42,1.42,0,0,0,1.21.3A1,1,0,0,0,12,23.7a1.75,1.75,0,0,0,.68-.6,9.2,9.2,0,0,0,1.06-1.82c.68-1.36,2.49-5.67,2.49-5.67.15-.37.3-.37.3.08,0,0-.22,7.18-.22,9.9a5.84,5.84,0,0,0,.37,2,2.47,2.47,0,0,0,1.21,1.36,2.27,2.27,0,0,0,2-.07A3.2,3.2,0,0,0,21,27.71a9.2,9.2,0,0,0,.91-2c.53-1.44,1-2.88,1.43-4.31S27.61,6.32,27.84,5.11c0-.16.07-.31,0-.38a.67.67,0,0,0-.46-.61.93.93,0,0,0-1.13.38C26.25,5,21,17.66,21,17.66c-.15.37-.3.37-.3-.08V9.49c0-2-1-3.1-2.35-3.33a3,3,0,0,0-1.81.38,4.3,4.3,0,0,0-1.29,1.51c-.45.84-3,8.32-3,8.32-.15.38-.23.38-.3-.08,0,0-.08-3.25-.15-4,0-1.06-.23-2.95-1.74-3S8,10.85,7.58,12c-.23.68-1.44,4.61-1.44,4.61Z" transform="translate(-3.87 -4.06)" fill="#fff"/></symbol></svg>