<svg xmlns="http://www.w3.org/2000/svg" viewBox="0 0 24 25.05"><path d="M6.06,16.9c-.07.23-.15.23-.22,0l-.08-.38s-.15-.53-.38-1.13a1.78,1.78,0,0,0-.3-.53.58.58,0,0,0-.75-.15.65.65,0,0,0-.46.6A2,2,0,0,0,4,16a21.58,21.58,0,0,0,.91,3.93,1.12,1.12,0,0,0,1.58.53A3.07,3.07,0,0,0,7.5,18.94c.23-.76,1.66-4.76,1.66-4.76.16-.38.23-.38.23.07,0,0-.07,3.93-.07,5.75a13.34,13.34,0,0,0,.22,2.49,2.82,2.82,0,0,0,.68,1.14,1.42,1.42,0,0,0,1.21.3A1,1,0,0,0,12,23.7a1.75,1.75,0,0,0,.68-.6,9.2,9.2,0,0,0,1.06-1.82c.68-1.36,2.49-5.67,2.49-5.67.15-.37.3-.37.3.08,0,0-.22,7.18-.22,9.9a5.84,5.84,0,0,0,.37,2,2.47,2.47,0,0,0,1.21,1.36,2.27,2.27,0,0,0,2-.07A3.2,3.2,0,0,0,21,27.71a9.2,9.2,0,0,0,.91-2c.53-1.44,1-2.88,1.43-4.31S27.61,6.32,27.84,5.11c0-.16.07-.31,0-.38a.67.67,0,0,0-.46-.61.93.93,0,0,0-1.13.38C26.25,5,21,17.66,21,17.66c-.15.37-.3.37-.3-.08V9.49c0-2-1-3.1-2.35-3.33a3,3,0,0,0-1.81.38,4.3,4.3,0,0,0-1.29,1.51c-.45.84-3,8.32-3,8.32-.15.38-.23.38-.3-.08,0,0-.08-3.25-.15-4,0-1.06-.23-2.95-1.74-3S8,10.85,7.58,12c-.23.68-1.44,4.61-1.44,4.61Z" transform="translate(-3.87 -4.06)" /></svg>
