<?xml version="1.0" encoding="utf-8"?>
<!-- Generator: Adobe Illustrator 18.1.1, SVG Export Plug-In . SVG Version: 6.00 Build 0)  -->
<svg version="1.1" id="Layer_1" xmlns="http://www.w3.org/2000/svg" xmlns:xlink="http://www.w3.org/1999/xlink" x="0px" y="0px"
	 width="510px" height="510px" viewBox="51 141 510 510" enable-background="new 51 141 510 510" xml:space="preserve">
<g transform="translate(360 522)">
	<path d="M172.9-381H-281c-15.4,0.1-27.9,12.6-28,28v453.9c0.1,15.4,12.6,27.9,28,28.1h244.8V-67.3h-66.3v-76.5h66.3v-58.7
		c-5-51.2,32.4-96.8,83.6-101.8c5.3-0.5,10.6-0.6,15.9-0.2c28.1,0,53.6,2.5,58.6,2.5v68.9H81.1c-33.2,0-38.2,15.3-38.2,38.2v48.4
		h76.5L109.2-70H42.9v199h130c15.4-0.1,27.9-12.6,28.1-28.1V-353C200.9-368.4,188.4-380.9,172.9-381z"/>
</g>
</svg>
