<?xml version="1.0" encoding="utf-8"?>
<!-- Generator: Adobe Illustrator 18.1.1, SVG Export Plug-In . SVG Version: 6.00 Build 0)  -->
<svg version="1.1" id="Layer_1" xmlns="http://www.w3.org/2000/svg" xmlns:xlink="http://www.w3.org/1999/xlink" x="0px" y="0px"
	 width="579.9px" height="257.8px" viewBox="16 267.2 579.9 257.8" enable-background="new 16 267.2 579.9 257.8"
	 xml:space="preserve">
<g transform="translate(980 1556)">
	<path d="M-392.2-1288.8h-563.7c-4.4,0-8.1,3.6-8.1,8.1v241.6c0,4.4,3.6,8.1,8.1,8.1h563.7c4.4,0,8.1-3.6,8.1-8.1v-241.6
		C-384.1-1285.2-387.7-1288.8-392.2-1288.8z M-835.1-1127.8c-17.8,0-32.2-14.4-32.2-32.2s14.4-32.2,32.2-32.2s32.2,14.4,32.2,32.2
		S-817.3-1127.8-835.1-1127.8z M-675-1111.7h-54v-98.6h17.4v82.6h36.5L-675-1111.7z M-641.1-1111.7h-18v-98.6h18V-1111.7z
		 M-576.5-1111.7h-20.9l-26.7-98.6h18l19.3,72.9l19.6-72.9h18.3L-576.5-1111.7z M-486.1-1111.7h-51v-98.6h48.5v15.9h-31.2v25.1h26.2
		v15.2h-26.2v26.4h33.6L-486.1-1111.7z"/>
</g>
</svg>
