<?xml version="1.0" encoding="utf-8"?>
<!-- Generator: Adobe Illustrator 18.1.1, SVG Export Plug-In . SVG Version: 6.00 Build 0)  -->
<svg version="1.1" id="Layer_1" xmlns="http://www.w3.org/2000/svg" xmlns:xlink="http://www.w3.org/1999/xlink" x="0px" y="0px"
	 width="306.1px" height="408.2px" viewBox="152.9 191.9 306.1 408.2" enable-background="new 152.9 191.9 306.1 408.2"
	 xml:space="preserve">
<g transform="translate(887 1622)">
	<path d="M-632-1034.8c0.4,6.6-4.6,12.3-11.3,12.8c-0.5,0-1,0-1.5,0h-76.5c-6.6,0.4-12.3-4.6-12.8-11.3c0-0.5,0-1,0-1.5v-382.5
		c-0.4-6.6,4.6-12.3,11.3-12.8c0.5,0,1,0,1.5,0h76.5c6.6-0.4,12.3,4.6,12.8,11.3c0,0.5,0,1,0,1.5V-1034.8z M-428-1417.2
		c0.4-6.6-4.6-12.3-11.3-12.8c-0.5,0-1,0-1.5,0h-76.5c-6.6-0.4-12.3,4.6-12.8,11.3c0,0.5,0,1,0,1.5v382.5
		c-0.4,6.6,4.6,12.3,11.3,12.8c0.5,0,1,0,1.5,0h76.5c6.6,0.4,12.3-4.6,12.8-11.3c0-0.5,0-1,0-1.5V-1417.2z"/>
</g>
</svg>
