<?xml version="1.0" encoding="utf-8"?>
<!-- Generator: Adobe Illustrator 18.1.1, SVG Export Plug-In . SVG Version: 6.00 Build 0)  -->
<svg version="1.1" id="Layer_1" xmlns="http://www.w3.org/2000/svg" xmlns:xlink="http://www.w3.org/1999/xlink" x="0px" y="0px"
	 width="484.5px" height="408px" viewBox="63.7 192 484.5 408" enable-background="new 63.7 192 484.5 408" xml:space="preserve">
<g transform="translate(887 1936)">
	<path d="M-593.8-1731.2v382.5c0,7-4.3,9-9.5,4.3l-133.9-119h-73.3c-7,0-12.8-5.7-12.8-12.8v-127.5c0-7,5.7-12.8,12.8-12.8h73.3
		l133.9-119C-598-1740.2-593.8-1738.3-593.8-1731.2z M-338.8-1540c-0.1-112.6-91.4-203.9-204-204v51c84.5,0,153,68.5,153,153
		s-68.5,153-153,153v51C-430.1-1336.1-338.9-1427.4-338.8-1540z M-542.8-1438v-51c28.2,0,51-22.8,51-51s-22.8-51-51-51v-51
		c56.3,0,102,45.7,102,102S-486.4-1438-542.8-1438z"/>
</g>
</svg>
