<svg xmlns="http://www.w3.org/2000/svg" viewBox="0 0 24 24"><path d="M20.19,14a7.73,7.73,0,0,0,0-3.9l1.52-.83A.64.64,0,0,0,22,8.44L20.1,5.56a.57.57,0,0,0-.7-.23l-1.53.83a8.35,8.35,0,0,0-3.56-2V2.56A.53.53,0,0,0,13.8,2H10.27a.53.53,0,0,0-.58.49V4.17a8.35,8.35,0,0,0-3.56,2L4.6,5.33a.57.57,0,0,0-.7.23L2.17,8.44a.53.53,0,0,0,.1.77h0l1.52.83a7.73,7.73,0,0,0,0,3.9l-1.52.83a.63.63,0,0,0-.24.77L3.9,18.44a.57.57,0,0,0,.7.23l1.53-.83a8.35,8.35,0,0,0,3.56,2v1.61a.53.53,0,0,0,.51.56h3.53a.53.53,0,0,0,.58-.49V19.83a8.35,8.35,0,0,0,3.56-2l1.53.83a.63.63,0,0,0,.81-.23L22,15.55a.71.71,0,0,0-.24-.77Zm-4.72-2a3.33,3.33,0,0,1-3.34,3.33H12A3.41,3.41,0,0,1,8.53,12,3.39,3.39,0,0,1,12,8.66,3.39,3.39,0,0,1,15.47,12Z"/></svg>