<svg xmlns="http://www.w3.org/2000/svg"><symbol viewBox="25.5 179.2 561.1 433.6" id="ds-asset-icon-player-airplay-off"><path d="M535.5 230.3v255H408l51 51h114.8c6.6.4 12.3-4.6 12.8-11.3V192c.4-6.6-4.6-12.3-11.3-12.8h-537c-6.6-.4-12.3 4.6-12.8 11.3v333c-.4 6.6 4.6 12.3 11.3 12.8H153l51-51H76.5v-255h459M153 612.8l153-178.5 153 178.5H153z"/></symbol><symbol viewBox="-407.5 1639 495 382.5" id="ds-asset-icon-player-airplay-on"><path d="M87.5 1650.2v292.5c.4 5.9-4.1 10.9-10 11.2H-22.8l-38.2-45H42.5v-225h-405v225h105.8l-38.2 45h-101.2c-5.9.4-10.9-4.1-11.2-10v-293.8c-.4-5.9 4.1-10.9 10-11.2H76.2c5.9-.4 10.9 4.1 11.2 10 .1.5.1.9.1 1.3zm-281.3 184.6l33.8-40.5 33.8 40.5 24.8 29.2h99v-135h-315v135h99l24.6-29.2zM-25 2021.5L-160 1864l-135 157.5h270z"/></symbol><symbol viewBox="-172.8 353.6 313.6 313.6" id="ds-asset-icon-player-arrow-left"><path d="M-101.8 491c-1.5 1.4-2.9 3-4.1 4.7-9 12.9-5.7 30.7 7.2 39.7l133.3 133L79 624-32 513 79 402l-47.5-47.5L-101.8 491z"/></symbol><symbol viewBox="-172.8 353.6 313.6 313.6" id="ds-asset-icon-player-arrow-right"><path d="M69.8 491L-63.4 354.5-111 402 0 513l-111 111 44.4 44.4 133.3-133c12.9-9 16.2-26.7 7.2-39.7-1.2-1.7-2.6-3.4-4.1-4.7z"/></symbol><symbol viewBox="0 0 433.6 433.6" id="ds-asset-icon-player-audio-tracks"><path d="M0 0h408v51H0V0zm0 153h408v-51H0v51zm0 102h153v-51H0v51zm318.8-51C259 200.6 207.7 246.2 204 306v127.5h51c13.3.8 24.7-9.3 25.5-22.6.1-1 .1-1.9 0-2.9v-51c.8-13.3-9.3-24.7-22.6-25.5-1-.1-1.9-.1-2.9 0h-25.5V306c3.7-45.7 43.5-79.9 89.2-76.5 45.7-3.4 85.6 30.8 89.2 76.5v25.5h-25.3c-13.3-.8-24.7 9.3-25.5 22.6-.1 1-.1 1.9 0 2.9v51c-.8 13.3 9.3 24.7 22.6 25.5 1 .1 1.9.1 2.9 0h51V306c-3.7-59.7-55-105.3-114.8-102z"/></symbol><symbol viewBox="0 90 612 612" id="ds-asset-icon-player-buffer"><path d="M306 651C165.2 651 51 536.8 51 396s114.2-255 255-255V90C137 90 0 227 0 396s137 306 306 306 306-137 306-306h-51c-.4 140.7-114.3 254.6-255 255z"/><path d="M306 217.5c-98-.6-177.9 78.3-178.5 176.3v2.2h51c0-70.4 57.1-127.5 127.5-127.5S433.5 325.6 433.5 396 376.4 523.5 306 523.5v51c98.6 0 178.5-79.9 178.5-178.5S404.6 217.5 306 217.5z"/></symbol><symbol viewBox="50.9 192 510.1 408.1" id="ds-asset-icon-player-captions-off"><path d="M253.4 339.4c-6.2-.4-12.3 1.7-16.9 5.8-4.3 4.4-6.5 10.5-6.1 16.6V427c0 24.4 29.7 29 45.2 14.1 1.8-1.8 3.9-3.7 6.2-5.8l16.8 20c-5.7 6.2-12.7 11.3-20.4 14.8-20.5 8.8-44.2 6-62.1-7.3-9.9-9.1-15.1-22.3-14.1-35.7v-65.2c-.1-6.8 1.2-13.6 3.8-19.8 2.4-5.7 6-10.9 10.7-15 14.6-11.5 33.6-15.8 51.8-11.7 8.3 1.4 16.1 5.2 22.3 11 3.3 3.2 6.3 6.7 8.8 10.6l-18.1 17.7c-6.2-9.6-16.6-15.3-27.9-15.3zm114.1 0c-6.2-.4-12.3 1.7-16.9 5.8-4.3 4.4-6.5 10.5-6.1 16.6V427c0 24.4 29.7 29 45.2 14.1 1.8-1.8 3.9-3.7 6.2-5.8l16.8 20c-5.7 6.2-12.7 11.3-20.4 14.8-20.5 8.8-44.2 6-62.1-7.3-9.9-9.1-15.1-22.3-14.1-35.7v-65.2c-.1-6.8 1.2-13.6 3.8-19.8 2.4-5.7 6-10.9 10.7-15 14.6-11.5 33.6-15.8 51.8-11.7 8.3 1.4 16.1 5.2 22.3 11 3.3 3.2 6.3 6.7 8.8 10.6l-18.1 17.7c-6.2-9.6-16.7-15.3-27.9-15.3zM510 243v306H102V243h408m38.2-51H63.7c-7 0-12.8 5.7-12.8 12.8v382.5c0 7 5.7 12.8 12.8 12.8h484.5c7 0 12.8-5.7 12.8-12.8V204.8c0-7.1-5.7-12.8-12.8-12.8z"/></symbol><symbol viewBox="50.9 192 510.1 408.1" id="ds-asset-icon-player-captions-on"><path d="M548.2 192H63.7c-7 0-12.8 5.7-12.8 12.8v382.5c0 7 5.7 12.8 12.8 12.8h484.5c7 0 12.8-5.7 12.8-12.8V204.8c0-7.1-5.7-12.8-12.8-12.8zM275.7 441.2c1.8-1.8 3.9-3.7 6.2-5.8l16.8 20c-5.7 6.2-12.7 11.3-20.4 14.8-20.5 8.8-44.2 6-62.1-7.3-9.9-9.1-15.1-22.3-14.1-35.7V362c-.1-6.8 1.2-13.6 3.8-19.8 2.4-5.7 6-10.9 10.7-15 14.6-11.5 33.6-15.8 51.8-11.7 8.3 1.4 16.1 5.2 22.3 11 3.3 3.2 6.3 6.7 8.8 10.6l-18.1 17.7a33.07 33.07 0 0 0-27.8-15.1c-6.2-.4-12.3 1.7-16.9 5.8-4.3 4.4-6.5 10.5-6.1 16.6v65.2c-.1 24.1 29.5 28.8 45.1 13.9zm114.1 0c1.8-1.8 3.9-3.7 6.2-5.8l16.8 20c-5.7 6.2-12.7 11.3-20.4 14.8-20.5 8.8-44.2 6-62.1-7.3-9.9-9.1-15.1-22.3-14.1-35.7V362c-.1-6.8 1.2-13.6 3.8-19.8 2.4-5.7 6-10.9 10.7-15 14.6-11.5 33.6-15.8 51.8-11.7 8.3 1.4 16.1 5.2 22.3 11 3.3 3.2 6.3 6.7 8.8 10.6l-18.1 17.7a33.07 33.07 0 0 0-27.8-15.1c-6.2-.4-12.3 1.7-16.9 5.8-4.3 4.4-6.5 10.5-6.1 16.6v65.2c-.1 24.1 29.5 28.8 45.1 13.9z"/></symbol><symbol viewBox="11.5 179.3 589.1 433.5" id="ds-asset-icon-player-chromecast-off"><path d="M215.5 612.8h-38.2c.2-91.4-73.7-165.6-165.1-165.8h-.7v-38.2c112.5.3 203.6 91.4 204 204zm-204-127.5v38.2c49 .6 88.7 40.2 89.2 89.2h38.2c.7-69.7-55.3-126.8-125-127.5-.8.1-1.6.1-2.4.1zm0 76.5v51h51c-.1-28.2-22.9-51-51-51zm573.7-382.5H49.7c-6.6-.4-12.3 4.6-12.8 11.3v157c17.3 1.9 34.3 5.3 51 10.2V230.3h459v306H269c4.9 16.7 8.3 33.7 10.2 51h308.6c6.6.4 12.3-4.6 12.8-11.3V192c-1.7-7.2-8-12.5-15.4-12.7z"/></symbol><symbol viewBox="-430 1859 519.8 382.5" id="ds-asset-icon-player-chromecast-on"><path d="M-250 2241.5h-33.8c.2-80.6-65.1-146.1-145.7-146.2h-.6v-33.8c99.4.3 179.8 80.7 180.1 180zM-430 2129v33.8c43.3.5 78.2 35.5 78.8 78.8h33.8c.6-61.5-48.8-111.9-110.3-112.5-.8-.1-1.6-.1-2.3-.1zm0 67.5v45h45c-.1-24.8-20.2-44.9-45-45zM76.2 1859h-472.4c-5.9-.4-10.9 4.1-11.2 10v138.5c15.2 1.7 30.3 4.7 45 9V1904h405v270h-245.4c4.3 14.7 7.3 29.8 9 45H78.4c5.9.4 10.9-4.1 11.2-10v-338.8c-1.2-6.4-6.8-11-13.4-11.2zm-393.7 90v85.5c40.3 21.2 73.3 54.2 94.5 94.5H-2.5v-180h-315z"/></symbol><symbol viewBox="149.2 239.2 313.6 313.6" id="ds-asset-icon-player-close"><path d="M341.7 396L459 278.7c4.9-4.7 5.1-12.5.4-17.4l-.4-.4-17.9-17.8c-4.7-4.9-12.5-5.1-17.4-.4l-.4.4L306 360.3 188.7 243c-4.7-4.9-12.5-5.1-17.4-.4l-.4.4-17.9 17.8c-4.9 4.7-5.1 12.5-.4 17.4l.4.4L270.3 396 153 513.3c-4.9 4.7-5.1 12.5-.4 17.4l.4.4 17.8 17.9c4.7 4.9 12.5 5.1 17.4.4l.4-.4L306 431.7 423.3 549c4.7 4.9 12.5 5.1 17.4.4l.4-.4 17.9-17.9c4.9-4.7 5.1-12.5.4-17.4l-.4-.4L341.7 396z"/></symbol><symbol viewBox="92.5 222.2 427 347.7" id="ds-asset-icon-player-discover"><path d="M245.5 302.9l173 93.1-172.9 93.1V303M201 222.2c-3.9 0-6.5 3-6.5 8.1v331.5c0 5.1 2.6 8.1 6.5 8.1 1.7-.1 3.3-.5 4.8-1.4l309-166.5c6.2-3.3 6.2-8.8 0-12.1l-309-166.4c-1.5-.8-3.1-1.3-4.8-1.3zM143.5 549H169V243h-25.5v306zm-51-25.5H118v-255H92.5v255z"/></symbol><symbol viewBox="16 267.2 579.9 257.8" id="ds-asset-icon-player-dvr"><path d="M563.7 299.4v193.3H48.3V299.4h515.4m24.1-32.2H24.1c-4.4 0-8.1 3.6-8.1 8.1v241.6c0 4.4 3.6 8.1 8.1 8.1h563.7c4.4 0 8.1-3.6 8.1-8.1V275.3c0-4.5-3.6-8.1-8.1-8.1zm-319.4 78.6v82.6h36.5v15.9H251v-98.6l17.4.1zm52.5 0h18v98.6h-18v-98.6zm52.9 0l19.3 72.9 19.7-72.9h18.3l-27.5 98.6h-20.9L356 345.8h17.8zm86.4 56.2v26.4h33.6v15.9h-50.9v-98.6h48.5v15.9h-31.2v25.1h26.2v15.2l-26.2.1zm-315.3-54.3c-26.7 0-48.3 21.6-48.3 48.3s21.6 48.3 48.3 48.3 48.3-21.6 48.3-48.3-21.6-48.3-48.3-48.3zm32.3 48.3c0 5.7-1.6 11.4-4.6 16.3l-43.9-43.9c15.2-9.1 34.8-4.2 43.9 11 3 5 4.6 10.7 4.6 16.6zm-64.5 0c0-5.7 1.6-11.4 4.6-16.3l43.9 43.9c-15.2 9.1-34.8 4.2-43.9-11-3-5-4.6-10.7-4.6-16.6z"/></symbol><symbol viewBox="26.5 192 559.2 408.1" id="ds-asset-icon-player-email"><path d="M574.7 192H34.1l-7.6 7.7v387.6c-.4 6.6 4.6 12.3 11.3 12.8h534.4c6.6.4 12.3-4.6 12.8-11.3v-384c2.5-7.7-2.6-12.8-10.3-12.8zM488 243L307 388.3 126 243h362zm48.5 306h-459V271L307 454.6 536.5 271v278z"/></symbol><symbol viewBox="0.2 157.6 611.7 476.8" id="ds-asset-icon-player-embed"><path d="M604.5 402.4L497.4 292.7l-38.2 38.2 89.2 89.2-89.2 89.2 35.7 35.7L602 438.1c10.4-7.2 13-21.5 5.8-31.9-1-1.4-2.1-2.7-3.3-3.8zM114.9 292.7L7.8 399.8c-9.9 9.4-10.2 25-.8 34.9l.8.8 107.1 112.2 38.2-38.2-91.8-89.2 91.8-89.2-38.2-38.4zm84.2 323.9l165.8-459 48.5 17.8-165.8 459-48.5-17.8z"/></symbol><symbol viewBox="51 141 510 510" id="ds-asset-icon-player-facebook"><path d="M532.9 141H79c-15.4.1-27.9 12.6-28 28v453.9c.1 15.4 12.6 27.9 28 28.1h244.8V454.7h-66.3v-76.5h66.3v-58.7c-5-51.2 32.4-96.8 83.6-101.8 5.3-.5 10.6-.6 15.9-.2 28.1 0 53.6 2.5 58.6 2.5v68.9h-40.8c-33.2 0-38.2 15.3-38.2 38.2v48.4h76.5L469.2 452h-66.3v199h130c15.4-.1 27.9-12.6 28.1-28.1V169c-.1-15.4-12.6-27.9-28.1-28z"/></symbol><symbol viewBox="102 192 408 408.1" id="ds-asset-icon-player-fullscreen-not"><path d="M278.4 434.1L257.1 562c-1.1 6.9-6.1 8.5-11.1 3.6l-36.7-36.7-71.2 71.2L102 564l71.2-71.2-36.7-36.7c-4.9-4.9-3.4-10 3.6-11.1L268 423.7c4.6-1.2 9.2 1.5 10.5 6 .3 1.4.3 2.9-.1 4.4zm160.4-134.8l71.2-71.2-36.1-36.1-71.2 71.2-36.7-36.7c-4.9-4.9-10-3.4-11.1 3.6L333.6 358c-1.2 4.6 1.5 9.3 6.1 10.5 1.4.4 3 .4 4.4 0L472 347.2c6.9-1.1 8.5-6.1 3.6-11.1l-36.8-36.8z"/></symbol><symbol viewBox="103.7 193.8 404.4 404.4" id="ds-asset-icon-player-fullscreen"><path d="M246 565.5c4.9 4.9 3.4 10-3.6 11.1l-127.9 21.3c-4.6 1.2-9.3-1.5-10.5-6.1-.4-1.4-.4-3 0-4.4l21.3-127.9c1.1-6.9 6.1-8.5 11.1-3.6l36.7 36.7 71.2-71.2 36.1 36.1-71.2 71.2 36.8 36.8zm251.4-371.4l-127.9 21.3c-6.9 1.1-8.5 6.1-3.6 11.1l36.7 36.7-71.2 71.2 36.1 36.1 71.2-71.2 36.7 36.7c4.9 4.9 10 3.4 11.1-3.6l21.3-127.9c1.2-4.6-1.5-9.2-6-10.5-1.4-.3-2.9-.3-4.4.1z"/></symbol><symbol viewBox="52.3 141.5 507.5 509.1" id="ds-asset-icon-player-google"><path d="M555.2 348.3H310.4v99.5h142.8c-5.6 32.2-24 60.7-51 79-17.5 10.2-36.4 18-56.1 23-20.3 2.6-40.9 2.6-61.2 0-21-4.7-40.9-13.4-58.7-25.5-27.8-19.1-48.5-46.9-58.6-79-10.2-32.4-10.2-67.1 0-99.5 7.8-23.1 20.9-44.1 38.3-61.2 39.6-40.8 98.9-55.6 153-38.2 21.3 6 40.6 17.4 56.1 33.2 15.3-15.3 33.1-30.6 48.5-45.9 9.1-7.8 17.7-16.4 25.5-25.5-24.9-21.7-53.4-39-84.2-51-56.8-20-118.6-20.9-176-2.5-64.4 20.9-117.8 66.8-147.9 127.5-38.2 71.7-38.2 157.8 0 229.5 17.3 33 41.7 61.7 71.4 84.1 27.5 22.3 59.8 38 94.4 45.9 43.4 11 88.8 11.9 132.6 2.6 39.7-8.4 76.6-26.8 107.1-53.5 31-29.3 53.9-66.2 66.3-107.1 8.5-44.8 9.3-90.5 2.5-135.4z"/></symbol><symbol viewBox="52.5 141 507 510" id="ds-asset-icon-player-link"><path d="M304.9 472.5h51v7.7c.5 35.3-13.3 69.3-38.2 94.3l-38.2 38.2c-52.6 51-136.1 51-188.7 0-51-52.6-51-136.1 0-188.7l35.7-40.8c25-25 59-38.7 94.4-38.2h7.6v51h-5.1c-22.4-.8-44 8.5-58.7 25.5l-38.2 38.2c-32.4 31.3-33.2 83-1.9 115.4l1.9 1.9c31.3 32.4 83 33.2 115.4 1.9l1.9-1.9 38.2-38.2c16-15.4 25.2-36.5 25.5-58.6v-7.7h-2.6zm216.7-293.3c-52.6-51-136.1-51-188.7 0l-40.8 38.2c-25 25-38.7 59-38.2 94.3v7.7h51v-7.7c-.8-22.4 8.5-44 25.5-58.7l38.2-38.2c31.3-32.4 83-33.2 115.4-1.9l1.9 1.9c32.4 31.3 33.2 83 1.9 115.4l-1.9 1.9-40.8 38.2c-15.4 16-36.5 25.2-58.6 25.5h-5.1v51h5.1c35.3.5 69.3-13.3 94.3-38.2l38.2-38.2c53.1-52.2 54.2-137.4 2.6-191.2zM241.1 498l165.8-165.8-38.2-38.2-165.8 165.8 38.2 38.2z"/></symbol><symbol viewBox="51.1 141 510 509.9" id="ds-asset-icon-player-linked-in"><path d="M522.8 141H89.3c-20.4-.7-37.5 15.3-38.2 35.7v436c-.4 20.7 16.1 37.9 36.9 38.2h434.9c20.4.7 37.5-15.3 38.2-35.7V176.6c-.8-20.3-17.9-36.3-38.3-35.6zM201.5 574.5h-74V332.3H204v242.2h-2.5zm-38.3-275.4c-23.7.2-43.1-18.9-43.4-42.6v-.8c.7-23.6 19.7-42.7 43.4-43.3 23.6.7 42.7 19.7 43.3 43.3 1.1 22.9-16.6 42.3-39.5 43.3-1.2.2-2.5.2-3.8.1zm321.3 275.4H408V457.2c0-28.1 0-63.8-38.2-63.8s-45.9 30.6-45.9 63.8v117.3h-76.5V332.3h71.4v33.2c14.7-25.1 42.3-39.9 71.4-38.2 76.5 0 91.8 51 91.8 114.8v132.6h2.5v-.2z"/></symbol><symbol viewBox="16 267.2 579.9 257.8" id="ds-asset-icon-player-live"><path d="M587.8 267.2H24.1c-4.4 0-8.1 3.6-8.1 8.1v241.6c0 4.4 3.6 8.1 8.1 8.1h563.7c4.4 0 8.1-3.6 8.1-8.1V275.3c0-4.5-3.6-8.1-8.1-8.1zm-442.9 161c-17.8 0-32.2-14.4-32.2-32.2s14.4-32.2 32.2-32.2 32.2 14.4 32.2 32.2-14.4 32.2-32.2 32.2zM305 444.3h-54v-98.6h17.4v82.6h36.5l.1 16zm33.9 0h-18v-98.6h18v98.6zm64.6 0h-20.9l-26.7-98.6h18l19.3 72.9 19.6-72.9h18.3l-27.6 98.6zm90.4 0h-51v-98.6h48.5v15.9h-31.2v25.1h26.2v15.2h-26.2v26.4h33.6l.1 16z"/></symbol><symbol viewBox="140.3 197.3 331.5 397.5" id="ds-asset-icon-player-next"><path d="M420.8 243v136L150.9 199.1c-5.8-3.9-10.6-1.3-10.6 5.7v382.5c0 7 4.8 9.6 10.6 5.7l269.9-180v136h51V243h-51z"/></symbol><symbol viewBox="152.9 191.9 306.1 408.2" id="ds-asset-icon-player-pause"><path d="M255 587.2c.4 6.6-4.6 12.3-11.3 12.8h-78c-6.6.4-12.3-4.6-12.8-11.3v-384c-.4-6.6 4.6-12.3 11.3-12.8h78c6.6-.4 12.3 4.6 12.8 11.3v384zm204-382.4c.4-6.6-4.6-12.3-11.3-12.8h-78c-6.6-.4-12.3 4.6-12.8 11.3v384c-.4 6.6 4.6 12.3 11.3 12.8h78c6.6.4 12.3-4.6 12.8-11.3v-384z"/></symbol><symbol viewBox="51 141 510 510.3" id="ds-asset-icon-player-pinterest"><path d="M306 141c-140.7.4-254.6 114.3-255 255 .7 101.4 60.5 193.1 153 234.6-.7-19.7 1-39.4 5.1-58.6 5.1-20.4 33.2-137.7 33.2-137.7-5.4-12.9-8-26.8-7.7-40.8 0-38.2 23-66.3 48.5-66.3 23 0 33.2 17.8 33.2 38.2-5 30.4-12.6 60.2-23 89.2-5.9 20.1 5.6 41.2 25.7 47.2 4.9 1.4 10 1.9 15.1 1.3 48.5 0 81.6-61.2 81.6-135.1 0-56.1-38.2-96.9-107.1-96.9-67-2-122.9 50.7-124.9 117.8 0 1.5-.1 3.1 0 4.6-.4 18.6 5.9 36.7 17.8 51 3.8 3.1 4.9 8.4 2.5 12.8 0 5.1-5.1 15.3-5.1 20.4-2.5 7.7-7.7 7.7-12.8 7.7-35.7-15.3-51-53.5-51-96.9 0-71.4 61.2-158.1 181-158.1 84.1-4.6 156 59.8 160.6 143.9 0 .5.1 1 .1 1.5 0 99.5-56.1 176-137.7 176-24.3.8-47.3-10.7-61.2-30.6 0 0-15.3 58.6-17.8 68.9-5.4 19.2-14 37.3-25.5 53.6 23.4 5.2 47.4 7.8 71.4 7.6 140.8 0 255-114.2 255-255S446.8 141 306 141z"/></symbol><symbol viewBox="67 145.5 477.9 501.1" id="ds-asset-icon-player-play"><path d="M78.4 645.1c-3.1 2.4-7.5 1.8-9.9-1.3-1.2-1.6-1.7-3.6-1.4-5.5V153.8c-.7-3.8 1.9-7.5 5.7-8.2 2-.3 4 .2 5.5 1.4l461.9 243.1c6.2 3.3 6.2 8.6 0 11.9L78.4 645.1z"/></symbol><symbol viewBox="49.7 139.7 512.6 512.7" id="ds-asset-icon-player-playback-error"><path d="M541.9 427.9L192.5 614l249.9-249.9 99.4 53.5c2.8.8 4.4 3.7 3.6 6.6-.4 1.8-1.8 3.2-3.5 3.7zM524 139.7L350.6 313.1l-170.8-89.2c-5.1-2.5-10.2 0-10.2 7.7v265.2L49.7 616.7l35.7 35.7L562.3 178 524 139.7z"/></symbol><symbol viewBox="76.5 192 459 408" id="ds-asset-icon-player-playlist"><path d="M522.8 294H89.2c-7 0-12.8 5.7-12.8 12.8v280.5c0 7 5.7 12.8 12.8 12.8h433.5c7 0 12.8-5.7 12.8-12.8V306.8c0-7.1-5.7-12.8-12.7-12.8zM371.6 453.6L266 517c-6 3.6-10.9.8-10.9-6.2V383.2c0-7 4.9-9.8 10.9-6.2l105.6 63.4c3.6 1.4 5.4 5.4 4.1 9-.8 2-2.3 3.4-4.1 4.2zm112.9-185.1h-357V243h357v25.5zm-51-51h-255V192h255v25.5z"/></symbol><symbol viewBox="0 0 24 24" id="ds-asset-icon-player-quality-25"><path d="M10.5 20h-2c-.3 0-.5-.2-.5-.4v-7.1c0-.3.2-.5.4-.5h2.1c.3 0 .5.2.5.4v7.1c0 .3-.2.5-.5.5zm5.5-.5v-11c0-.3-.2-.5-.4-.5h-2.1c-.3 0-.5.2-.5.4v11.1c0 .3.2.5.4.5h2.1c.3 0 .5-.2.5-.5zm5 0v-15c0-.3-.2-.5-.4-.5h-2.1c-.3 0-.5.2-.5.4v15.1c0 .3.2.5.4.5h2.1c.3 0 .5-.2.5-.5z" opacity=".2"/><path d="M5.5 20h-2c-.3 0-.5-.2-.5-.4v-3.1c0-.3.2-.5.4-.5h2.1c.3 0 .5.2.5.4v3.1c0 .3-.2.5-.5.5zm5.5-.5v-1c0-.3-.2-.5-.4-.5H8.5c-.3 0-.5.2-.5.4v1.1c0 .3.2.5.4.5h2.1c.3 0 .5-.2.5-.5zm5 0v-1c0-.3-.2-.5-.4-.5h-2.1c-.3 0-.5.2-.5.4v1.1c0 .3.2.5.4.5h2.1c.3 0 .5-.2.5-.5zm5 0v-1c0-.3-.2-.5-.4-.5h-2.1c-.3 0-.5.2-.5.4v1.1c0 .3.2.5.4.5h2.1c.3 0 .5-.2.5-.5z"/></symbol><symbol viewBox="0 0 24 24" id="ds-asset-icon-player-quality-50"><path d="M15.5 20h-2c-.3 0-.5-.2-.5-.4V8.5c0-.3.2-.5.4-.5h2.1c.3 0 .5.2.5.4v11.1c0 .3-.2.5-.5.5zm5.5-.5v-15c0-.3-.2-.5-.4-.5h-2.1c-.3 0-.5.2-.5.4v15.1c0 .3.2.5.4.5h2.1c.3 0 .5-.2.5-.5z" opacity=".2"/><path d="M5.5 20h-2c-.3 0-.5-.2-.5-.4v-3.1c0-.3.2-.5.4-.5h2.1c.3 0 .5.2.5.4v3.1c0 .3-.2.5-.5.5zm10.5-.5v-1c0-.3-.2-.5-.4-.5h-2.1c-.3 0-.5.2-.5.4v1.1c0 .3.2.5.4.5h2.1c.3 0 .5-.2.5-.5zm5 0v-1c0-.3-.2-.5-.4-.5h-2.1c-.3 0-.5.2-.5.4v1.1c0 .3.2.5.4.5h2.1c.3 0 .5-.2.5-.5zm-10 0v-7c0-.3-.2-.5-.4-.5H8.5c-.3 0-.5.2-.5.4v7.1c0 .3.2.5.4.5h2.1c.3 0 .5-.2.5-.5z"/></symbol><symbol viewBox="0 0 24 24" id="ds-asset-icon-player-quality-75"><path d="M20.5 20h-2c-.3 0-.5-.2-.5-.4V4.5c0-.3.2-.5.4-.5h2.1c.3 0 .5.2.5.4v15.1c0 .3-.2.5-.5.5z" opacity=".2"/><path d="M5.5 20h-2c-.3 0-.5-.2-.5-.4v-3.1c0-.3.2-.5.4-.5h2.1c.3 0 .5.2.5.4v3.1c0 .3-.2.5-.5.5zm15.5-.5v-1c0-.3-.2-.5-.4-.5h-2.1c-.3 0-.5.2-.5.4v1.1c0 .3.2.5.4.5h2.1c.3 0 .5-.2.5-.5zm-10 0v-7c0-.3-.2-.5-.4-.5H8.5c-.3 0-.5.2-.5.4v7.1c0 .3.2.5.4.5h2.1c.3 0 .5-.2.5-.5zm5 0v-11c0-.3-.2-.5-.4-.5h-2.1c-.3 0-.5.2-.5.4v11.1c0 .3.2.5.4.5h2.1c.3 0 .5-.2.5-.5z"/></symbol><symbol viewBox="0 0 24 24" id="ds-asset-icon-player-quality-100"><path d="M5.5 20h-2c-.3 0-.5-.2-.5-.4v-3.1c0-.3.2-.5.4-.5h2.1c.3 0 .5.2.5.4v3.1c0 .3-.2.5-.5.5zm5.5-.5v-7c0-.3-.2-.5-.4-.5H8.5c-.3 0-.5.2-.5.4v7.1c0 .3.2.5.4.5h2.1c.3 0 .5-.2.5-.5zm5 0v-11c0-.3-.2-.5-.4-.5h-2.1c-.3 0-.5.2-.5.4v11.1c0 .3.2.5.4.5h2.1c.3 0 .5-.2.5-.5zm5 0v-15c0-.3-.2-.5-.4-.5h-2.1c-.3 0-.5.2-.5.4v15.1c0 .3.2.5.4.5h2.1c.3 0 .5-.2.5-.5z"/></symbol><symbol viewBox="24.2 161.4 563.6 469.3" id="ds-asset-icon-player-reddit"><path d="M518.9 327.1c-15.8 0-31.1 5.4-43.4 15.3-45.7-26.9-97.5-41.8-150.4-43.3l30.6-94.3 79.1 17.8c2.5 29.1 26.9 51.3 56.1 51 31 0 56.1-25.1 56.1-56.1s-25.1-56.1-56.1-56.1c-21.3 0-40.9 11.8-51 30.6l-94.4-22.9c-7.7-2.1-15.7 2.4-17.8 10.1v.1l-33.1 117.3c-56.3 1.3-111.4 16.1-160.7 43.3-11.7-9.2-25.9-14.5-40.8-15.3-37.3 1.6-67.2 31.5-68.9 68.8.7 21.9 11 42.4 28 56.1v15.3c3 50.5 31.9 95.9 76.5 119.8 53 31.8 114.1 47.8 176 45.9 61.6.3 122.3-15.5 176-45.9 44.6-24 73.5-69.3 76.5-119.9v-15.3c18.6-12.7 30-33.6 30.6-56.1-2.7-36.3-32.4-64.9-68.9-66.2zm-28-132.6c13.3-.8 24.7 9.3 25.5 22.6.1 1 .1 1.9 0 2.9 0 14.1-11.4 25.5-25.5 25.5-13.3.8-24.7-9.3-25.5-22.6-.1-1-.1-1.9 0-2.9.9-13.7 11.8-24.6 25.5-25.5zM182.3 434.2c0-21.1 17.1-38.2 38.2-38.2s38.2 17.1 38.2 38.2-17.1 38.2-38.2 38.2c-20.8-.5-37.7-17.3-38.2-38.2zm214.2 112.2c-25.4 21.7-58.6 31.8-91.8 28-33 2.5-65.8-7.5-91.8-28-5.8-5.4-6.1-14.6-.7-20.4 5.4-5.8 14.6-6.1 20.4-.7.2.2.5.4.7.7 20.3 15.8 45.9 23.1 71.4 20.4 25.5 1.8 50.7-5.4 71.4-20.4 5.8-5.1 14.6-5.1 20.4 0 7.7 5.1 7.7 12.7 0 20.4zm-7.6-74c-21.1 0-38.2-17.1-38.2-38.2s17.1-38.2 38.2-38.2 38.2 17.1 38.2 38.2c-.5 20.9-17.3 37.7-38.2 38.2z"/></symbol><symbol viewBox="102 159.1 408 473.9" id="ds-asset-icon-player-replay"><path d="M306 225v-51c0-12.8-10.2-20.4-20.4-10.2l-112.2 71.4c-7.7 3-11.6 11.8-8.5 19.5 1.5 3.9 4.6 7 8.5 8.5l109.6 74c12.8 10.2 23 2.5 23-10.2v-51c84.5 0 153 68.5 153 153s-68.5 153-153 153-153-68.5-153-153h-51c0 112.7 91.3 204 204 204s204-91.3 204-204-91.3-204-204-204z"/></symbol><symbol viewBox="57.2 184.4 497.6 423.2" id="ds-asset-icon-player-rewind-10"><path d="M288 457c-9.8-16.7-27.4-27.3-46.7-28-19.3.8-36.9 11.3-46.7 28-22.8 37.6-22.8 84.8 0 122.4 9.8 16.7 27.4 27.3 46.7 28 19.3-.8 37-11.3 46.7-28 22.7-37.6 22.7-84.7 0-122.4zm-46.7 125c-20.7 0-38.2-29.2-38.2-63.8s17.5-63.8 38.2-63.8 38.2 29.2 38.2 63.8S262 582 241.3 582zm-114.8 25.5v-135l-12.8 12.8-18-18 34.5-34.5c5-5 13.1-4.9 18 .1 2.4 2.4 3.7 5.6 3.7 8.9v165.8l-25.4-.1zm428.3-344.3v331.5c0 7-5.7 12.8-12.8 12.8H376.3v-51h127.5v-255h-306v51c0 14-9.5 19.1-21.2 11.3L66 290.1c-7.8-3.9-11-13.4-7.1-21.2 1.5-3.1 4-5.5 7.1-7.1l110.6-73.7c11.7-7.8 21.2-2.7 21.2 11.3v51H542c7.1.1 12.8 5.8 12.8 12.8z"/></symbol><symbol viewBox="85.5 166.5 441 459.2" id="ds-asset-icon-player-settings"><path d="M520.2 459.8l-63.7-35.7c2.1-9.2 3-18.6 2.6-28.1.4-9.4-.4-18.9-2.6-28.1l63.7-35.7c5.7-4 7.9-11.4 5.1-17.8l-40.8-66.3c-3.1-5.3-9.6-7.5-15.3-5.1l-63.7 35.7c-15.2-10.8-31.5-20.2-48.4-28v-71.4c.4-6.6-4.6-12.3-11.3-12.8h-78c-6.6-.4-12.3 4.6-12.8 11.3v72.9c-17 7.8-33.2 17.2-48.4 28L142.8 243c-5.7-2.4-12.2-.2-15.3 5.1l-38.2 66.3c-4.2 5.5-3.2 13.4 2.3 17.7.1.1.2.1.2.2l63.8 35.7c-2.1 9.2-3 18.6-2.5 28.1-.4 9.4.4 18.9 2.5 28.1l-63.8 35.7c-5.7 4-7.9 11.4-5.1 17.8l40.8 66.3c3.1 5.3 9.6 7.5 15.3 5.1l63.8-35.7c14.6 11.8 31 21.2 48.4 28.1v71.4c-.4 6.6 4.6 12.3 11.3 12.8h78c6.6.4 12.3-4.6 12.8-11.3v-72.9c17.9-5.8 34.5-15.4 48.4-28.1l63.7 35.7c6.4 3.3 14.2 1.1 17.9-5.1l38.2-66.3c2-6.5 0-13.5-5.1-17.9zM306 472.5c-42.2 0-76.5-34.3-76.5-76.5s34.3-76.5 76.5-76.5 76.5 34.3 76.5 76.5c.8 41.5-32.2 75.7-73.7 76.5H306z"/></symbol><symbol viewBox="89.2 141 433.5 510" id="ds-asset-icon-player-share"><path d="M446.2 498c-17.7.5-34.7 6.7-48.5 17.8l-158.1-99.4c2.1-6.6 3-13.5 2.6-20.4.4-6.9-.5-13.8-2.6-20.4l158.1-99.4c13.8 11.1 30.8 17.4 48.5 17.8 41.5.8 75.7-32.2 76.5-73.7v-2.8c0-42.2-34.3-76.5-76.5-76.5s-76.5 34.3-76.5 76.5c-.4 6.9.5 13.8 2.5 20.4l-158.1 99.4c-13.8-11.1-30.8-17.4-48.4-17.8-42.2 0-76.5 34.3-76.5 76.5s34.3 76.5 76.5 76.5c17.7-.5 34.7-6.7 48.4-17.8l158.1 99.4c-2.1 6.6-3 13.5-2.6 20.4 0 42.2 34.3 76.5 76.5 76.5s76.5-34.3 76.5-76.5-34.1-76.5-76.4-76.5z"/></symbol><symbol viewBox="127.4 217.5 357.1 357.1" id="ds-asset-icon-player-stop"><path d="M484.5 561.8c.4 6.6-4.6 12.3-11.3 12.8h-333c-6.6.4-12.3-4.6-12.8-11.3v-333c-.4-6.6 4.6-12.3 11.3-12.8h333c6.6-.4 12.3 4.6 12.8 11.3v333z"/></symbol><symbol viewBox="168.4 166.4 275.4 459.3" id="ds-asset-icon-player-tumblr"><path d="M441.1 597.4c-23.4 19.8-53.5 29.9-84.1 28h-2.5c-107.1 0-132.6-79-132.6-125v-130h-43.3c-5.5-.4-9.8-4.7-10.2-10.2v-58.6c1.2-6.3 4.9-11.8 10.2-15.3 44.4-16 74.7-57.4 76.5-104.5-1.1-7.4 4.1-14.2 11.5-15.3 1.3-.2 2.6-.2 3.8 0h63.8c5.5.4 9.8 4.7 10.2 10.2v102h74c4.6.2 8.7 3.3 10.2 7.6v74c-.4 5.5-4.7 9.8-10.2 10.2h-74v119.8c-2.7 18.3 10 35.2 28.3 37.9 1.6.2 3.3.4 4.9.3 9.5-1 18.8-2.7 28-5.1 3.1-1.8 6.6-2.7 10.2-2.5 2.6 0 5.1 2.5 7.6 7.6l20.4 58.6c-2.7 2.7-.1 5.2-2.7 10.3z"/></symbol><symbol viewBox="48.4 188 515.1 415.8" id="ds-asset-icon-player-twitter"><path d="M214.2 603.8c164.5.2 298.1-132.9 298.3-297.5V292.6c20.1-14.6 37.4-32.7 51-53.6-19.5 8.1-40.2 13.2-61.2 15.3 21.9-13.4 38.1-34.2 45.9-58.7-20.5 12.2-42.9 20.8-66.3 25.5-19.6-21.5-47.4-33.5-76.5-33.1-57.1-.6-103.9 45.1-104.6 102.2v2.3c-.4 7.7.4 15.5 2.6 22.9-83.7-2.3-162.1-41.5-214.2-107.1-10.4 15.9-15.7 34.6-15.3 53.5-.3 34.8 16.9 67.4 45.9 86.7-16.9-.3-33.6-4.7-48.4-12.8v2.6c0 49.8 35.3 92.5 84.1 102-9.2 2.2-18.6 3.1-28.1 2.6-6.9.4-13.8-.5-20.4-2.6 13.3 42.4 52.5 71.3 96.9 71.4-37 29.3-82.8 45.5-130 45.9-8.6.4-17.2-.4-25.5-2.6 49.8 31.4 107.2 48.1 165.8 48.8"/></symbol><symbol viewBox="67.5 197.9 477 396.2" id="ds-asset-icon-player-volume-0"><path d="M297 204.8v382.5c0 7-4.3 9-9.5 4.3l-133.9-119H80.3c-7 0-12.8-5.7-12.8-12.8V332.3c0-7 5.7-12.8 12.8-12.8h73.3l133.9-119c5.2-4.7 9.5-2.8 9.5 4.3zm247.5 132.7l-36.1-36.1-58.5 58.5-58.5-58.5-36.1 36.1 58.5 58.5-58.5 58.5 36.1 36.1 58.5-58.5 58.5 58.5 36.1-36.1L486 396l58.5-58.5z"/></symbol><symbol viewBox="114.7 197.9 382.5 396.2" id="ds-asset-icon-player-volume-50"><path d="M344.2 204.8v382.5c0 7-4.3 9-9.5 4.3l-133.9-119h-73.3c-7 0-12.8-5.7-12.8-12.8V332.3c0-7 5.7-12.8 12.8-12.8h73.3l133.9-119c5.3-4.7 9.5-2.8 9.5 4.3zm153 191.2c0-56.3-45.7-102-102-102v51c28.2 0 51 22.8 51 51s-22.8 51-51 51v51c56.4 0 102-45.7 102-102z"/></symbol><symbol viewBox="63.7 192 484.5 408" id="ds-asset-icon-player-volume-100"><path d="M293.2 204.8v382.5c0 7-4.3 9-9.5 4.3l-133.9-119H76.5c-7 0-12.8-5.7-12.8-12.8V332.3c0-7 5.7-12.8 12.8-12.8h73.3l133.9-119c5.3-4.7 9.5-2.8 9.5 4.3zm255 191.2c-.1-112.6-91.4-203.9-204-204v51c84.5 0 153 68.5 153 153s-68.5 153-153 153v51c112.7-.1 203.9-91.4 204-204zm-204 102v-51c28.2 0 51-22.8 51-51s-22.8-51-51-51v-51c56.3 0 102 45.7 102 102s-45.6 102-102 102z"/></symbol></svg>