<svg xmlns="http://www.w3.org/2000/svg" viewBox="0 0 16 16"><defs></defs><path class="cls-1" d="m2.196,13.099c0,.609.305.914.914.914s.914-.304.914-.914v-5.786h-1.827v5.786Z"/><path class="cls-1" d="m4.327,4.268h-.305v-1.218c0-.609,0-1.218-.914-1.218s-.914.609-.914,1.218v1.218h-.305c-.392,0-.914.305-.914.914s.521.914.914.914h2.436c.392,0,.914-.305.914-.914s-.521-.914-.914-.914Z"/><path class="cls-1" d="m11.94,13.099c0,.609.305.914.914.914s.914-.304.914-.914v-5.786h-1.827v5.786Z"/><path class="cls-1" d="m14.072,4.268h-.305v-1.218c0-.609,0-1.218-.914-1.218s-.914.609-.914,1.218v1.218h-.305c-.392,0-.914.305-.914.914s.521.914.914.914h2.436c.392,0,.914-.305.914-.914s-.521-.914-.914-.914Z"/><path class="cls-1" d="m8.895,2.745c0-.609-.305-.914-.914-.914s-.914.305-.914.914v5.786h1.827V2.745Z"/><path class="cls-1" d="m9.2,9.749h-2.436c-.392,0-.914.305-.914.914s.521.914.914.914h.304v1.218c0,.609,0,1.218.914,1.218s.914-.609.914-1.218v-1.218h.305c.392,0,.914-.305.914-.914s-.521-.914-.914-.914Z"/></svg>