<svg xmlns="http://www.w3.org/2000/svg" width="24" height="24" viewBox="0 0 24 24">
  <path d="M.5055,11.4253c4.3788,0,8.7577-4.8852,8.7577-9.7703,0,4.8852,4.3789,9.7703,8.7577,9.7703-4.3788,0-8.7577,4.8852-8.7577,9.7703,0-4.8852-4.3789-9.7703-8.7577-9.7703Z"/>
  <path d="M13.6421,18.322c2.463,0,4.9262-2.5863,4.9262-5.1725,0,2.5863,2.4632,5.1725,4.9262,5.1725-2.463,0-4.9262,2.5863-4.9262,5.1725,0-2.5863-2.4632-5.1725-4.9262-5.1725Z"/>
  <path d="M13.6421,3.9539c1.6421,0,3.2841-1.7242,3.2841-3.4483,0,1.7242,1.6421,3.4483,3.2842,3.4483-1.6421,0-3.2842,1.7242-3.2842,3.4483,0-1.7242-1.642-3.4483-3.2841-3.4483Z"/>
</svg>