<svg xmlns="http://www.w3.org/2000/svg" viewBox="0 0 24 24"><path d="M21,20.008H3a1,1,0,0,0,0,2H21a1,1,0,0,0,0-2Z" fill-rule="evenodd"/><path d="M21,11.008H14a1,1,0,0,0,0,2h7a1,1,0,0,0,0-2Z" fill-rule="evenodd"/><path d="M14,4.008h7a1,1,0,0,0,0-2H14a1,1,0,0,0,0,2Z" fill-rule="evenodd"/><path d="M5.8,16.694a1.009,1.009,0,0,0,1.462,0l3.482-3.481a1.155,1.155,0,0,0,0-1.463,1.047,1.047,0,0,0-.766-.278,1.046,1.046,0,0,0-.766.278L7.536,13.421V3.044a1.045,1.045,0,0,0-2.089,0V13.421L3.776,11.75a1.01,1.01,0,0,0-1.463,0,1.012,1.012,0,0,0,0,1.463Z" fill-rule="evenodd"/></svg>