<svg xmlns="http://www.w3.org/2000/svg" viewBox="0 0 24 24"><path d="M14,16.35l.78-.79a1,1,0,0,0,.32-.76,1.07,1.07,0,0,0-.32-.77l-.59-.58a1.07,1.07,0,0,0-1.53,0l-.78.78a.61.61,0,0,1-.82,0L5.16,8.34a.61.61,0,0,1,0-.82L7.52,5.16a.61.61,0,0,1,.82,0l1,1a1.08,1.08,0,0,0,1.53,0l.59-.58a1.09,1.09,0,0,0,0-1.54l-1-1A3.6,3.6,0,0,0,5.4,3L3,5.4a3.6,3.6,0,0,0,0,5.06l5.89,5.89a3.57,3.57,0,0,0,4.34.54A3.86,3.86,0,0,0,14,16.35Z"/><path d="M21,13.54,15.07,7.65a3.62,3.62,0,0,0-4.34-.54,3.56,3.56,0,0,0-.72.54l-.78.78a1.08,1.08,0,0,0,0,1.54l.59.58a1.07,1.07,0,0,0,1.53,0l.78-.78a.61.61,0,0,1,.82,0l5.88,5.89a.58.58,0,0,1,0,.82l-2.35,2.36a.61.61,0,0,1-.82,0l-1-1a1.07,1.07,0,0,0-1.53,0l-.59.58a1.07,1.07,0,0,0-.32.77,1,1,0,0,0,.32.76l1,1a3.6,3.6,0,0,0,5.06,0L21,18.6A3.57,3.57,0,0,0,21,13.54Z"/></svg>