<svg width="12" height="12" viewBox="0 0 12 12" fill="none" xmlns="http://www.w3.org/2000/svg">
<path id="direction-dsc" d="M1.12213 7.62416L3.15383 9.9422C3.249 10.0501 3.37773 10.1107 3.51192 10.1107C3.6461 10.1107 3.77484 10.0501 3.87001 9.9422L5.9017 7.62416C5.98491 7.51329 6.0284 7.37069 6.02346 7.22484C6.01852 7.07899 5.96553 6.94064 5.87507 6.83743C5.78461 6.73422 5.66335 6.67376 5.53552 6.66813C5.40768 6.6625 5.2827 6.71211 5.18553 6.80704L4.01984 8.13412V2.57951C4.01984 2.42582 3.96633 2.27841 3.87108 2.16973C3.77582 2.06106 3.64663 2 3.51192 2C3.37721 2 3.24802 2.06106 3.15276 2.16973C3.05751 2.27841 3.00399 2.42582 3.00399 2.57951V8.13412L1.83831 6.80704C1.74114 6.71211 1.61615 6.6625 1.48832 6.66813C1.36049 6.67376 1.23923 6.73422 1.14877 6.83743C1.05831 6.94064 1.00532 7.07899 1.00038 7.22484C0.995441 7.37069 1.03892 7.51329 1.12213 7.62416Z" fill="#2F3542"/>
<path id="direction-asc" d="M6.09833 4.48656L8.13003 2.16852C8.22519 2.06058 8.35393 2 8.48811 2C8.6223 2 8.75103 2.06058 8.8462 2.16852L10.8779 4.48656C10.9611 4.59742 11.0046 4.74003 10.9997 4.88588C10.9947 5.03173 10.9417 5.17008 10.8513 5.27329C10.7608 5.37649 10.6395 5.43696 10.5117 5.44259C10.3839 5.44822 10.2589 5.39861 10.1617 5.30367L8.99604 3.97659V9.53121C8.99604 9.6849 8.94252 9.8323 8.84727 9.94098C8.75202 10.0497 8.62282 10.1107 8.48811 10.1107C8.3534 10.1107 8.22421 10.0497 8.12896 9.94098C8.0337 9.8323 7.98019 9.6849 7.98019 9.53121V3.97659L6.8145 5.30367C6.71734 5.39861 6.59235 5.44822 6.46452 5.44259C6.33668 5.43696 6.21542 5.37649 6.12496 5.27329C6.03451 5.17008 5.98151 5.03173 5.97658 4.88588C5.97164 4.74003 6.01512 4.59742 6.09833 4.48656Z" fill="#2F3542"/>
</svg>
