<svg xmlns="http://www.w3.org/2000/svg" viewBox="0 0 20 20"><circle cx="2" cy="2" r="2"/><path d="M10,2H20a2,2,0,0,1,2,2h0a2,2,0,0,1-2,2H10A2,2,0,0,1,8,4H8A2,2,0,0,1,10,2Z" transform="translate(-2 -2)"/><circle cx="2" cy="10" r="2"/><path d="M10,10H20a2,2,0,0,1,2,2h0a2,2,0,0,1-2,2H10a2,2,0,0,1-2-2H8A2,2,0,0,1,10,10Z" transform="translate(-2 -2)"/><circle cx="2" cy="18" r="2"/><path d="M10,18H20a2,2,0,0,1,2,2h0a2,2,0,0,1-2,2H10a2,2,0,0,1-2-2H8A2,2,0,0,1,10,18Z" transform="translate(-2 -2)"/></svg>