<svg xmlns="http://www.w3.org/2000/svg" viewBox="0 0 24 24"><path d="M11.844,9.016c.053,0,.1-.016.156-.016a3,3,0,0,1,3,3c0,.053-.013.1-.016.156l3.871,3.871A16.628,16.628,0,0,0,22,12S18.4,5,12,5a8.809,8.809,0,0,0-3.454.718Z" fill-rule="evenodd"/><path d="M19.778,19.778,4.222,4.222A1,1,0,0,0,2.808,5.636L5.145,7.973A16.628,16.628,0,0,0,2,12s3.6,7,10,7a8.809,8.809,0,0,0,3.454-.718l2.91,2.91a1,1,0,0,0,1.414-1.414ZM12,15a3,3,0,0,1-3-3c0-.053.013-.1.016-.156l3.14,3.14C12.1,14.987,12.053,15,12,15Z" fill-rule="evenodd"/></svg>