<svg xmlns="http://www.w3.org/2000/svg" viewBox="0 0 24 24"><path d="M 12.104 22 C 11.735 21.997 11.379 21.858 11.104 21.61 L 5.604 16.61 C 4.681 15.917 4.854 14.484 5.916 14.031 C 6.499 13.782 7.174 13.926 7.604 14.39 L 12.104 18.47 L 16.594 14.39 C 17.518 13.697 18.845 14.263 18.984 15.409 C 19.037 15.847 18.895 16.287 18.594 16.61 L 13.094 21.61 C 12.823 21.856 12.471 21.994 12.104 22 Z"/><path d="M 17.445 10 C 17.075 9.997 16.719 9.858 16.445 9.61 L 11.945 5.53 L 7.455 9.61 C 6.531 10.303 5.204 9.737 5.065 8.591 C 5.012 8.153 5.155 7.713 5.455 7.39 L 10.955 2.39 C 11.524 1.881 12.385 1.881 12.955 2.39 L 18.455 7.39 C 19.068 7.948 19.113 8.897 18.555 9.51 C 18.269 9.82 17.867 9.998 17.445 10 Z"/></svg>