<svg xmlns="http://www.w3.org/2000/svg" viewBox="0 0 16 16"><defs></defs><path class="cls-2" d="m7.289,2.403h-1.764c-.39,0-.706-.316-.706-.706h0c0-.39.316-.706.706-.706h5.009c.39,0,.706.316.706.706h0c0,.39-.316.706-.706.706h-1.764v3.685c0,.409-.332.741-.741.741h0c-.409,0-.741-.332-.741-.741v-3.685Z"/><path class="cls-1" d="m3.068,7.996v7.005h9.923v-7.005H3.068Zm8.172,5.837h-6.421c-.322,0-.584-.261-.584-.584s.261-.584.584-.584h6.421c.322,0,.584.261.584.584s-.261.584-.584.584Zm0-1.751h-6.421c-.322,0-.584-.261-.584-.584s.261-.584.584-.584h6.421c.322,0,.584.261.584.584s-.261.584-.584.584Zm0-1.751h-6.421c-.322,0-.584-.261-.584-.584s.261-.584.584-.584h6.421c.322,0,.584.261.584.584s-.261.584-.584.584Z"/></svg>