<svg xmlns="http://www.w3.org/2000/svg" viewBox="0 0 16 16"><defs></defs><path class="cls-1" d="m4,.667v8h8V.667H4Zm6.688,2.623h-1.919v3.274c0,.425-.344.769-.769.769s-.769-.344-.769-.769v-3.274h-1.919c-.356,0-.645-.289-.645-.645s.289-.645.645-.645h5.377c.356,0,.645.289.645.645s-.289.645-.645.645Z"/><path class="cls-2" d="m12,10.667c0,.368-.299.667-.667.667h-6.667c-.368,0-.667-.298-.667-.667h0c0-.368.298-.667.667-.667h6.667c.368,0,.667.299.667.667h0Z"/><path class="cls-2" d="m12,12.667c0,.368-.299.667-.667.667h-6.667c-.368,0-.667-.298-.667-.667h0c0-.368.298-.667.667-.667h6.667c.368,0,.667.299.667.667h0Z"/><path class="cls-2" d="m12,14.667c0,.368-.299.667-.667.667h-6.667c-.368,0-.667-.298-.667-.667h0c0-.368.298-.667.667-.667h6.667c.368,0,.667.299.667.667h0Z"/></svg>