<svg xmlns="http://www.w3.org/2000/svg" viewBox="0 0 15 24"><path class="cls-1" d="m0,0h15v14H0V0Zm6.231,4.418h-3.022c-.668,0-1.209-.541-1.209-1.209s.541-1.209,1.209-1.209h8.582c.668,0,1.209.541,1.209,1.209s-.541,1.209-1.209,1.209h-3.022v6.312c0,.701-.568,1.269-1.269,1.269s-1.269-.568-1.269-1.269v-6.312Zm7.769,13.582c.552,0,1-.448,1-1s-.448-1-1-1H1c-.552,0-1,.448-1,1s.448,1,1,1h13Zm0,3c.552,0,1-.448,1-1s-.448-1-1-1H1c-.552,0-1,.448-1,1s.448,1,1,1h13Zm1,2c0,.552-.448,1-1,1H1c-.552,0-1-.448-1-1s.448-1,1-1h13c.552,0,1,.448,1,1Z"/></svg>
