<svg xmlns="http://www.w3.org/2000/svg" width="24" height="24" viewBox="0 0 24 24"><path d="M21.9846,11.3149c.003,.0177,.0053,.0355,.007,.0533,.0419,.4397-.0748,.8801-.321,1.2368-.2463,.3567-.6094,.6111-1.022,.7069-.4137,.0962-.8478,.0255-1.2122-.2067-.3646-.2323-.6238-.6036-.7304-1.0334-.0042-.0173-.0079-.0347-.0109-.0522l-.316-1.8442-4.6577,7.0704c-.1921,.2917-.5626,.3868-.8619,.2212l-4.6362-2.5643-3.2752,5.3282c-.478,.7776-1.4682,1.0027-2.2118,.5037-.7441-.4993-.9604-1.535-.4821-2.3131l4.5341-7.3764c.1876-.3051,.5672-.4093,.8738-.2397l4.7012,2.6003,3.2848-4.9865-1.5946,.3687c-.0166,.0038-.0333,.007-.0501,.0095-.4201,.0625-.8475-.0444-1.193-.3066-.3455-.2622-.5752-.654-.6496-1.0906-.0742-.4355,.0111-.8839,.2315-1.2587,.2203-.3747,.5643-.6564,.9683-.785,.0163-.0052,.0329-.0097,.0496-.0136l5.604-1.3023c.4343-.0995,.8896-.0151,1.2623,.2445,.3728,.2596,.6229,.6665,.7022,1.1244l.0004,.002,1.0054,5.9035Z"/></svg>
