<svg xmlns="http://www.w3.org/2000/svg" viewBox="0 0 24 24"><defs><style>.cls-1{fill-rule:evenodd;}</style></defs><path d="M10.448,4.787a.7.7,0,0,1,1.192.544V18.318a.878.878,0,0,1-1.436.642c-1.56-1.39-3.886-3.455-4.354-3.87H3.87a1.5,1.5,0,0,1-1.5-1.5V10.4a1.5,1.5,0,0,1,1.5-1.5H5.85C6.346,8.459,8.9,6.164,10.448,4.787Z"/><path class="cls-1" d="M13.753,8.777a1,1,0,0,1,1.269-.624,4.1,4.1,0,0,1,0,7.764,1,1,0,1,1-.644-1.893,2.1,2.1,0,0,0,0-3.977A1,1,0,0,1,13.753,8.777Z"/><path class="cls-1" d="M13.714,4.832a1,1,0,0,1,1.154-.818,8.1,8.1,0,0,1,0,15.97,1,1,0,0,1-.336-1.972,6.1,6.1,0,0,0,0-12.026A1,1,0,0,1,13.714,4.832Z"/></svg>
