<svg id="Layer_1" data-name="Layer 1" xmlns="http://www.w3.org/2000/svg" viewBox="0 0 24 24"><path d="M10.448,4.787a.7.7,0,0,1,1.192.544V18.318a.878.878,0,0,1-1.436.642c-1.56-1.39-3.886-3.455-4.354-3.87H3.87a1.5,1.5,0,0,1-1.5-1.5V10.4a1.5,1.5,0,0,1,1.5-1.5H5.85C6.346,8.459,8.9,6.164,10.448,4.787ZM20.5,10.37a1.032,1.032,0,0,0-1.46-1.46l-1.63,1.63L15.78,8.91a1.032,1.032,0,0,0-1.46,1.46L15.95,12l-1.63,1.63a1.032,1.032,0,0,0,1.46,1.46l1.63-1.63,1.63,1.63a1.032,1.032,0,0,0,1.46-1.46L18.87,12Z"/></svg>