<?xml version="1.0" encoding="utf-8"?>
<!-- Generator: Adobe Illustrator 18.1.1, SVG Export Plug-In . SVG Version: 6.00 Build 0)  -->
<svg version="1.1" id="Layer_1" xmlns="http://www.w3.org/2000/svg" xmlns:xlink="http://www.w3.org/1999/xlink" x="0px" y="0px"
	 width="495px" height="382.5px" viewBox="-407.5 1639 495 382.5" enable-background="new -407.5 1639 495 382.5"
	 xml:space="preserve">
<path d="M87.5,1650.2v292.5c0.4,5.9-4.1,10.9-10,11.2c-0.4,0-0.9,0-1.3,0h-99l-38.2-45H42.5v-225h-405v225h105.8l-38.2,45h-101.2
	c-5.9,0.4-10.9-4.1-11.2-10c0-0.4,0-0.9,0-1.3v-292.5c-0.4-5.9,4.1-10.9,10-11.2c0.4,0,0.9,0,1.3,0H76.2c5.9-0.4,10.9,4.1,11.2,10
	C87.5,1649.4,87.5,1649.8,87.5,1650.2z M-193.8,1834.8l33.8-40.5l33.8,40.5l24.8,29.2h99v-135h-315v135h99L-193.8,1834.8z
	 M-25,2021.5L-160,1864l-135,157.5H-25z"/>
</svg>
