<?xml version="1.0" encoding="utf-8"?>
<!-- Generator: Adobe Illustrator 18.1.1, SVG Export Plug-In . SVG Version: 6.00 Build 0)  -->
<svg version="1.1" id="Layer_1" xmlns="http://www.w3.org/2000/svg" xmlns:xlink="http://www.w3.org/1999/xlink" x="0px" y="0px"
	 width="427px" height="347.7px" viewBox="92.5 222.2 427 347.7" enable-background="new 92.5 222.2 427 347.7"
	 xml:space="preserve">
<g transform="translate(266 969)">
	<path d="M-20.5-666.1l173,93.1l-172.9,93.1V-666 M-65-746.8c-3.9,0-6.5,3-6.5,8.1v331.5c0,5.1,2.6,8.1,6.5,8.1
		c1.7-0.1,3.3-0.5,4.8-1.4l309-166.5c6.2-3.3,6.2-8.8,0-12.1l-309-166.4C-61.7-746.3-63.3-746.8-65-746.8L-65-746.8z M-122.5-420
		H-97v-306h-25.5V-420z M-173.5-445.5h25.5v-255h-25.5V-445.5z"/>
</g>
</svg>
