<?xml version="1.0" encoding="utf-8"?>
<!-- Generator: Adobe Illustrator 18.1.1, SVG Export Plug-In . SVG Version: 6.00 Build 0)  -->
<svg version="1.1" id="Layer_1" xmlns="http://www.w3.org/2000/svg" xmlns:xlink="http://www.w3.org/1999/xlink" x="0px" y="0px"
	 width="579.9px" height="257.8px" viewBox="16 267.2 579.9 257.8" enable-background="new 16 267.2 579.9 257.8"
	 xml:space="preserve">
<g transform="translate(980 1600)">
	<path d="M-416.3-1300.6v193.3h-515.4v-193.3H-416.3 M-392.2-1332.8h-563.7c-4.4,0-8.1,3.6-8.1,8.1v241.6c0,4.4,3.6,8.1,8.1,8.1
		h563.7c4.4,0,8.1-3.6,8.1-8.1v-241.6C-384.1-1329.2-387.7-1332.8-392.2-1332.8z M-711.6-1254.2v82.6h36.5v15.9H-729v-98.6
		L-711.6-1254.2L-711.6-1254.2z M-659.1-1254.2h18v98.6h-18V-1254.2z M-606.2-1254.2l19.3,72.9l19.7-72.9h18.3l-27.5,98.6h-20.9
		l-26.7-98.6H-606.2z M-519.8-1198v26.4h33.6v15.9h-50.9v-98.6h48.5v15.9h-31.2v25.1h26.2v15.2L-519.8-1198L-519.8-1198z
		 M-835.1-1252.3c-26.7,0-48.3,21.6-48.3,48.3s21.6,48.3,48.3,48.3s48.3-21.6,48.3-48.3S-808.4-1252.3-835.1-1252.3z M-802.8-1204
		c0,5.7-1.6,11.4-4.6,16.3l-43.9-43.9c15.2-9.1,34.8-4.2,43.9,11C-804.4-1215.6-802.8-1209.9-802.8-1204z M-867.3-1204
		c0-5.7,1.6-11.4,4.6-16.3l43.9,43.9c-15.2,9.1-34.8,4.2-43.9-11C-865.7-1192.4-867.3-1198.1-867.3-1204z"/>
</g>
</svg>
