<?xml version="1.0" encoding="utf-8"?>
<!-- Generator: Adobe Illustrator 18.1.1, SVG Export Plug-In . SVG Version: 6.00 Build 0)  -->
<svg version="1.1" id="Layer_1" xmlns="http://www.w3.org/2000/svg" xmlns:xlink="http://www.w3.org/1999/xlink" x="0px" y="0px"
	 width="559.2px" height="408.1px" viewBox="26.5 192 559.2 408.1" enable-background="new 26.5 192 559.2 408.1"
	 xml:space="preserve">
<g transform="translate(950 1130)">
	<path d="M-375.3-938h-540.6l-7.6,7.7v387.6c-0.4,6.6,4.6,12.3,11.3,12.8c0.5,0,1,0,1.5,0h532.9c6.6,0.4,12.3-4.6,12.8-11.3
		c0-0.5,0-1,0-1.5v-382.5C-362.5-932.9-367.6-938-375.3-938z M-462-887l-181,145.3L-824-887H-462z M-413.5-581h-459v-278L-643-675.4
		L-413.5-859V-581z"/>
</g>
</svg>
