<?xml version="1.0" encoding="utf-8"?>
<!-- Generator: Adobe Illustrator 18.1.1, SVG Export Plug-In . SVG Version: 6.00 Build 0)  -->
<svg version="1.1" id="Layer_1" xmlns="http://www.w3.org/2000/svg" xmlns:xlink="http://www.w3.org/1999/xlink" x="0px" y="0px"
	 width="611.7px" height="476.8px" viewBox="0.2 157.6 611.7 476.8" enable-background="new 0.2 157.6 611.7 476.8"
	 xml:space="preserve">
<g transform="translate(950 1130)">
	<path d="M-345.5-727.6l-107.1-109.7l-38.2,38.2l89.2,89.2l-89.2,89.2l35.7,35.7L-348-691.9c10.4-7.2,13-21.5,5.8-31.9
		C-343.2-725.2-344.3-726.5-345.5-727.6L-345.5-727.6z M-835.1-837.3l-107.1,107.1c-9.9,9.4-10.2,25-0.8,34.9
		c0.3,0.3,0.6,0.6,0.8,0.8l107.1,112.2l38.2-38.2l-91.8-89.2l91.8-89.2L-835.1-837.3z M-750.9-513.4l165.8-459l48.5,17.8l-165.8,459
		L-750.9-513.4z"/>
</g>
</svg>
