<?xml version="1.0" encoding="utf-8"?>
<!-- Generator: Adobe Illustrator 18.1.1, SVG Export Plug-In . SVG Version: 6.00 Build 0)  -->
<svg version="1.1" id="Layer_1" xmlns="http://www.w3.org/2000/svg" xmlns:xlink="http://www.w3.org/1999/xlink" x="0px" y="0px"
	 width="404.4px" height="404.4px" viewBox="103.7 193.8 404.4 404.4" enable-background="new 103.7 193.8 404.4 404.4"
	 xml:space="preserve">
<g transform="translate(192 1007)">
	<path d="M54-441.5c4.9,4.9,3.4,10-3.6,11.1l-127.9,21.3c-4.6,1.2-9.3-1.5-10.5-6.1c-0.4-1.4-0.4-3,0-4.4l21.3-127.9
		c1.1-6.9,6.1-8.5,11.1-3.6l36.7,36.7l71.2-71.2l36.1,36.1l-71.2,71.2L54-441.5z M305.4-812.9l-127.9,21.3
		c-6.9,1.1-8.5,6.1-3.6,11.1l36.7,36.7l-71.2,71.2l36.1,36.1l71.2-71.2l36.7,36.7c4.9,4.9,10,3.4,11.1-3.6l21.3-127.9
		c1.2-4.6-1.5-9.2-6-10.5C308.4-813.3,306.9-813.3,305.4-812.9L305.4-812.9z"/>
</g>
</svg>
