<?xml version="1.0" encoding="utf-8"?>
<!-- Generator: Adobe Illustrator 18.1.1, SVG Export Plug-In . SVG Version: 6.00 Build 0)  -->
<svg version="1.1" id="Layer_1" xmlns="http://www.w3.org/2000/svg" xmlns:xlink="http://www.w3.org/1999/xlink" x="0px" y="0px"
	 width="408px" height="408.1px" viewBox="102 192 408 408.1" enable-background="new 102 192 408 408.1" xml:space="preserve">
<g transform="translate(980 1512)">
	<path d="M-701.6-1077.9L-722.9-950c-1.1,6.9-6.1,8.5-11.1,3.6l-36.7-36.7l-71.2,71.2L-878-948l71.2-71.2l-36.7-36.7
		c-4.9-4.9-3.4-10,3.6-11.1l127.9-21.3c4.6-1.2,9.2,1.5,10.5,6C-701.2-1080.9-701.2-1079.4-701.6-1077.9L-701.6-1077.9z
		 M-541.2-1212.7l71.2-71.2l-36.1-36.1l-71.2,71.2l-36.7-36.7c-4.9-4.9-10-3.4-11.1,3.6l-21.3,127.9c-1.2,4.6,1.5,9.3,6.1,10.5
		c1.4,0.4,3,0.4,4.4,0l127.9-21.3c6.9-1.1,8.5-6.1,3.6-11.1L-541.2-1212.7z"/>
</g>
</svg>
