<svg xmlns="http://www.w3.org/2000/svg" viewBox="0 0 160 160">
	<path d="M135.237,15.006H24.739A9.427,9.427,0,0,0,15,24.107V135.256a9.553,9.553,0,0,0,9.365,9.737h110.9a9.427,9.427,0,0,0,9.737-9.1V24.081A9.461,9.461,0,0,0,135.237,15.006Zm-81.9,110.512H34.476V63.774h19.5v61.744ZM43.576,55.31A10.994,10.994,0,0,1,32.513,44.45v-.2a11.05,11.05,0,0,1,22.1,0A10.537,10.537,0,0,1,44.6,55.283l-.051,0A4.07,4.07,0,0,1,43.576,55.31Zm81.9,70.208h-19.5v-29.9c0-7.164,0-16.265-9.737-16.265s-11.7,7.8-11.7,16.265v29.9h-19.5V63.774h18.2v8.464h0a19.766,19.766,0,0,1,18.2-9.738c19.5,0,23.4,13,23.4,29.266v33.8h.637Z"/>
</svg>