<?xml version="1.0" encoding="utf-8"?>
<!-- Generator: Adobe Illustrator 18.1.1, SVG Export Plug-In . SVG Version: 6.00 Build 0)  -->
<svg version="1.1" id="Layer_1" xmlns="http://www.w3.org/2000/svg" xmlns:xlink="http://www.w3.org/1999/xlink" x="0px" y="0px"
	 width="507px" height="510px" viewBox="52.5 141 507 510" enable-background="new 52.5 141 507 510" xml:space="preserve">
<g transform="translate(950 1130)">
	<path d="M-645.1-657.5h51v7.7c0.5,35.3-13.3,69.3-38.2,94.3l-38.2,38.2c-52.6,51-136.1,51-188.7,0c-51-52.6-51-136.1,0-188.7
		l35.7-40.8c25-25,59-38.7,94.4-38.2h7.6v51h-5.1c-22.4-0.8-44,8.5-58.7,25.5l-38.2,38.2c-32.4,31.3-33.2,83-1.9,115.4
		c0.6,0.6,1.3,1.3,1.9,1.9c31.3,32.4,83,33.2,115.4,1.9c0.6-0.6,1.3-1.3,1.9-1.9l38.2-38.2c16-15.4,25.2-36.5,25.5-58.6l0,0v-7.7
		L-645.1-657.5L-645.1-657.5z M-428.4-950.8L-428.4-950.8c-52.6-51-136.1-51-188.7,0l-40.8,38.2c-25,25-38.7,59-38.2,94.3v7.7h51
		v-7.7c-0.8-22.4,8.5-44,25.5-58.7l38.2-38.2c31.3-32.4,83-33.2,115.4-1.9c0.6,0.6,1.3,1.3,1.9,1.9c32.4,31.3,33.2,83,1.9,115.4
		c-0.6,0.6-1.3,1.3-1.9,1.9l-40.8,38.2c-15.4,16-36.5,25.2-58.6,25.5h-5.1v51h5.1c35.3,0.5,69.3-13.3,94.3-38.2l38.2-38.2
		C-377.9-811.8-376.8-897-428.4-950.8z M-708.9-632l165.8-165.8l-38.2-38.2l-165.8,165.8L-708.9-632z"/>
</g>
</svg>
