<?xml version="1.0" encoding="utf-8"?>
<!-- Generator: Adobe Illustrator 18.1.1, SVG Export Plug-In . SVG Version: 6.00 Build 0)  -->
<svg version="1.1" id="Layer_1" xmlns="http://www.w3.org/2000/svg" xmlns:xlink="http://www.w3.org/1999/xlink" x="0px" y="0px"
	 width="408px" height="473.9px" viewBox="102 159.1 408 473.9" enable-background="new 102 159.1 408 473.9" xml:space="preserve">
<g transform="translate(986 1863)">
	<path d="M-680-1638v-51c0-12.8-10.2-20.4-20.4-10.2l-112.2,71.4c-7.7,3-11.6,11.8-8.5,19.5c1.5,3.9,4.6,7,8.5,8.5l109.6,74
		c12.8,10.2,23,2.5,23-10.2v-51c84.5,0,153,68.5,153,153s-68.5,153-153,153s-153-68.5-153-153h-51c0,112.7,91.3,204,204,204
		s204-91.3,204-204C-476-1546.7-567.3-1638-680-1638z"/>
</g>
</svg>
