<?xml version="1.0" encoding="utf-8"?>
<!-- Generator: Adobe Illustrator 18.1.1, SVG Export Plug-In . SVG Version: 6.00 Build 0)  -->
<svg version="1.1" id="Layer_1" xmlns="http://www.w3.org/2000/svg" xmlns:xlink="http://www.w3.org/1999/xlink" x="0px" y="0px"
	 width="497.6px" height="423.2px" viewBox="57.2 184.4 497.6 423.2" enable-background="new 57.2 184.4 497.6 423.2"
	 xml:space="preserve">
<g transform="translate(912 1447)">
	<path d="M-624-990c-9.8-16.7-27.4-27.3-46.7-28c-19.3,0.8-36.9,11.3-46.7,28c-22.8,37.6-22.8,84.8,0,122.4
		c9.8,16.7,27.4,27.3,46.7,28c19.3-0.8,37-11.3,46.7-28C-601.3-905.2-601.3-952.3-624-990L-624-990z M-670.7-865
		c-20.7,0-38.2-29.2-38.2-63.8s17.5-63.8,38.2-63.8s38.2,29.2,38.2,63.8S-650-865-670.7-865z M-785.5-839.5v-135l-12.8,12.8l-18-18
		l34.5-34.5c5-5,13.1-4.9,18,0.1c2.4,2.4,3.7,5.6,3.7,8.9v165.8L-785.5-839.5L-785.5-839.5z M-357.2-1183.8v331.5
		c0,7-5.7,12.8-12.8,12.8h-165.7v-51h127.5v-255h-306v51c0,14-9.5,19.1-21.2,11.3l-110.6-73.7c-7.8-3.9-11-13.4-7.1-21.2
		c1.5-3.1,4-5.5,7.1-7.1l110.6-73.7c11.7-7.8,21.2-2.7,21.2,11.3v51H-370C-362.9-1196.5-357.2-1190.8-357.2-1183.8z"/>
</g>
</svg>
