<?xml version="1.0" encoding="utf-8"?>
<!-- Generator: Adobe Illustrator 18.1.1, SVG Export Plug-In . SVG Version: 6.00 Build 0)  -->
<svg version="1.1" id="Layer_1" xmlns="http://www.w3.org/2000/svg" xmlns:xlink="http://www.w3.org/1999/xlink" x="0px" y="0px"
	 width="433.5px" height="510px" viewBox="89.2 141 433.5 510" enable-background="new 89.2 141 433.5 510" xml:space="preserve">
<g transform="translate(886 1713)">
	<path d="M-439.8-1215c-17.7,0.5-34.7,6.7-48.5,17.8l-158.1-99.4c2.1-6.6,3-13.5,2.6-20.4c0.4-6.9-0.5-13.8-2.6-20.4l158.1-99.4
		c13.8,11.1,30.8,17.4,48.5,17.8c41.5,0.8,75.7-32.2,76.5-73.7c0-0.9,0-1.9,0-2.8c0-42.2-34.3-76.5-76.5-76.5s-76.5,34.3-76.5,76.5
		c-0.4,6.9,0.5,13.8,2.5,20.4l-158.1,99.4c-13.8-11.1-30.8-17.4-48.4-17.8c-42.2,0-76.5,34.3-76.5,76.5s34.3,76.5,76.5,76.5
		c17.7-0.5,34.7-6.7,48.4-17.8l158.1,99.4c-2.1,6.6-3,13.5-2.6,20.4c0,42.2,34.3,76.5,76.5,76.5s76.5-34.3,76.5-76.5
		S-397.5-1215-439.8-1215z"/>
</g>
</svg>
