<?xml version="1.0" encoding="utf-8"?>
<!-- Generator: Adobe Illustrator 18.1.1, SVG Export Plug-In . SVG Version: 6.00 Build 0)  -->
<svg version="1.1" id="Layer_1" xmlns="http://www.w3.org/2000/svg" xmlns:xlink="http://www.w3.org/1999/xlink" x="0px" y="0px"
	 width="612px" height="612px" viewBox="0 90 612 612" enable-background="new 0 90 612 612" xml:space="preserve">
<g transform="translate(950 1130)">
	<path d="M-644-479c-140.8,0-255-114.2-255-255s114.2-255,255-255v-51c-169,0-306,137-306,306s137,306,306,306s306-137,306-306h-51
		C-389.4-593.3-503.3-479.4-644-479z"/>
	<path d="M-644-912.5c-98-0.6-177.9,78.3-178.5,176.3c0,0.7,0,1.5,0,2.2h51c0-70.4,57.1-127.5,127.5-127.5s127.5,57.1,127.5,127.5
		S-573.6-606.5-644-606.5v51c98.6,0,178.5-79.9,178.5-178.5S-545.4-912.5-644-912.5z"/>
</g>
</svg>
