<?xml version="1.0" encoding="utf-8"?>
<!-- Generator: Adobe Illustrator 18.1.1, SVG Export Plug-In . SVG Version: 6.00 Build 0)  -->
<svg version="1.1" id="Layer_1" xmlns="http://www.w3.org/2000/svg" xmlns:xlink="http://www.w3.org/1999/xlink" x="0px" y="0px"
	 width="510.1px" height="408.1px" viewBox="50.9 192 510.1 408.1" enable-background="new 50.9 192 510.1 408.1"
	 xml:space="preserve">
<g transform="translate(980 1292)">
	<path d="M-431.8-1100h-484.5c-7,0-12.8,5.7-12.8,12.8v382.5c0,7,5.7,12.8,12.8,12.8h484.5c7,0,12.8-5.7,12.8-12.8v-382.5
		C-419-1094.3-424.7-1100-431.8-1100z M-704.3-850.8c1.8-1.8,3.9-3.7,6.2-5.8l16.8,20c-5.7,6.2-12.7,11.3-20.4,14.8
		c-20.5,8.8-44.2,6-62.1-7.3c-9.9-9.1-15.1-22.3-14.1-35.7V-930c-0.1-6.8,1.2-13.6,3.8-19.8c2.4-5.7,6-10.9,10.7-15
		c14.6-11.5,33.6-15.8,51.8-11.7c8.3,1.4,16.1,5.2,22.3,11c3.3,3.2,6.3,6.7,8.8,10.6l-18.1,17.7c-6.1-9.4-16.5-15.1-27.8-15.1
		c-6.2-0.4-12.3,1.7-16.9,5.8c-4.3,4.4-6.5,10.5-6.1,16.6v65.2C-749.5-840.6-719.9-835.9-704.3-850.8z M-590.2-850.8
		c1.8-1.8,3.9-3.7,6.2-5.8l16.8,20c-5.7,6.2-12.7,11.3-20.4,14.8c-20.5,8.8-44.2,6-62.1-7.3c-9.9-9.1-15.1-22.3-14.1-35.7V-930
		c-0.1-6.8,1.2-13.6,3.8-19.8c2.4-5.7,6-10.9,10.7-15c14.6-11.5,33.6-15.8,51.8-11.7c8.3,1.4,16.1,5.2,22.3,11
		c3.3,3.2,6.3,6.7,8.8,10.6l-18.1,17.7c-6.1-9.4-16.5-15.1-27.8-15.1c-6.2-0.4-12.3,1.7-16.9,5.8c-4.3,4.4-6.5,10.5-6.1,16.6v65.2
		C-635.4-840.6-605.8-835.9-590.2-850.8z"/>
</g>
</svg>
