<?xml version="1.0" encoding="utf-8"?>
<!-- Generator: Adobe Illustrator 18.1.1, SVG Export Plug-In . SVG Version: 6.00 Build 0)  -->
<svg version="1.1" id="Layer_1" xmlns="http://www.w3.org/2000/svg" xmlns:xlink="http://www.w3.org/1999/xlink" x="0px" y="0px"
	 width="519.8px" height="382.5px" viewBox="-430 1859 519.8 382.5" enable-background="new -430 1859 519.8 382.5"
	 xml:space="preserve">
<g transform="translate(-710 1563)">
	<path d="M460,678.5h-33.8c0.2-80.6-65.1-146.1-145.7-146.2c-0.2,0-0.4,0-0.6,0v-33.8C379.3,498.8,459.7,579.2,460,678.5z M280,566
		v33.8c43.3,0.5,78.2,35.5,78.8,78.8h33.8c0.6-61.5-48.8-111.9-110.3-112.5C281.5,566,280.7,566,280,566z M280,633.5v45h45
		C324.9,653.7,304.8,633.6,280,633.5z M786.2,296H313.8c-5.9-0.4-10.9,4.1-11.2,10c0,0.4,0,0.9,0,1.3v137.2c15.2,1.7,30.3,4.7,45,9
		V341h405v270H507.2c4.3,14.7,7.3,29.8,9,45h272.2c5.9,0.4,10.9-4.1,11.2-10c0-0.4,0-0.9,0-1.3V307.2
		C798.4,300.8,792.8,296.2,786.2,296z M392.5,386v85.5c40.3,21.2,73.3,54.2,94.5,94.5h220.5V386H392.5z"/>
</g>
</svg>
