<?xml version="1.0" encoding="utf-8"?>
<!-- Generator: Adobe Illustrator 18.1.1, SVG Export Plug-In . SVG Version: 6.00 Build 0)  -->
<svg version="1.1" id="Layer_1" xmlns="http://www.w3.org/2000/svg" xmlns:xlink="http://www.w3.org/1999/xlink" x="0px" y="0px"
	 width="589.1px" height="433.5px" viewBox="11.5 179.3 589.1 433.5" enable-background="new 11.5 179.3 589.1 433.5"
	 xml:space="preserve">
<g transform="translate(239 945)">
	<path d="M-23.5-332.2h-38.2c0.2-91.4-73.7-165.6-165.1-165.8c-0.2,0-0.4,0-0.7,0v-38.2C-115-535.9-23.9-444.8-23.5-332.2z
		 M-227.5-459.7v38.2c49,0.6,88.7,40.2,89.2,89.2h38.2c0.7-69.7-55.3-126.8-125-127.5C-225.9-459.7-226.7-459.7-227.5-459.7z
		 M-227.5-383.2v51h51C-176.6-360.4-199.4-383.2-227.5-383.2z M346.2-765.7h-535.5c-6.6-0.4-12.3,4.6-12.8,11.3c0,0.5,0,1,0,1.5
		v155.5c17.3,1.9,34.3,5.3,51,10.2v-127.5h459v306H30c4.9,16.7,8.3,33.7,10.2,51h308.6c6.6,0.4,12.3-4.6,12.8-11.3c0-0.5,0-1,0-1.5
		V-753C359.9-760.2,353.6-765.5,346.2-765.7z"/>
</g>
</svg>
