<?xml version="1.0" encoding="utf-8"?>
<!-- Generator: Adobe Illustrator 18.1.1, SVG Export Plug-In . SVG Version: 6.00 Build 0)  -->
<svg version="1.1" id="Layer_1" xmlns="http://www.w3.org/2000/svg" xmlns:xlink="http://www.w3.org/1999/xlink" x="0px" y="0px"
	 width="313.6px" height="313.6px" viewBox="149.2 239.2 313.6 313.6" enable-background="new 149.2 239.2 313.6 313.6"
	 xml:space="preserve">
<g transform="translate(157 1395)">
	<path d="M184.7-999L302-1116.3c4.9-4.7,5.1-12.5,0.4-17.4c-0.1-0.1-0.3-0.3-0.4-0.4l-17.9-17.8c-4.7-4.9-12.5-5.1-17.4-0.4
		c-0.1,0.1-0.3,0.3-0.4,0.4L149-1034.7L31.7-1152c-4.7-4.9-12.5-5.1-17.4-0.4c-0.1,0.1-0.3,0.3-0.4,0.4L-4-1134.2
		c-4.9,4.7-5.1,12.5-0.4,17.4c0.1,0.1,0.3,0.3,0.4,0.4L113.3-999L-4-881.7c-4.9,4.7-5.1,12.5-0.4,17.4c0.1,0.1,0.3,0.3,0.4,0.4
		L13.8-846c4.7,4.9,12.5,5.1,17.4,0.4c0.1-0.1,0.3-0.3,0.4-0.4L149-963.3L266.3-846c4.7,4.9,12.5,5.1,17.4,0.4
		c0.1-0.1,0.3-0.3,0.4-0.4l17.9-17.9c4.9-4.7,5.1-12.5,0.4-17.4c-0.1-0.1-0.3-0.3-0.4-0.4L184.7-999z"/>
</g>
</svg>
