<?xml version="1.0" encoding="utf-8"?>
<!-- Generator: Adobe Illustrator 21.1.0, SVG Export Plug-In . SVG Version: 6.00 Build 0)  -->
<svg version="1.1" id="Layer_1" xmlns="http://www.w3.org/2000/svg" xmlns:xlink="http://www.w3.org/1999/xlink" x="0px" y="0px"
	 width="24px" height="24px" viewBox="0 0 24 24" style="enable-background:new 0 0 24 24;" xml:space="preserve">
<style type="text/css">
	.st0{opacity:0.2;fill:#FFFFFF;enable-background:new    ;}
	.st1{fill:#FFFFFF;}
</style>
<path class="st0" d="M15.5,20h-2c-0.3,0-0.5-0.2-0.5-0.4c0,0,0,0,0-0.1v-11C13,8.2,13.2,8,13.4,8c0,0,0,0,0.1,0h2
	C15.8,8,16,8.2,16,8.4c0,0,0,0,0,0.1v11C16,19.8,15.8,20,15.5,20C15.5,20,15.5,20,15.5,20z M21,19.5v-15C21,4.2,20.8,4,20.6,4
	c0,0,0,0-0.1,0h-2C18.2,4,18,4.2,18,4.4c0,0,0,0,0,0.1v15c0,0.3,0.2,0.5,0.4,0.5c0,0,0,0,0.1,0h2C20.8,20,21,19.8,21,19.5
	C21,19.5,21,19.5,21,19.5z"/>
<path class="st1" d="M5.5,20h-2C3.2,20,3,19.8,3,19.6c0,0,0,0,0-0.1v-3C3,16.2,3.2,16,3.4,16c0,0,0,0,0.1,0h2C5.8,16,6,16.2,6,16.4
	c0,0,0,0,0,0.1v3C6,19.8,5.8,20,5.5,20C5.5,20,5.5,20,5.5,20z M16,19.5v-1c0-0.3-0.2-0.5-0.4-0.5c0,0,0,0-0.1,0h-2
	c-0.3,0-0.5,0.2-0.5,0.4c0,0,0,0,0,0.1v1c0,0.3,0.2,0.5,0.4,0.5c0,0,0,0,0.1,0h2C15.8,20,16,19.8,16,19.5C16,19.5,16,19.5,16,19.5z
	 M21,19.5v-1c0-0.3-0.2-0.5-0.4-0.5c0,0,0,0-0.1,0h-2c-0.3,0-0.5,0.2-0.5,0.4c0,0,0,0,0,0.1v1c0,0.3,0.2,0.5,0.4,0.5c0,0,0,0,0.1,0
	h2C20.8,20,21,19.8,21,19.5C21,19.5,21,19.5,21,19.5z M11,19.5v-7c0-0.3-0.2-0.5-0.4-0.5c0,0,0,0-0.1,0h-2C8.2,12,8,12.2,8,12.4
	c0,0,0,0,0,0.1v7C8,19.8,8.2,20,8.4,20c0,0,0,0,0.1,0h2C10.8,20,11,19.8,11,19.5C11,19.5,11,19.5,11,19.5z"/>
</svg>
