<?xml version="1.0" encoding="utf-8"?>
<!-- Generator: Adobe Illustrator 18.1.1, SVG Export Plug-In . SVG Version: 6.00 Build 0)  -->
<svg version="1.1" id="Layer_1" xmlns="http://www.w3.org/2000/svg" xmlns:xlink="http://www.w3.org/1999/xlink" x="0px" y="0px"
	 width="357.1px" height="357.1px" viewBox="127.4 217.5 357.1 357.1" enable-background="new 127.4 217.5 357.1 357.1"
	 xml:space="preserve">
<g transform="translate(887 1890)">
	<path d="M-402.5-1328.2c0.4,6.6-4.6,12.3-11.3,12.8c-0.5,0-1,0-1.5,0h-331.5c-6.6,0.4-12.3-4.6-12.8-11.3c0-0.5,0-1,0-1.5v-331.5
		c-0.4-6.6,4.6-12.3,11.3-12.8c0.5,0,1,0,1.5,0h331.5c6.6-0.4,12.3,4.6,12.8,11.3c0,0.5,0,1,0,1.5V-1328.2z"/>
</g>
</svg>
