<?xml version="1.0" encoding="utf-8"?>
<!-- Generator: Adobe Illustrator 18.1.1, SVG Export Plug-In . SVG Version: 6.00 Build 0)  -->
<svg version="1.1" id="Layer_1" xmlns="http://www.w3.org/2000/svg" xmlns:xlink="http://www.w3.org/1999/xlink" x="0px" y="0px"
	 width="275.4px" height="459.3px" viewBox="168.4 166.4 275.4 459.3" enable-background="new 168.4 166.4 275.4 459.3"
	 xml:space="preserve">
<g transform="translate(950 1130)">
	<path d="M-508.9-532.6c-23.4,19.8-53.5,29.9-84.1,28h-2.5c-107.1,0-132.6-79-132.6-125v-130h-43.3c-5.5-0.4-9.8-4.7-10.2-10.2l0,0
		v-58.6c1.2-6.3,4.9-11.8,10.2-15.3c44.4-16,74.7-57.4,76.5-104.5c-1.1-7.4,4.1-14.2,11.5-15.3c1.3-0.2,2.6-0.2,3.8,0h63.8
		c5.5,0.4,9.8,4.7,10.2,10.2v102h74c4.6,0.2,8.7,3.3,10.2,7.6v74c-0.4,5.5-4.7,9.8-10.2,10.2h-74v119.8c-2.7,18.3,10,35.2,28.3,37.9
		c1.6,0.2,3.3,0.4,4.9,0.3c9.5-1,18.8-2.7,28-5.1c3.1-1.8,6.6-2.7,10.2-2.5c2.6,0,5.1,2.5,7.6,7.6l20.4,58.6
		C-508.9-540.2-506.3-537.7-508.9-532.6z"/>
</g>
</svg>
