<?xml version="1.0" encoding="utf-8"?>
<!-- Generator: Adobe Illustrator 18.1.1, SVG Export Plug-In . SVG Version: 6.00 Build 0)  -->
<svg version="1.1" id="Layer_1" xmlns="http://www.w3.org/2000/svg" xmlns:xlink="http://www.w3.org/1999/xlink" x="0px" y="0px"
	 width="477px" height="396.2px" viewBox="67.5 197.9 477 396.2" enable-background="new 67.5 197.9 477 396.2"
	 xml:space="preserve">
<g transform="translate(887 1890)">
	<path d="M-590-1685.2v382.5c0,7-4.3,9-9.5,4.3l-133.9-119h-73.3c-7,0-12.8-5.7-12.8-12.8v-127.5c0-7,5.7-12.8,12.8-12.8h73.3
		l133.9-119C-594.3-1694.2-590-1692.3-590-1685.2z M-342.5-1552.5l-36.1-36.1l-58.5,58.5l-58.5-58.5l-36.1,36.1l58.5,58.5
		l-58.5,58.5l36.1,36.1l58.5-58.5l58.5,58.5l36.1-36.1L-401-1494L-342.5-1552.5z"/>
</g>
</svg>
