<?xml version="1.0" encoding="utf-8"?>
<!-- Generator: Adobe Illustrator 18.1.1, SVG Export Plug-In . SVG Version: 6.00 Build 0)  -->
<svg version="1.1" id="Layer_1" xmlns="http://www.w3.org/2000/svg" xmlns:xlink="http://www.w3.org/1999/xlink" x="0px" y="0px"
	 width="382.5px" height="396.2px" viewBox="114.7 197.9 382.5 396.2" enable-background="new 114.7 197.9 382.5 396.2"
	 xml:space="preserve">
<g transform="translate(950 1130)">
	<path d="M-605.8-925.2v382.5c0,7-4.3,9-9.5,4.3l-133.9-119h-73.3c-7,0-12.8-5.7-12.8-12.8v-127.5c0-7,5.7-12.8,12.8-12.8h73.3
		l133.9-119C-610-934.2-605.8-932.3-605.8-925.2z M-452.8-734c0-56.3-45.7-102-102-102v51c28.2,0,51,22.8,51,51s-22.8,51-51,51v51
		C-498.4-632-452.8-677.7-452.8-734z"/>
</g>
</svg>
