<svg xmlns="http://www.w3.org/2000/svg" id="ds-sprites-player" style="display:none">
	<symbol viewBox="0 0 240 240" id="ds-icon-player-airplay-off"><path d="M210 55v100h-50l20 20h45c2.6.2 4.8-1.8 5-4.4V40c.2-2.6-1.8-4.8-4.4-5H15c-2.6-.2-4.8 1.8-5 4.4V170c-.2 2.6 1.8 4.8 4.4 5H60l20-20H30V55h180M60 205l60-70 60 70H60z"/></symbol>
	<symbol viewBox="0 0 240 240" id="ds-icon-player-airplay-on"><path d="M229.9 40v130c.2 2.6-1.8 4.8-4.4 5h-44.6l-17-20h46V55H30v100h47l-17 20H15c-2.6.2-4.8-1.8-5-4.4V40c-.2-2.6 1.8-4.8 4.4-5h210.4c2.6-.2 4.8 1.8 5 4.4.1.3.1.5.1.6zm-125 82 15-18 15 18 11 13h44V75H50v60h44l10.9-13zm75 83-60-70-60 70h120z"/></symbol>
	<symbol viewBox="0 0 240 240" id="ds-icon-player-arrow-down"><path d="M105.398 185.598c1.1 1.1 2.3 2.2 3.6 3.1 9.9 6.9 23.5 4.4 30.4-5.5l101.6-101.9-33.9-33.9-84.9 84.9-84.9-84.9-36.3 36.3 104.4 101.9z"/></symbol>
	<symbol viewBox="0 0 240 240" id="ds-icon-player-arrow-left"><path d="M55.4 104.4c-1.1 1.1-2.2 2.3-3.1 3.6-6.9 9.9-4.4 23.5 5.5 30.4L159.7 240l33.9-33.9-84.9-84.9 84.9-84.9L157.3 0 55.4 104.4z"/></symbol>
	<symbol viewBox="0 0 240 240" id="ds-icon-player-arrow-right"><path d="M183.6 104.4 81.8 0 45.4 36.3l84.9 84.9-84.9 84.9L79.3 240l101.9-101.7c9.9-6.9 12.4-20.4 5.5-30.4-.9-1.2-1.9-2.5-3.1-3.5z"/></symbol>
	<symbol viewBox="0 0 240 240" id="ds-icon-player-audio-tracks"><path d="M35 34h160v20H35V34zm0 60h160V74H35v20zm0 40h60v-20H35v20zm125-20c-23.4-1.3-43.6 16.5-45 40v50h20c5.2.3 9.7-3.6 10-8.9V174c.3-5.2-3.6-9.7-8.9-10H125v-10c1.5-17.9 17.1-31.3 35-30 17.9-1.3 33.6 12.1 35 30v10h-10c-5.2-.3-9.7 3.6-10 8.9V194c-.3 5.2 3.6 9.7 8.9 10H205v-50c-1.5-23.4-21.6-41.3-45-40z"/></symbol>
	<symbol viewBox="0 0 240 240" id="ds-icon-player-buffer"><path d="M120 186.667a66.667 66.667 0 0 1 0-133.333V40a80 80 0 1 0 80 80h-13.333A66.846 66.846 0 0 1 120 186.667Z"/></symbol>
	<symbol viewBox="0 0 240 240" id="ds-icon-player-captions-off"><path d="M99.4 97.8c-2.4-.2-4.8.7-6.6 2.3-1.7 1.7-2.5 4.1-2.4 6.5v25.6c0 9.6 11.6 11.4 17.7 5.5.7-.7 1.5-1.5 2.4-2.3l6.6 7.8c-2.2 2.4-5 4.4-8 5.8-8 3.5-17.3 2.4-24.3-2.9-3.9-3.6-5.9-8.7-5.5-14v-25.6c0-2.7.5-5.3 1.5-7.8.9-2.2 2.4-4.3 4.2-5.9 5.7-4.5 13.2-6.2 20.3-4.6 3.3.5 6.3 2 8.7 4.3 1.3 1.3 2.5 2.6 3.5 4.2l-7.1 6.9c-2.5-3.6-6.6-5.8-11-5.8zm44.7 0c-2.4-.2-4.8.7-6.6 2.3-1.7 1.7-2.5 4.1-2.4 6.5v25.6c0 9.6 11.6 11.4 17.7 5.5.7-.7 1.5-1.5 2.4-2.3l6.6 7.8c-2.2 2.4-5 4.4-8 5.8-8 3.5-17.3 2.4-24.3-2.9-3.9-3.6-5.9-8.7-5.5-14v-25.6c0-2.7.5-5.3 1.5-7.8.9-2.2 2.4-4.3 4.2-5.9 5.7-4.5 13.2-6.2 20.3-4.6 3.3.5 6.3 2 8.7 4.3 1.3 1.3 2.5 2.6 3.5 4.2l-7.1 6.9c-2.5-3.6-6.6-5.8-11-5.8zM200 60v120H40V60h160m15-20H25c-2.7 0-5 2.2-5 5v150c0 2.7 2.2 5 5 5h190c2.7 0 5-2.2 5-5V45c0-2.8-2.2-5-5-5z"/></symbol>
	<symbol viewBox="0 0 240 240" id="ds-icon-player-captions-on"><path d="M215 40H25c-2.7 0-5 2.2-5 5v150c0 2.7 2.2 5 5 5h190c2.7 0 5-2.2 5-5V45c0-2.8-2.2-5-5-5zm-106.9 97.7c.7-.7 1.5-1.5 2.4-2.3l6.6 7.8c-2.2 2.4-5 4.4-8 5.8-8 3.5-17.3 2.4-24.3-2.9-3.9-3.6-5.9-8.7-5.5-14v-25.6c0-2.7.5-5.3 1.5-7.8.9-2.2 2.4-4.3 4.2-5.9 5.7-4.5 13.2-6.2 20.3-4.6 3.3.5 6.3 2 8.7 4.3 1.3 1.3 2.5 2.6 3.5 4.2l-7.1 6.9c-2.4-3.7-6.5-5.9-10.9-5.9-2.4-.2-4.8.7-6.6 2.3-1.7 1.7-2.5 4.1-2.4 6.5v25.6c-.1 9.6 11.5 11.4 17.6 5.6zm44.8 0c.7-.7 1.5-1.5 2.4-2.3l6.6 7.8c-2.2 2.4-5 4.4-8 5.8-8 3.5-17.3 2.4-24.3-2.9-3.9-3.6-5.9-8.7-5.5-14v-25.6c0-2.7.5-5.3 1.5-7.8.9-2.2 2.4-4.3 4.2-5.9 5.7-4.5 13.2-6.2 20.3-4.6 3.3.5 6.3 2 8.7 4.3 1.3 1.3 2.5 2.6 3.5 4.2l-7.1 6.9c-2.4-3.7-6.5-5.9-10.9-5.9-2.4-.2-4.8.7-6.6 2.3-1.7 1.7-2.5 4.1-2.4 6.5v25.6c-.1 9.6 11.5 11.4 17.6 5.6z"/></symbol>
	<symbol viewBox="0 0 240 240" id="ds-icon-player-close"><path d="M176 56.6a5.164 5.164 0 0 0-7.2-.2L120 105.2 71.4 56.6a5.164 5.164 0 0 0-7.2-.2L56.6 64a5.164 5.164 0 0 0-.2 7.2l48.8 48.9-48.6 48.6a5.164 5.164 0 0 0-.2 7.2l7.6 7.6a5.164 5.164 0 0 0 7.2.2l48.9-48.8 48.6 48.6a5.164 5.164 0 0 0 7.2.2l7.6-7.6a5.164 5.164 0 0 0 .2-7.2L134.8 120l48.6-48.6a5.164 5.164 0 0 0 .2-7.2"/></symbol>
	<symbol viewBox="0 0 160 160" id="ds-icon-player-email"><path d="M147.3 27.9H11.9L10 29.8v97a3.02 3.02 0 0 0 2.8 3.2h133.8a3.02 3.02 0 0 0 3.2-2.8V31c.7-1.8-.6-3.1-2.5-3.1Zm-21.7 12.8L80.3 77.1 35 40.7Zm12.1 76.6H22.8V47.7l57.5 46 57.5-46-.1 69.6Z"/></symbol>
	<symbol viewBox="0 0 160 160" id="ds-icon-player-embed"><path d="m153.224 81.594-26.253-26.909-9.371 9.376 21.846 21.846-21.846 21.845 8.719 8.719 26.248-26.251a5.583 5.583 0 0 0 1.406-7.782 6.067 6.067 0 0 0-.75-.844ZM33.12 54.685 6.868 80.938a5.973 5.973 0 0 0-.188 8.532l.188.188 26.252 27.47 9.376-9.376-22.5-21.846L42.5 64.061ZM53.747 134.1l40.69-112.6 11.908 4.4-40.691 112.6Z"/></symbol>
	<symbol viewBox="0 0 160 160" id="ds-icon-player-facebook"><path d="M137.8 15H22.1a7.127 7.127 0 0 0-7.1 7.1v115.7a7.28 7.28 0 0 0 7.1 7.2h62.4V95H67.6V75.5h16.9v-15a23.637 23.637 0 0 1 21.3-25.9 28.08 28.08 0 0 1 4.1-.1c7.2 0 13.7.6 14.9.6v17.6h-10.4c-8.5 0-9.7 3.9-9.7 9.7v12.3h19.5l-2.6 19.5h-16.9v50.7h33.1a7.3 7.3 0 0 0 7.2-7.2V22a7.13 7.13 0 0 0-7.2-7Z"/></symbol>
	<symbol viewBox="0 0 240 240" id="ds-icon-player-fullscreen-not"><path d="m109.2 134.9-8.4 50.1c-.4 2.7-2.4 3.3-4.4 1.4L82 172l-27.9 27.9-14.2-14.2 27.9-27.9-14.4-14.4c-1.9-1.9-1.3-3.9 1.4-4.4l50.1-8.4c1.8-.5 3.6.6 4.1 2.4.4.7.4 1.3.2 1.9zm62.9-52.8L200 54.2 185.8 40l-27.9 27.9-14.4-14.4c-1.9-1.9-3.9-1.3-4.4 1.4l-8.4 50.1c-.5 1.8.6 3.6 2.4 4.1.5.2 1.2.2 1.7 0l50.1-8.4c2.7-.4 3.3-2.4 1.4-4.4l-14.2-14.2z"/></symbol>
	<symbol viewBox="0 0 240 240" id="ds-icon-player-fullscreen"><path d="M96.3 186.1c1.9 1.9 1.3 4-1.4 4.4l-50.6 8.4c-1.8.5-3.7-.6-4.2-2.4-.2-.6-.2-1.2 0-1.7l8.4-50.6c.4-2.7 2.4-3.4 4.4-1.4l14.5 14.5 28.2-28.2 14.3 14.3-28.2 28.2 14.6 14.5zm99.5-147-50.6 8.4c-2.7.4-3.4 2.4-1.4 4.4l14.5 14.5-28.2 28.2 14.3 14.3 28.2-28.2 14.5 14.5c1.9 1.9 4 1.3 4.4-1.4l8.4-50.6c.5-1.8-.6-3.6-2.4-4.2-.5 0-1.1 0-1.7.1z"/></symbol>
	<symbol viewBox="0 0 160 160" id="ds-icon-player-google"><path d="M145.8 67.8H83.1v25.5h36.6a30.5 30.5 0 0 1-13.1 20.2 56.7 56.7 0 0 1-14.4 5.9 58.951 58.951 0 0 1-15.7 0 42.79 42.79 0 0 1-15-6.5 38.861 38.861 0 0 1-15-20.2 42.658 42.658 0 0 1 0-25.5 40.873 40.873 0 0 1 9.8-15.7 38.276 38.276 0 0 1 39.2-9.8 32.516 32.516 0 0 1 14.4 8.5c3.9-3.9 8.5-7.8 12.4-11.8a66.468 66.468 0 0 0 6.5-6.5 73.511 73.511 0 0 0-21.6-13.1 70.341 70.341 0 0 0-45.1-.6 64.526 64.526 0 0 0-37.9 32.7 62.475 62.475 0 0 0 0 58.8 63.293 63.293 0 0 0 18.3 21.5A60.151 60.151 0 0 0 66.7 143a76.5 76.5 0 0 0 34 .7 61.272 61.272 0 0 0 27.4-13.7 63.793 63.793 0 0 0 17-27.4 99.333 99.333 0 0 0 .7-34.8Z"/></symbol>
	<symbol viewBox="0 0 992 1024" id="ds-icon-player-jw-logo"><path d="M144 518.4c0 6.4-6.4 6.4-6.4 0l-3.2-12.8-12.8-38.4c0-6.4-6.4-12.8-9.6-22.4-6.4-6.4-16-9.6-28.8-6.4-9.6 3.2-16 12.8-16 22.4v25.6c3.2 25.6 22.4 121.6 32 140.8 9.6 22.4 35.2 32 54.4 22.4 22.4-9.6 28.8-35.2 38.4-54.4 9.6-25.6 60.8-166.4 60.8-166.4 6.4-12.8 9.6-12.8 9.6 0 0 0 0 140.8-3.2 204.8 0 25.6 0 67.2 9.6 89.6 6.4 16 12.8 28.8 25.6 38.4s28.8 12.8 44.8 12.8c6.4 0 16-3.2 22.4-6.4 9.6-6.4 16-12.8 25.6-22.4 16-19.2 28.8-44.8 38.4-64 25.6-51.2 89.6-201.6 89.6-201.6 6.4-12.8 9.6-12.8 9.6 0 0 0-9.6 256-9.6 355.2 0 25.6 6.4 48 12.8 70.4 9.6 22.4 22.4 38.4 44.8 48s48 9.6 70.4-3.2c16-9.6 28.8-25.6 38.4-38.4 12.8-22.4 25.6-48 32-70.4 19.2-51.2 35.2-102.4 51.2-153.6S918.4 147.2 928 105.6V92.8c0-9.6-6.4-19.2-16-22.4-16-6.4-32 0-38.4 12.8-6.4 16-195.2 470.4-195.2 470.4-6.4 12.8-9.6 12.8-9.6 0v-288c0-70.4-35.2-108.8-83.2-118.4-22.4-3.2-44.8 0-67.2 12.8s-35.2 32-48 54.4C454.4 243.2 364.8 512 364.8 512c-6.4 12.8-9.6 12.8-9.6 0 0 0-3.2-115.2-6.4-144-3.2-41.6-12.8-108.8-67.2-115.2-51.2-3.2-73.6 57.6-86.4 99.2-9.6 25.6-51.2 163.2-51.2 163.2v3.2z"/></symbol>
	<symbol viewBox="0 0 160 160" id="ds-icon-player-link"><path d="M79.4 99.6h13.1v2a33.6 33.6 0 0 1-9.8 24.2l-9.8 9.8a34.716 34.716 0 0 1-48.4 0 34.716 34.716 0 0 1 0-48.4l9.2-10.5a33.6 33.6 0 0 1 24.2-9.8h1.9V80h-1.3a19.359 19.359 0 0 0-15.1 6.5l-9.8 9.8a20.976 20.976 0 0 0-.5 29.6l.5.5a20.976 20.976 0 0 0 29.6.5l.5-.5 9.8-9.8a20.905 20.905 0 0 0 6.5-15v-2ZM135 24.4a34.716 34.716 0 0 0-48.4 0l-10.5 9.8a33.6 33.6 0 0 0-9.8 24.2v2h13.1v-2a19.359 19.359 0 0 1 6.5-15.1l9.8-9.8a20.976 20.976 0 0 1 29.6-.5l.5.5a20.976 20.976 0 0 1 .5 29.6l-.5.5-10.5 9.8a20.905 20.905 0 0 1-15 6.5H99V93h1.3a33.6 33.6 0 0 0 24.2-9.8l9.8-9.8a34.89 34.89 0 0 0 .7-49Zm-72 81.8 42.5-42.5-9.8-9.8-42.5 42.5Z"/></symbol>
	<symbol viewBox="0 0 160 160" id="ds-icon-player-linked-in"><path d="M135.237 15.006H24.739A9.427 9.427 0 0 0 15 24.107v111.149a9.553 9.553 0 0 0 9.365 9.737h110.9a9.427 9.427 0 0 0 9.737-9.1V24.081a9.461 9.461 0 0 0-9.765-9.075Zm-81.9 110.512H34.476V63.774h19.5v61.744ZM43.576 55.31a10.994 10.994 0 0 1-11.063-10.86v-.2a11.05 11.05 0 0 1 22.1 0A10.537 10.537 0 0 1 44.6 55.283h-.051a4.07 4.07 0 0 1-.973.027Zm81.9 70.208h-19.5v-29.9c0-7.164 0-16.265-9.737-16.265s-11.7 7.8-11.7 16.265v29.9h-19.5V63.774h18.2v8.464a19.766 19.766 0 0 1 18.2-9.738c19.5 0 23.4 13 23.4 29.266v33.8h.637Z"/></symbol>
	<symbol viewBox="0 0 240 240" id="ds-icon-player-more-videos"><path d="M0 30h60v75H0V30zm0 105h60v75H0v-75zm90 0h60v75H90v-75zm90 0h60v75h-60v-75zM90 30h60v75H90V30zm90 0h60v75h-60V30z"/></symbol>
	<symbol viewBox="0 0 240 240" id="ds-icon-player-next"><path d="M165 60v53.3L59.2 42.8c-2.3-1.5-4.2-.5-4.2 2.2v150c0 2.7 1.9 3.8 4.2 2.2L165 126.6v53.3h20v-120l-20 .1z"/></symbol>
	<symbol viewBox="0 0 240 240" id="ds-icon-player-pause"><path d="M100 194.9c.2 2.6-1.8 4.8-4.4 5H65c-2.6.2-4.8-1.8-5-4.4V45c-.2-2.6 1.8-4.8 4.4-5H95c2.6-.2 4.8 1.8 5 4.4v150.5zm80-149.8c.2-2.6-1.8-4.8-4.4-5H145c-2.6-.2-4.8 1.8-5 4.4V195c-.2 2.6 1.8 4.8 4.4 5H175c2.6.2 4.8-1.8 5-4.4V45.1z"/></symbol>
	<symbol viewBox="0 0 160 160" id="ds-icon-player-pinterest"><path d="M80 15a65.127 65.127 0 0 0-65 65 66.121 66.121 0 0 0 39 59.8 62.151 62.151 0 0 1 1.3-14.9c1.3-5.2 8.5-35.1 8.5-35.1a26.386 26.386 0 0 1-2-10.4c0-9.7 5.9-16.9 12.4-16.9 5.9 0 8.5 4.5 8.5 9.7a128.456 128.456 0 0 1-5.9 22.7 9.646 9.646 0 0 0 6.6 12 8.105 8.105 0 0 0 3.8.3c12.4 0 20.8-15.6 20.8-34.4 0-14.3-9.7-24.7-27.3-24.7a30.869 30.869 0 0 0-31.8 30v1.2a19.8 19.8 0 0 0 4.5 13 2.586 2.586 0 0 1 .6 3.3c0 1.3-1.3 3.9-1.3 5.2-.6 2-2 2-3.3 2-9.1-3.9-13-13.6-13-24.7 0-18.2 15.6-40.3 46.1-40.3a38.763 38.763 0 0 1 40.9 36.7v.4c0 25.4-14.3 44.9-35.1 44.9a18.163 18.163 0 0 1-15.6-7.8s-3.9 14.9-4.5 17.6a46.615 46.615 0 0 1-6.5 13.7 79.828 79.828 0 0 0 18.2 1.9A65.1 65.1 0 0 0 80 15Z"/></symbol>
	<symbol viewBox="0 0 240 240" id="ds-icon-player-play"><path d="M62.8 199.5c-1 .8-2.4.6-3.3-.4-.4-.5-.6-1.1-.5-1.8V42.6c-.2-1.3.7-2.4 1.9-2.6.7-.1 1.3.1 1.9.4l154.7 77.7c2.1 1.1 2.1 2.8 0 3.8L62.8 199.5z"/></symbol>
	<symbol viewBox="0 0 36 36" id="ds-icon-player-playback-error"><path d="M34.6 20.2 10 33.2 27.6 16l7 3.7a.4.4 0 0 1 .2.5.4.4 0 0 1-.2.2zM33.3 0 21 12.2 9 6c-.2-.3-.6 0-.6.5V25L0 33.6 2.5 36 36 2.7z"/></symbol>
	<symbol viewBox="0 0 240 240" id="ds-icon-player-playback-rate"><path d="M158.83 48.83A71.17 71.17 0 1 0 230 120a71.163 71.163 0 0 0-71.17-71.17Zm45.293 77.632H152.34V74.708h12.952v38.83h38.83ZM35.878 74.708h38.83V87.66h-38.83ZM10 113.538h51.755v12.952H10Zm25.878 38.83h38.83v12.952h-38.83Z"/></symbol>
	<symbol viewBox="0 0 240 240" id="ds-icon-player-quality-100"><path d="M55 200H35c-3 0-5-2-5-4v-31c0-3 2-5 4-5h21c3 0 5 2 5 4v31c0 3-2 5-5 5zm55-5v-70c0-3-2-5-4-5H85c-3 0-5 2-5 4v71c0 3 2 5 4 5h21c3 0 5-2 5-5zm50 0V85c0-3-2-5-4-5h-21c-3 0-5 2-5 4v111c0 3 2 5 4 5h21c3 0 5-2 5-5zm50 0V45c0-3-2-5-4-5h-21c-3 0-5 2-5 4v151c0 3 2 5 4 5h21c3 0 5-2 5-5z"/></symbol>
	<symbol viewBox="0 0 160 160" id="ds-icon-player-reddit"><path d="M136.7 60.7a18.265 18.265 0 0 0-11.6 4.1 83.108 83.108 0 0 0-40-11.5l8.1-25.1 21.1 4.7a14.927 14.927 0 1 0 14.9-16.2 15.418 15.418 0 0 0-13.6 8.1l-25.1-6.1a3.75 3.75 0 0 0-4.7 2.7L77 52.6a93.15 93.15 0 0 0-42.8 11.5A19.471 19.471 0 0 0 23.3 60 19.137 19.137 0 0 0 5 78.3a19.777 19.777 0 0 0 7.5 14.9v4.1a38.88 38.88 0 0 0 20.4 31.9 85.678 85.678 0 0 0 46.8 12.2 93.7 93.7 0 0 0 46.8-12.2 38.741 38.741 0 0 0 20.4-31.9v-4.1a18.324 18.324 0 0 0 8.1-14.9 18.952 18.952 0 0 0-18.3-17.6Zm-7.5-35.3a6.459 6.459 0 0 1 6.8 6v.8a6.744 6.744 0 0 1-6.8 6.8 6.459 6.459 0 0 1-6.8-6v-.8a7.312 7.312 0 0 1 6.8-6.8ZM47.1 89.2a10.2 10.2 0 1 1 10.2 10.2 10.514 10.514 0 0 1-10.2-10.2Zm57 29.8a31.975 31.975 0 0 1-24.4 7.5 34.711 34.711 0 0 1-24.4-7.5 3.821 3.821 0 1 1 5.2-5.6l.2.2a26.476 26.476 0 0 0 19 5.4 28.644 28.644 0 0 0 19-5.4 4 4 0 0 1 5.4 0c2 1.3 2 3.4 0 5.4Zm-2-19.7a10.2 10.2 0 1 1 10.2-10.2 10.514 10.514 0 0 1-10.2 10.2Z"/></symbol>
	<symbol viewBox="0 0 240 240" id="ds-icon-player-replay"><path d="M120 41.9v-20c0-5-4-8-8-4l-44 28a5.865 5.865 0 0 0-3.3 7.6 5.943 5.943 0 0 0 3.3 3.3l43 29c5 4 9 1 9-4v-20a60 60 0 1 1-60 60H40a80 80 0 1 0 80-79.9Z"/></symbol>
	<symbol viewBox="0 0 240 240" id="ds-icon-player-rewind-10"><path d="M113.2 131.078a21.589 21.589 0 0 0-17.7-10.6 21.589 21.589 0 0 0-17.7 10.6 44.769 44.769 0 0 0 0 46.3 21.589 21.589 0 0 0 17.7 10.6 21.589 21.589 0 0 0 17.7-10.6 44.769 44.769 0 0 0 0-46.3Zm-17.7 47.2c-7.8 0-14.4-11-14.4-24.1s6.6-24.1 14.4-24.1 14.4 11 14.4 24.1-6.5 24.1-14.4 24.1Zm-43.4 9.7v-51l-4.8 4.8-6.8-6.8 13-13a4.8 4.8 0 0 1 8.2 3.4v62.7l-9.6-.1Zm162-130.2v125.3a4.867 4.867 0 0 1-4.8 4.8h-62.7v-19.3h48.2v-96.4H79.1v19.3c0 5.3-3.6 7.2-8 4.3l-41.8-27.9a6.013 6.013 0 0 1-2.7-8 5.887 5.887 0 0 1 2.7-2.7l41.8-27.9c4.4-2.9 8-1 8 4.3v19.3h130.1a4.974 4.974 0 0 1 4.9 4.9Z"/></symbol>
	<symbol viewBox="0 0 240 240" id="ds-icon-player-settings"><path d="m204 145-25-14c.8-3.6 1.2-7.3 1-11 .2-3.7-.2-7.4-1-11l25-14c2.2-1.6 3.1-4.5 2-7l-16-26c-1.2-2.1-3.8-2.9-6-2l-25 14c-6-4.2-12.3-7.9-19-11V35c.2-2.6-1.8-4.8-4.4-5H105c-2.6-.2-4.8 1.8-5 4.4V63c-6.7 3.1-13 6.7-19 11L56 60c-2.2-.9-4.8-.1-6 2L35 88c-1.6 2.2-1.3 5.3.9 6.9 0 0 .1 0 .1.1l25 14c-.8 3.6-1.2 7.3-1 11-.2 3.7.2 7.4 1 11l-25 14c-2.2 1.6-3.1 4.5-2 7l16 26c1.2 2.1 3.8 2.9 6 2l25-14c5.7 4.6 12.2 8.3 19 11v28c-.2 2.6 1.8 4.8 4.4 5H135c2.6.2 4.8-1.8 5-4.4V177c7-2.3 13.5-6 19-11l25 14c2.5 1.3 5.6.4 7-2l15-26c.7-2.6 0-5.3-2-7zm-84 4.9c-16.5 0-30-13.4-30-30s13.4-30 30-30 30 13.4 30 30c.3 16.3-12.6 29.7-28.9 30H120z"/></symbol>
	<symbol viewBox="0 0 240 240" id="ds-icon-player-share"><path d="M175 160c-6.9.2-13.6 2.6-19 7l-62-39c.8-2.6 1.2-5.3 1-8 .2-2.7-.2-5.4-1-8l62-39c5.4 4.4 12.1 6.8 19 7 16.3.3 29.7-12.6 30-28.9V50c0-16.5-13.5-30-30-30s-30 13.5-30 30c-.2 2.7.2 5.4 1 8L84 97c-5.4-4.4-12.1-6.8-19-7-16.5 0-30 13.5-30 30s13.5 30 30 30c6.9-.2 13.6-2.6 19-7l62 39c-.8 2.6-1.2 5.3-1 8 0 16.5 13.5 30 30 30s30-13.5 30-30-13.4-30-30-30z"/></symbol>
	<symbol viewBox="0 0 240 240" id="ds-icon-player-stop"><path d="M190 185c.2 2.6-1.8 4.8-4.4 5H55c-2.6.2-4.8-1.8-5-4.4V55c-.2-2.6 1.8-4.8 4.4-5H185c2.6-.2 4.8 1.8 5 4.4V185z"/></symbol>
	<symbol viewBox="0 0 160 160" id="ds-icon-player-tumblr"><path d="M115.3 131.6a30.935 30.935 0 0 1-22 7.3h-.7c-28 0-34.6-20.6-34.6-32.7v-34H46.7a2.9 2.9 0 0 1-2.7-2.7V54.2a6.2 6.2 0 0 1 2.7-4 30.359 30.359 0 0 0 20-27.3 3.574 3.574 0 0 1 3-4 1.7 1.7 0 0 1 1 0h16.7a2.9 2.9 0 0 1 2.7 2.7v26.7h19.3a3.18 3.18 0 0 1 2.7 2v19.3a2.9 2.9 0 0 1-2.7 2.7H90v31.3a8.709 8.709 0 0 0 7.4 9.9 5.7 5.7 0 0 0 1.3.1 58.63 58.63 0 0 0 7.3-1.3 4.953 4.953 0 0 1 2.7-.7c.7 0 1.3.7 2 2l5.3 15.3c-.7.7 0 1.4-.7 2.7Z"/></symbol>
	<symbol viewBox="0 0 160 160" id="ds-icon-player-twitter"><path d="M56.8 132.5a75.177 75.177 0 0 0 75.3-75.1V54A53.405 53.405 0 0 0 145 40.5a58.075 58.075 0 0 1-15.4 3.9 27.138 27.138 0 0 0 11.6-14.8 53.038 53.038 0 0 1-16.7 6.4 25.736 25.736 0 0 0-19.3-8.4 26.12 26.12 0 0 0-26.4 25.8v.6a16.5 16.5 0 0 0 .7 5.8 71.966 71.966 0 0 1-54.1-27 23.9 23.9 0 0 0-3.9 13.5 26.043 26.043 0 0 0 11.6 21.9A27.018 27.018 0 0 1 20.9 65v.7a26.15 26.15 0 0 0 21.2 25.7 24.149 24.149 0 0 1-7.1.7 12.625 12.625 0 0 1-5.1-.7 25.657 25.657 0 0 0 24.5 18A53.519 53.519 0 0 1 21.6 121a19.683 19.683 0 0 1-6.4-.7 80.388 80.388 0 0 0 41.6 12.2"/></symbol>
	<symbol viewBox="0 0 240 240" id="ds-icon-player-volume-0"><path d="M116.4 42.8v154.5c0 2.8-1.7 3.6-3.8 1.7l-54.1-48.1H28.9c-2.8 0-5.2-2.3-5.2-5.2V94.2c0-2.8 2.3-5.2 5.2-5.2h29.6l54.1-48.1c2-1.8 3.8-1 3.8 1.9zm95.9 53.6-14.6-14.6-23.6 23.6-23.6-23.6-14.6 14.6 23.6 23.6-23.6 23.6 14.6 14.6 23.6-23.6 23.6 23.6 14.6-14.6-23.6-23.6 23.6-23.6z"/></symbol>
	<symbol viewBox="0 0 240 240" id="ds-icon-player-volume-50"><path d="M116.4 42.8v154.5c0 2.8-1.7 3.6-3.8 1.7l-54.1-48.1H28.9c-2.8 0-5.2-2.3-5.2-5.2V94.2c0-2.8 2.3-5.2 5.2-5.2h29.6l54.1-48.1c2.1-1.8 3.8-1 3.8 1.9zm61.8 77.2c0-22.7-18.5-41.2-41.2-41.2v20.6c11.4 0 20.6 9.2 20.6 20.6 0 11.4-9.2 20.6-20.6 20.6v20.6c22.8 0 41.2-18.5 41.2-41.2z"/></symbol>
	<symbol viewBox="0 0 240 240" id="ds-icon-player-volume-100"><path d="M116.5 42.8v154.4c0 2.8-1.7 3.6-3.8 1.7l-54.1-48H29c-2.8 0-5.2-2.3-5.2-5.2V94.3c0-2.8 2.3-5.2 5.2-5.2h29.6l54.1-48c2.1-1.9 3.8-1.2 3.8 1.7zM136.2 160v-20c11.1 0 20-8.9 20-20s-8.9-20-20-20V80c22.1 0 40 17.9 40 40s-17.9 40-40 40z"/><path d="M216.2 120c0-44.2-35.8-80-80-80v20c33.1 0 60 26.9 60 60s-26.9 60-60 60v20c44.2-.1 79.9-35.9 80-80z"/></symbol>
</svg>