<svg xmlns="http://www.w3.org/2000/svg" id="ds-sprites-dashboard" style="display:none">
	<symbol viewBox="0 0 24 24" id="ds-icon-dashboard-add"><path d="M20 10h-6V4a2 2 0 0 0-4 0v6H4a2 2 0 0 0 0 4h6v6a2 2 0 0 0 4 0v-6h6a2 2 0 0 0 0-4Z"/></symbol>
	<symbol viewBox="0 0 24 24" id="ds-icon-dashboard-airplay"><path d="M20 3.51H4a2 2 0 0 0-2 2v9.33a2 2 0 0 0 2 2h2.05l3.74-4.08a3 3 0 0 1 4.42 0L18 16.84h2a2 2 0 0 0 2-2V5.51a2 2 0 0 0-2-2Z"/><path d="m17.31 18.82-2.08-2.26-2.5-2.73a1 1 0 0 0-1.46 0l-2.5 2.73-2.08 2.26a1 1 0 0 0 .74 1.67h9.14a1 1 0 0 0 .74-1.67Z"/></symbol>
	<symbol viewBox="0 0 24 24" id="ds-icon-dashboard-analytics"><rect x="9.47" y="2" width="5" height="20" rx="1" ry="1"/><rect x="17" y="7" width="5" height="15" rx="1" ry="1"/><rect x="2" y="12" width="5" height="10" rx="1" ry="1"/></symbol>
	<symbol viewBox="0 0 24 24" id="ds-icon-dashboard-arrow-down"><path d="m2.59 13.41 8 8a2 2 0 0 0 2.82 0l8-8a2 2 0 0 0-2.82-2.82L14 15.17V4a2 2 0 0 0-4 0v11.17l-4.59-4.58a2 2 0 0 0-2.82 2.82Z"/></symbol>
	<symbol viewBox="0 0 24 24" id="ds-icon-dashboard-arrow-left"><path d="m10.59 2.59-8 8a2 2 0 0 0 0 2.82l8 8a2 2 0 0 0 2.82-2.82L8.83 14H20a2 2 0 0 0 0-4H8.83l4.58-4.59a2 2 0 0 0-2.82-2.82Z"/></symbol>
	<symbol viewBox="0 0 24 24" id="ds-icon-dashboard-arrow-right"><path d="m13.41 21.41 8-8a2 2 0 0 0 0-2.82l-8-8a2 2 0 0 0-2.82 2.82L15.17 10H4a2 2 0 0 0 0 4h11.17l-4.58 4.59a2 2 0 0 0 2.82 2.82Z"/></symbol>
	<symbol viewBox="0 0 24 24" id="ds-icon-dashboard-arrow-up"><path d="m21.41 10.59-8-8a2 2 0 0 0-2.82 0l-8 8a2 2 0 0 0 2.82 2.82L10 8.83V20a2 2 0 0 0 4 0V8.83l4.59 4.58a2 2 0 0 0 2.82-2.82Z"/></symbol>
	<symbol viewBox="0 0 24 24" id="ds-icon-dashboard-calendar"><path d="M20.5 6h-.71V4a2 2 0 0 0-4 0v2H8.27V4a2 2 0 0 0-4 0v2H3.5A1.5 1.5 0 0 0 2 7.5v13A1.5 1.5 0 0 0 3.5 22h17a1.5 1.5 0 0 0 1.5-1.5v-13A1.5 1.5 0 0 0 20.5 6zm-9.14 10.48a2.73 2.73 0 0 1-.66.93 3.17 3.17 0 0 1-1 .63 3.64 3.64 0 0 1-1.31.23A3.26 3.26 0 0 1 7.05 18a3.4 3.4 0 0 1-1-.66 3.07 3.07 0 0 1-.56-.82 1.79 1.79 0 0 1-.2-.72.83.83 0 0 1 .26-.63.85.85 0 0 1 .63-.25.69.69 0 0 1 .39.12.6.6 0 0 1 .25.3 3.52 3.52 0 0 0 .63 1.16 1.1 1.1 0 0 0 .88.36A1.4 1.4 0 0 0 9 16.7a1.35 1.35 0 0 0 .5-.48 1.37 1.37 0 0 0 .21-.75 1.4 1.4 0 0 0-.34-1 1.25 1.25 0 0 0-1-.35h-.68a.83.83 0 0 1-.58-.2.71.71 0 0 1-.11-.48.69.69 0 0 1 .26-.55 1.11 1.11 0 0 1 .71-.2h.24A1.33 1.33 0 0 0 9 12.4a1 1 0 0 0 .34-.81.94.94 0 0 0-.28-.69 1 1 0 0 0-.74-.29 1.38 1.38 0 0 0-.54.09.8.8 0 0 0-.32.23 2.34 2.34 0 0 0-.24.4l-.22.48a.53.53 0 0 1-.27.26 1 1 0 0 1-.41.08.73.73 0 0 1-.51-.23.78.78 0 0 1-.24-.59 1.53 1.53 0 0 1 .2-.71 2.48 2.48 0 0 1 .58-.62 2.81 2.81 0 0 1 .92-.51 3.67 3.67 0 0 1 1.22-.2 3.4 3.4 0 0 1 1.08.17 2.35 2.35 0 0 1 .85.47 2 2 0 0 1 .56.72 2.17 2.17 0 0 1 .19.88 2 2 0 0 1-.28 1.07 3.43 3.43 0 0 1-.62.74 3 3 0 0 1 .65.49 2.39 2.39 0 0 1 .49.74 2.34 2.34 0 0 1 .17.88 2.71 2.71 0 0 1-.22 1.03zm5.75.49c0 1.08-.51 1.3-.93 1.3a.85.85 0 0 1-.67-.28 1.17 1.17 0 0 1-.25-.79v-5.08a4.25 4.25 0 0 1-1.88 1 .73.73 0 0 1-.52-.23.78.78 0 0 1-.23-.54.63.63 0 0 1 .24-.54 4 4 0 0 1 .68-.38 5.49 5.49 0 0 0 1.11-.68 4.69 4.69 0 0 0 .73-.81c.23-.31.37-.5.44-.57a.6.6 0 0 1 .47-.15.72.72 0 0 1 .59.29 1.18 1.18 0 0 1 .22.74z"/></symbol>
	<symbol viewBox="0 0 24 24" id="ds-icon-dashboard-checkbox-indeterminate"><rect width="19.608" height="4.128" x="2.196" y="9.936" rx="2.064" ry="2.064"/></symbol>
	<symbol viewBox="0 0 24 24" id="ds-icon-dashboard-checkmark"><path d="M9 20h-.09a2 2 0 0 1-1.48-.71l-5-5.9a2 2 0 1 1 3.06-2.57L9 15l9.53-10.35a2 2 0 0 1 2.94 2.7l-11 12A2 2 0 0 1 9 20Z"/></symbol>
	<symbol viewBox="0 0 24 24" id="ds-icon-dashboard-chevron-down"><path d="M4 6a2 2 0 0 1 1.41.59L12 13.17l6.59-6.58a2 2 0 0 1 2.82 2.82l-8 8a2 2 0 0 1-2.82 0l-8-8A2 2 0 0 1 4 6Z"/></symbol>
	<symbol viewBox="0 0 24 24" id="ds-icon-dashboard-chevron-left"><path d="M18 4a2 2 0 0 1-.59 1.41L10.83 12l6.58 6.59a2 2 0 0 1-2.82 2.82l-8-8a2 2 0 0 1 0-2.82l8-8A2 2 0 0 1 18 4Z"/></symbol>
	<symbol viewBox="0 0 24 24" id="ds-icon-dashboard-chevron-right"><path d="M6 20a2 2 0 0 1 .59-1.41L13.17 12 6.59 5.41a2 2 0 0 1 2.82-2.82l8 8a2 2 0 0 1 0 2.82l-8 8A2 2 0 0 1 6 20Z"/></symbol>
	<symbol viewBox="0 0 24 24" id="ds-icon-dashboard-chevron-up"><path d="M20 18a2 2 0 0 1-1.41-.59L12 10.83l-6.59 6.58a2 2 0 0 1-2.82-2.82l8-8a2 2 0 0 1 2.82 0l8 8A2 2 0 0 1 20 18Z"/></symbol>
	<symbol viewBox="0 0 24 24" id="ds-icon-dashboard-chromecast"><path id="cast-on" d="M2 17.45v2.73h2.73A2.73 2.73 0 0 0 2 17.45Zm0-3.63v1.82a4.55 4.55 0 0 1 4.55 4.54h1.81A6.35 6.35 0 0 0 2 13.82Zm16.36-6.37H5.64v1.49a11.86 11.86 0 0 1 7.61 7.61h5.11v-9.1ZM2 10.18V12a8.18 8.18 0 0 1 8.18 8.18H12a10 10 0 0 0-10-10Zm18.18-6.36H3.82A1.83 1.83 0 0 0 2 5.64v2.72h1.82V5.64h16.36v12.72h-6.36v1.82h6.36A1.83 1.83 0 0 0 22 18.36V5.64a1.83 1.83 0 0 0-1.82-1.82Z"/></symbol>
	<symbol viewBox="0 0 24 24" id="ds-icon-dashboard-collapse-expand"><path d="M20.5 22a1.5 1.5 0 0 1-1.5-1.5v-17a1.5 1.5 0 0 1 3 0v17a1.5 1.5 0 0 1-1.5 1.5Z"/><path d="m14.56 10.94-5-5a1.5 1.5 0 1 0-2.12 2.12l2.44 2.44H3.5a1.5 1.5 0 0 0 0 3h6.38l-2.44 2.44a1.49 1.49 0 0 0 0 2.12 1.5 1.5 0 0 0 2.12 0l5-5a1.49 1.49 0 0 0 0-2.12Z"/></symbol>
	<symbol viewBox="0 0 24 24" id="ds-icon-dashboard-copy"><path d="M19.75 8.69h-2.37V6.31a2 2 0 0 0-2-2H4.25a2 2 0 0 0-2 2v7a2 2 0 0 0 2 2h2.37v2.38a2 2 0 0 0 2 2h11.13a2 2 0 0 0 2-2v-7a2 2 0 0 0-2-2Zm-15.5 4.62v-7h11.13v2.38H8.62a2 2 0 0 0-2 2v2.62Zm15.5 4.38H8.62v-7h11.13Z"/></symbol>
	<symbol viewBox="0 0 24 24" id="ds-icon-dashboard-credit-card"><path d="M2 17a2 2 0 0 0 2 2h16a2 2 0 0 0 2-2V9.5H2Zm15-1.67h3.33V17H17Z"/><path d="M20 5H4a2 2 0 0 0-2 2v.83h20V7a2 2 0 0 0-2-2Z"/></symbol>
	<symbol viewBox="0 0 24 24" id="ds-icon-dashboard-cross"><path d="m14.83 12 6.58-6.59a2 2 0 0 0-2.82-2.82L12 9.17 5.41 2.59a2 2 0 0 0-2.82 2.82L9.17 12l-6.58 6.59a2 2 0 1 0 2.82 2.82L12 14.83l6.59 6.58a2 2 0 0 0 2.82-2.82Z"/></symbol>
	<symbol viewBox="0 0 24 24" id="ds-icon-dashboard-customize"><path d="M20.5 22h-17a1.5 1.5 0 0 1 0-3h17a1.5 1.5 0 0 1 0 3Z"/><path d="M17 11.25A4.88 4.88 0 0 1 12 16a4.91 4.91 0 0 1-5-4.75C7 8.6 10.33 6 12 2c1.78 3.8 5 6.6 5 9.25Z"/></symbol>
	<symbol viewBox="0 0 24 24" id="ds-icon-dashboard-device-desktop"><path d="M19 5v10H5V5h14m1-3H4a2 2 0 0 0-2 2v12a2 2 0 0 0 2 2h16a2 2 0 0 0 2-2V4a2 2 0 0 0-2-2Z"/><path d="M15.33 22H8.67a1.5 1.5 0 0 1 0-3h6.66a1.5 1.5 0 0 1 0 3Z"/></symbol>
	<symbol viewBox="0 0 24 24" id="ds-icon-dashboard-device-landscape"><path fill="none" d="M6.99 8h11.67v8H6.99z"/><path d="M22 16V8a2 2 0 0 0-2-2H4a2 2 0 0 0-2 2v8a2 2 0 0 0 2 2h16a2 2 0 0 0 2-2zM3.4 12a1.25 1.25 0 1 1 1.25 1.25A1.25 1.25 0 0 1 3.4 12zM7 16V8h11.66v8z"/></symbol>
	<symbol viewBox="0 0 24 24" id="ds-icon-dashboard-device-portrait"><path fill="none" d="M8 5.34h8v11.67H8z"/><path d="M16 2H8a2 2 0 0 0-2 2v16a2 2 0 0 0 2 2h8a2 2 0 0 0 2-2V4a2 2 0 0 0-2-2zm-4 18.6a1.25 1.25 0 1 1 1.25-1.25A1.25 1.25 0 0 1 12 20.6zm4-3.6H8V5.34h8z"/></symbol>
	<symbol viewBox="0 0 24 24" id="ds-icon-dashboard-document"><path d="M18 2H6a2 2 0 0 0-2 2v16a2 2 0 0 0 2 2h12a2 2 0 0 0 2-2V4a2 2 0 0 0-2-2Zm-3.82 15.37h-7a1 1 0 0 1 0-2h7a1 1 0 0 1 0 2ZM16.8 13H7.2a1 1 0 1 1 0-2h9.6a1 1 0 0 1 0 2Zm0-4.37H7.2a1 1 0 1 1 0-2h9.6a1 1 0 1 1 0 2Z"/></symbol>
	<symbol viewBox="0 0 24 24" id="ds-icon-dashboard-download"><path d="M20.5 19h-17a1.5 1.5 0 0 0 0 3h17a1.5 1.5 0 0 0 0-3Z"/><path d="M10.94 14.56a1.5 1.5 0 0 0 2.12 0l5-5a1.5 1.5 0 1 0-2.12-2.12L13.5 9.88V3.5a1.5 1.5 0 0 0-3 0v6.38L8.06 7.44a1.5 1.5 0 1 0-2.12 2.12Z"/></symbol>
	<symbol viewBox="0 0 24 24" id="ds-icon-dashboard-drag"><circle cx="8.5" cy="3.5" r="1.5"/><circle cx="15.5" cy="3.5" r="1.5"/><circle cx="8.5" cy="9.167" r="1.5"/><circle cx="15.5" cy="9.167" r="1.5"/><circle cx="8.5" cy="14.833" r="1.5"/><circle cx="15.5" cy="14.833" r="1.5"/><circle cx="8.5" cy="20.5" r="1.5"/><circle cx="15.5" cy="20.5" r="1.5"/></symbol>
	<symbol viewBox="0 0 24 24" id="ds-icon-dashboard-edit"><path d="M21.64 7 10.23 18.39a1.53 1.53 0 0 1-2.14-.17l-2.31-2.31a1.53 1.53 0 0 1-.17-2.14L17 2.36a1.54 1.54 0 0 1 2.14.17l2.31 2.31A1.54 1.54 0 0 1 21.64 7Z"/><path d="M2.5 22h3.8a.5.5 0 0 0 .35-.85l-3.8-3.8a.5.5 0 0 0-.85.35v3.8a.5.5 0 0 0 .5.5Z"/></symbol>
	<symbol viewBox="0 0 24 24" id="ds-icon-dashboard-embed"><path d="M5.5 16.5a1.51 1.51 0 0 1-1.06-.44l-3-3a1.49 1.49 0 0 1 0-2.12l3-3a1.5 1.5 0 1 1 2.12 2.12L4.62 12l1.94 1.94a1.49 1.49 0 0 1 0 2.12 1.51 1.51 0 0 1-1.06.44Z"/><path d="M18.5 16.5a1.51 1.51 0 0 1-1.06-.44 1.49 1.49 0 0 1 0-2.12L19.38 12l-1.94-1.94a1.5 1.5 0 1 1 2.12-2.12l3 3a1.49 1.49 0 0 1 0 2.12l-3 3a1.51 1.51 0 0 1-1.06.44Z"/><path d="M8.68 21a1.52 1.52 0 0 1-.59-.12 1.49 1.49 0 0 1-.79-2l6.35-15a1.5 1.5 0 0 1 2.77 1.16l-6.36 15a1.49 1.49 0 0 1-1.38.96Z"/></symbol>
	<symbol viewBox="0 0 24 24" id="ds-icon-dashboard-external-link"><path d="M14.12 22H3.5A1.5 1.5 0 0 1 2 20.5V9.88a1.5 1.5 0 0 1 3 0V19h9.12a1.5 1.5 0 0 1 0 3Z"/><path d="M20.5 2H9.88a1.5 1.5 0 0 0 0 3h7l-5.7 5.7a1.51 1.51 0 0 0 0 2.12 1.53 1.53 0 0 0 1.06.44 1.49 1.49 0 0 0 1.06-.44l5.7-5.7v7a1.5 1.5 0 0 0 3 0V3.5A1.5 1.5 0 0 0 20.5 2Z"/></symbol>
	<symbol viewBox="0 0 12 12" id="ds-icon-dashboard-filter"><path d="m9.65 2-2.9 3.3-.25.25V9.65c-.5-.25-.8-.45-1-.6v-3.5l-.25-.25L2.35 2h7.3Zm.85-1h-9c-.25 0-.5.25-.5.5v.3c0 .15.05.25.15.35l3.35 3.8V9.4c0 .45 2.15 1.45 2.15 1.45.1.05.2.05.3.05.25 0 .5-.15.5-.5V5.9l3.35-3.8c.15-.05.2-.2.2-.3v-.3c0-.25-.25-.5-.5-.5Z"/></symbol>
	<symbol viewBox="0 0 24 24" id="ds-icon-dashboard-full-screen-off"><path d="M20.5 14.57a1.5 1.5 0 0 1-1.5-1.5V5h-8.07a1.5 1.5 0 0 1 0-3h9.57A1.5 1.5 0 0 1 22 3.5v9.57a1.5 1.5 0 0 1-1.5 1.5Z"/><path d="M13.07 22H3.5A1.5 1.5 0 0 1 2 20.5v-9.57a1.5 1.5 0 0 1 3 0V19h8.07a1.5 1.5 0 0 1 0 3Z"/></symbol>
	<symbol viewBox="0 0 24 24" id="ds-icon-dashboard-full-screen-on"><path d="M9.5 22A1.5 1.5 0 0 1 8 20.5V16H3.5a1.5 1.5 0 0 1 0-3h6a1.5 1.5 0 0 1 1.5 1.5v6A1.5 1.5 0 0 1 9.5 22Z"/><path d="M20.5 11h-6A1.5 1.5 0 0 1 13 9.5v-6a1.5 1.5 0 0 1 3 0V8h4.5a1.5 1.5 0 0 1 0 3Z"/></symbol>
	<symbol viewBox="0 0 24 24" id="ds-icon-dashboard-grid"><rect x="2" y="2" width="8.33" height="8.33" rx="1" ry="1"/><rect x="13.67" y="2" width="8.33" height="8.33" rx="1" ry="1"/><rect x="2" y="13.67" width="8.33" height="8.33" rx="1" ry="1"/><rect x="13.67" y="13.67" width="8.33" height="8.33" rx="1" ry="1"/></symbol>
	<symbol viewBox="0 0 24 24" id="ds-icon-dashboard-help"><path d="M12 2a10 10 0 1 0 10 10A10 10 0 0 0 12 2Zm1 16.05a1.37 1.37 0 0 1-.94.36 1.48 1.48 0 0 1-1-.35 1.4 1.4 0 0 1 0-2 1.38 1.38 0 0 1 1-.4 1.35 1.35 0 0 1 1.36 1.37 1.26 1.26 0 0 1-.42 1.02Zm2.76-8a3.49 3.49 0 0 1-.66.89c-.24.24-.68.64-1.29 1.18q-.24.22-.39.39a1.54 1.54 0 0 0-.19.28.77.77 0 0 0-.1.25c0 .09-.07.26-.12.5a1.08 1.08 0 0 1-1.13 1 1.16 1.16 0 0 1-.88-.34 1.27 1.27 0 0 1-.34-.94 2.86 2.86 0 0 1 .22-1.18 3.12 3.12 0 0 1 .56-.89c.22-.23.51-.51.89-.84s.54-.49.68-.63a1.8 1.8 0 0 0 .32-.42.9.9 0 0 0 .12-.46 1.09 1.09 0 0 0-.37-.84 1.41 1.41 0 0 0-1-.35 1.36 1.36 0 0 0-1 .35 3 3 0 0 0-.61 1.14 1.22 1.22 0 0 1-1.2 1 1.16 1.16 0 0 1-.88-.37A1.12 1.12 0 0 1 8 9a3 3 0 0 1 .5-1.58A3.72 3.72 0 0 1 9.92 6.1a4.46 4.46 0 0 1 2.17-.51 4.69 4.69 0 0 1 2 .42 3.51 3.51 0 0 1 1.39 1.18A3 3 0 0 1 16 8.83a2.57 2.57 0 0 1-.29 1.23Z"/></symbol>
	<symbol viewBox="0 0 24 24" id="ds-icon-dashboard-home"><path d="M20.5 11.48a1.47 1.47 0 0 1-.91-.31L12 5.39l-7.59 5.78a1.5 1.5 0 0 1-1.82-2.39l8.5-6.47a1.5 1.5 0 0 1 1.82 0l8.5 6.47a1.51 1.51 0 0 1-.91 2.7Z"/><path d="M17.36 22H6.64A1.49 1.49 0 0 1 5 20.72v-5.61a1.22 1.22 0 0 1 .63-1l5.8-4.44a1.11 1.11 0 0 1 1.14 0l5.8 4.44a1.22 1.22 0 0 1 .63 1v5.61A1.49 1.49 0 0 1 17.36 22Z"/></symbol>
	<symbol viewBox="0 0 24 24" id="ds-icon-dashboard-jump-to-bottom"><path d="M21 20.008H3a1 1 0 0 0 0 2h18a1 1 0 0 0 0-2Z" fill-rule="evenodd"/><path d="M21 11.008h-7a1 1 0 0 0 0 2h7a1 1 0 0 0 0-2Z" fill-rule="evenodd"/><path d="M14 4.008h7a1 1 0 0 0 0-2h-7a1 1 0 0 0 0 2Z" fill-rule="evenodd"/><path d="M5.8 16.694a1.009 1.009 0 0 0 1.462 0l3.482-3.481a1.155 1.155 0 0 0 0-1.463 1.047 1.047 0 0 0-.766-.278 1.046 1.046 0 0 0-.766.278l-1.676 1.671V3.044a1.045 1.045 0 0 0-2.089 0v10.377L3.776 11.75a1.01 1.01 0 0 0-1.463 0 1.012 1.012 0 0 0 0 1.463Z" fill-rule="evenodd"/></symbol>
	<symbol viewBox="0 0 24 24" id="ds-icon-dashboard-jump-to-top"><path d="M3 4h18a1 1 0 0 0 0-2H3a1 1 0 0 0 0 2Z" fill-rule="evenodd"/><path d="M21 11h-7a1 1 0 0 0 0 2h7a1 1 0 0 0 0-2Z" fill-rule="evenodd"/><path d="M21 20h-7a1 1 0 0 0 0 2h7a1 1 0 0 0 0-2Z" fill-rule="evenodd"/><path d="M7.257 7.313a1.011 1.011 0 0 0-1.462 0L2.313 10.8a1.011 1.011 0 0 0 0 1.462 1.01 1.01 0 0 0 1.463 0l1.671-1.671v10.372a1.045 1.045 0 1 0 2.089 0V10.586l1.671 1.671a1.047 1.047 0 0 0 .766.279 1.048 1.048 0 0 0 .766-.279 1.153 1.153 0 0 0 0-1.462Z" fill-rule="evenodd"/></symbol>
	<symbol viewBox="0 0 24 24" id="ds-icon-dashboard-key"><path d="M11.57 10a5.07 5.07 0 1 0 0 4H16v3h4v-3h2v-4ZM7 13.63A1.63 1.63 0 1 1 8.63 12 1.63 1.63 0 0 1 7 13.63Z"/></symbol>
	<symbol viewBox="0 0 24 24" id="ds-icon-dashboard-labs"><path d="m20.68 18.72-4.79-8a.36.36 0 0 1 0-.11V4H16a1 1 0 0 0 0-2H8a1 1 0 0 0 0 2h.13v6.64a.36.36 0 0 1 0 .11l-4.79 8a2.2 2.2 0 0 0 0 2.23A2 2 0 0 0 5.05 22H19a2 2 0 0 0 1.71-1 2.2 2.2 0 0 0-.03-2.28ZM9.82 11.78a2.24 2.24 0 0 0 .31-1.14V4h3.74v6.64a2.24 2.24 0 0 0 .31 1.14l3.05 5.08a10.56 10.56 0 0 0-5.12-1.12 9.76 9.76 0 0 0-5.49 1.37Z"/></symbol>
	<symbol viewBox="0 0 24 24" id="ds-icon-dashboard-link"><path d="m14 16.35.78-.79a1 1 0 0 0 .32-.76 1.07 1.07 0 0 0-.32-.77l-.59-.58a1.07 1.07 0 0 0-1.53 0l-.78.78a.61.61 0 0 1-.82 0l-5.9-5.89a.61.61 0 0 1 0-.82l2.36-2.36a.61.61 0 0 1 .82 0l1 1a1.08 1.08 0 0 0 1.53 0l.59-.58a1.09 1.09 0 0 0 0-1.54l-1-1A3.6 3.6 0 0 0 5.4 3L3 5.4a3.6 3.6 0 0 0 0 5.06l5.89 5.89a3.57 3.57 0 0 0 4.34.54 3.86 3.86 0 0 0 .77-.54Z"/><path d="m21 13.54-5.93-5.89a3.62 3.62 0 0 0-4.34-.54 3.56 3.56 0 0 0-.72.54l-.78.78a1.08 1.08 0 0 0 0 1.54l.59.58a1.07 1.07 0 0 0 1.53 0l.78-.78a.61.61 0 0 1 .82 0l5.88 5.89a.58.58 0 0 1 0 .82l-2.35 2.36a.61.61 0 0 1-.82 0l-1-1a1.07 1.07 0 0 0-1.53 0l-.59.58a1.07 1.07 0 0 0-.32.77 1 1 0 0 0 .32.76l1 1a3.6 3.6 0 0 0 5.06 0L21 18.6a3.57 3.57 0 0 0 0-5.06Z"/></symbol>
	<symbol viewBox="0 0 24 24" id="ds-icon-dashboard-list-big"><rect x="2" y="2.02" width="20" height="3.33" rx="1" ry="1"/><rect x="2" y="10.32" width="20" height="3.33" rx="1" ry="1"/><rect x="2" y="18.67" width="20" height="3.33" rx="1" ry="1"/></symbol>
	<symbol viewBox="0 0 24 24" id="ds-icon-dashboard-list-small"><rect x="2" y="2" width="20" height="1.66" rx=".5" ry=".5"/><rect x="2" y="7.99" width="20" height="1.66" rx=".5" ry=".5"/><rect x="2" y="20.34" width="20" height="1.66" rx=".5" ry=".5"/><rect x="2" y="14.26" width="20" height="1.66" rx=".5" ry=".5"/></symbol>
	<symbol viewBox="0 0 24 24" id="ds-icon-dashboard-lock"><path d="M20 10.49A8.28 8.28 0 0 0 12 2a8.28 8.28 0 0 0-8 8.49V20a2 2 0 0 0 2 2h12a2 2 0 0 0 2-2v-9.51ZM12 5a5.28 5.28 0 0 1 5 5.49H7A5.28 5.28 0 0 1 12 5Z"/></symbol>
	<symbol viewBox="0 0 24 24" id="ds-icon-dashboard-mail"><path d="M20 4H4a2 2 0 0 0-2 2v12a2 2 0 0 0 2 2h16a2 2 0 0 0 2-2V6a2 2 0 0 0-2-2Zm-.71 5.05-6.67 5.34a1 1 0 0 1-1.24 0L4.71 9.05A1 1 0 1 1 6 7.49l6 4.83 6-4.83a1 1 0 1 1 1.25 1.56Z"/></symbol>
	<symbol viewBox="0 0 24 24" id="ds-icon-dashboard-monetize"><path d="M17.25 14.71a5.1 5.1 0 0 0-4.91-5 1.58 1.58 0 0 0-.38 0c-.55 0-1.21-.17-1.21-1 0-.49.65-1 1.59-1a1.85 1.85 0 0 1 1.37.52 1.75 1.75 0 1 0 2.58-2.36 5.12 5.12 0 0 0-2.79-1.54V3.5a1.5 1.5 0 0 0-3 0v1a4.57 4.57 0 0 0-3.25 4.24 4.37 4.37 0 0 0 4.23 4.41 1.58 1.58 0 0 0 .38 0c1.09 0 1.89.63 1.89 1.51s-1 1.5-2.14 1.5a2.45 2.45 0 0 1-1.81-.72 1.75 1.75 0 0 0-2.6 2.34 5.7 5.7 0 0 0 3.3 1.77v.9a1.5 1.5 0 0 0 3 0v-1.04a5.08 5.08 0 0 0 3.75-4.7Z"/></symbol>
	<symbol viewBox="0 0 24 24" id="ds-icon-dashboard-more"><path d="M6 12a2 2 0 1 1-2-2 2 2 0 0 1 2 2Zm6-2a2 2 0 1 0 2 2 2 2 0 0 0-2-2Zm8 0a2 2 0 1 0 2 2 2 2 0 0 0-2-2Z"/></symbol>
	<symbol viewBox="0 0 12 12" id="ds-icon-dashboard-order"><path id="direction-dsc" d="m1.122 7.624 2.032 2.318a.478.478 0 0 0 .358.169c.134 0 .263-.06.358-.169l2.032-2.318a.632.632 0 0 0 .121-.4.62.62 0 0 0-.148-.387.48.48 0 0 0-.34-.169.47.47 0 0 0-.35.139L4.02 8.134V2.58a.623.623 0 0 0-.149-.41.478.478 0 0 0-.36-.17.478.478 0 0 0-.358.17.623.623 0 0 0-.149.41v5.554L1.838 6.807a.47.47 0 0 0-.35-.139.48.48 0 0 0-.34.17.62.62 0 0 0-.148.387.632.632 0 0 0 .122.4Z"/><path id="direction-asc" d="M6.098 4.487 8.13 2.169A.478.478 0 0 1 8.488 2c.134 0 .263.06.358.169l2.032 2.318c.083.11.127.253.122.399a.622.622 0 0 1-.149.387.481.481 0 0 1-.34.17.47.47 0 0 1-.35-.14L8.997 3.978V9.53a.623.623 0 0 1-.149.41.478.478 0 0 1-.359.17.478.478 0 0 1-.359-.17.623.623 0 0 1-.149-.41V3.977L6.814 5.304a.47.47 0 0 1-.35.139.48.48 0 0 1-.339-.17.62.62 0 0 1-.148-.387.632.632 0 0 1 .121-.4Z"/></symbol>
	<symbol viewBox="0 0 24 24" id="ds-icon-dashboard-pause"><path d="M9.87 19.54V4.06a2.07 2.07 0 0 0-4.13 0v15.48a2.07 2.07 0 1 0 4.13 0Z"/><path d="M18 19.54V4.06a2.07 2.07 0 0 0-4.13 0v15.48a2.07 2.07 0 1 0 4.13 0Z"/></symbol>
	<symbol viewBox="0 0 24 24" id="ds-icon-dashboard-phone"><path d="M21.8 18.79A5.24 5.24 0 0 1 17.14 22c-.26 0-4.22.22-9.94-5.22A16.06 16.06 0 0 1 2 6.8c0-.87.2-3.06 3.2-4.68a1.4 1.4 0 0 1 1.55.28c.06.09 2.35 3.85 2.41 4a1.11 1.11 0 0 1 .1.41 1.22 1.22 0 0 1-.4.7 6.62 6.62 0 0 1-.86.77 7.14 7.14 0 0 0-.88.77 1.09 1.09 0 0 0-.4.66c0 .44.38 2 3.14 4.46A20.93 20.93 0 0 0 14 17.32a1.24 1.24 0 0 0 .32.08c.18 0 .38-.14.66-.4s1.16-1.49 1.44-1.77a1.22 1.22 0 0 1 .7-.4 1 1 0 0 1 .4.1c.14.06 4.28 2.49 4.36 2.57s0 .9-.12 1.29"/></symbol>
	<symbol viewBox="0 0 24 24" id="ds-icon-dashboard-play"><path d="m20.11 10.34-12-8A2 2 0 0 0 5 4v16a2 2 0 0 0 3.11 1.66l12-8a2 2 0 0 0 0-3.32Z"/></symbol>
	<symbol viewBox="0 0 20 20" id="ds-icon-dashboard-playlist"><circle cx="2" cy="2" r="2"/><path d="M8 0h10a2 2 0 0 1 2 2 2 2 0 0 1-2 2H8a2 2 0 0 1-2-2 2 2 0 0 1 2-2Z"/><circle cx="2" cy="10" r="2"/><path d="M8 8h10a2 2 0 0 1 2 2 2 2 0 0 1-2 2H8a2 2 0 0 1-2-2 2 2 0 0 1 2-2Z"/><circle cx="2" cy="18" r="2"/><path d="M8 16h10a2 2 0 0 1 2 2 2 2 0 0 1-2 2H8a2 2 0 0 1-2-2 2 2 0 0 1 2-2Z"/></symbol>
	<symbol viewBox="0 0 24 24" id="ds-icon-dashboard-preview-off"><path d="M11.844 9.016c.053 0 .1-.016.156-.016a3 3 0 0 1 3 3c0 .053-.013.1-.016.156l3.871 3.871A16.628 16.628 0 0 0 22 12s-3.6-7-10-7a8.809 8.809 0 0 0-3.454.718Z" fill-rule="evenodd"/><path d="M19.778 19.778 4.222 4.222a1 1 0 0 0-1.414 1.414l2.337 2.337A16.628 16.628 0 0 0 2 12s3.6 7 10 7a8.809 8.809 0 0 0 3.454-.718l2.91 2.91a1 1 0 0 0 1.414-1.414ZM12 15a3 3 0 0 1-3-3c0-.053.013-.1.016-.156l3.14 3.14c-.056.003-.103.016-.156.016Z" fill-rule="evenodd"/></symbol>
	<symbol viewBox="0 0 24 24" id="ds-icon-dashboard-preview-on"><path d="M12 5C5.6 5 2 12 2 12s3.6 7 10 7 10-7 10-7-3.6-7-10-7Zm0 10a3 3 0 1 1 3-3 3 3 0 0 1-3 3Z" fill-rule="evenodd"/></symbol>
	<symbol viewBox="0 0 24 24" id="ds-icon-dashboard-publish"><path d="M12.47 19.52 13 20a2.25 2.25 0 0 0 2.21.54 2.21 2.21 0 0 0 1.13-.82C16.64 19.3 20.93 6 21 5.91a2.24 2.24 0 0 0-2.7-2.59L4.76 7.26a2.25 2.25 0 0 0-1.07 3.82l2.95 2.83a.71.71 0 0 0 .88.09l7.14-5.74a.15.15 0 0 1 .19.22L8.79 15.8a1.28 1.28 0 0 0-.25.51v3.26a4.28 4.28 0 0 0 0 .8.39.39 0 0 0 .23.34.37.37 0 0 0 .38-.05 1.94 1.94 0 0 0 .23-.27c.21-.29.41-.6.61-.9s.35-.53.54-.79.23-.36.39-.4a.47.47 0 0 1 .47.17"/></symbol>
	<symbol viewBox="0 0 24 24" id="ds-icon-dashboard-recommendations"><rect x="2" y="5.63" width="5.5" height="5.5" rx="1" ry="1"/><rect x="9.25" y="5.63" width="5.5" height="5.5" rx="1" ry="1"/><rect x="2" y="12.88" width="5.5" height="5.5" rx="1" ry="1"/><rect x="9.37" y="12.88" width="5.5" height="5.5" rx="1" ry="1"/><rect x="16.5" y="5.63" width="5.5" height="5.5" rx="1" ry="1"/><rect x="16.5" y="12.88" width="5.5" height="5.5" rx="1" ry="1"/></symbol>
	<symbol viewBox="0 0 24 24" id="ds-icon-dashboard-search"><path d="M21.41 18.59 16 13.19A7.52 7.52 0 1 0 13.19 16l5.4 5.39a2 2 0 0 0 2.82-2.82ZM9.5 13A3.5 3.5 0 1 1 13 9.5 3.5 3.5 0 0 1 9.5 13Z"/></symbol>
	<symbol viewBox="0 0 24 24" id="ds-icon-dashboard-settings"><path d="M20.19 14a7.73 7.73 0 0 0 0-3.9l1.52-.83a.64.64 0 0 0 .29-.83l-1.9-2.88a.57.57 0 0 0-.7-.23l-1.53.83a8.35 8.35 0 0 0-3.56-2v-1.6A.53.53 0 0 0 13.8 2h-3.53a.53.53 0 0 0-.58.49v1.68a8.35 8.35 0 0 0-3.56 2L4.6 5.33a.57.57 0 0 0-.7.23L2.17 8.44a.53.53 0 0 0 .1.77l1.52.83a7.73 7.73 0 0 0 0 3.9l-1.52.83a.63.63 0 0 0-.24.77l1.87 2.9a.57.57 0 0 0 .7.23l1.53-.83a8.35 8.35 0 0 0 3.56 2v1.61a.53.53 0 0 0 .51.56h3.53a.53.53 0 0 0 .58-.49v-1.69a8.35 8.35 0 0 0 3.56-2l1.53.83a.63.63 0 0 0 .81-.23L22 15.55a.71.71 0 0 0-.24-.77Zm-4.72-2a3.33 3.33 0 0 1-3.34 3.33H12A3.41 3.41 0 0 1 8.53 12 3.39 3.39 0 0 1 12 8.66 3.39 3.39 0 0 1 15.47 12Z"/></symbol>
	<symbol viewBox="0 0 24 24" id="ds-icon-dashboard-share"><path d="m21.3 9.48-7-6a2 2 0 1 0-2.6 3L14.54 9c-6.6.6-10.79 4.12-12.47 10.49a2 2 0 0 0 1.42 2.44A1.79 1.79 0 0 0 4 22a2 2 0 0 0 1.93-1.49c1.24-4.69 4-7.09 8.75-7.58l-3 2.55a2 2 0 0 0 2.6 3l7-6a2 2 0 0 0 0-3Z"/></symbol>
	<symbol viewBox="0 0 24 24" id="ds-icon-dashboard-sort"><path d="M12.104 22a1.513 1.513 0 0 1-1-.39l-5.5-5a1.5 1.5 0 1 1 2-2.22l4.5 4.08 4.49-4.08a1.5 1.5 0 0 1 2 2.22l-5.5 5a1.509 1.509 0 0 1-.99.39Z"/><path d="M17.445 10a1.509 1.509 0 0 1-1-.39l-4.5-4.08-4.49 4.08a1.5 1.5 0 0 1-2-2.22l5.5-5a1.5 1.5 0 0 1 2 0l5.5 5a1.5 1.5 0 0 1-1.01 2.61Z"/></symbol>
	<symbol viewBox="0 0 24 24" id="ds-icon-dashboard-split"><path d="M12 22a1.5 1.5 0 0 1-1.5-1.5v-17a1.5 1.5 0 0 1 3 0v17A1.5 1.5 0 0 1 12 22Zm10.94-9.62a1 1 0 0 0 0-.76 1 1 0 0 0-.21-.33l-2.5-2.5a1 1 0 0 0-1.42 1.42l.8.79h-2.86a1 1 0 0 0 0 2h2.84l-.8.79a1 1 0 0 0 0 1.42 1 1 0 0 0 1.42 0l2.5-2.5a1 1 0 0 0 .21-.33ZM7.25 11H4.41l.8-.79a1 1 0 0 0-1.42-1.42l-2.5 2.5a1 1 0 0 0-.21.33 1 1 0 0 0 0 .76.93.93 0 0 0 .21.33l2.5 2.5a1 1 0 0 0 1.42 0 1 1 0 0 0 0-1.42l-.8-.79h2.84a1 1 0 0 0 0-2Z"/></symbol>
	<symbol viewBox="0 0 20 20" id="ds-icon-dashboard-star"><path d="M8.58.94a1.54 1.54 0 0 1 2.84 0l1.79 4a1.57 1.57 0 0 0 1.23.93l4.18.55a1.66 1.66 0 0 1 .88 2.82l-3.08 3a1.65 1.65 0 0 0-.46 1.5l.79 4.32a1.58 1.58 0 0 1-2.3 1.74l-3.69-2.12a1.53 1.53 0 0 0-1.52 0l-3.69 2.11a1.58 1.58 0 0 1-2.3-1.74L4 13.73a1.65 1.65 0 0 0-.46-1.5l-3.08-3a1.66 1.66 0 0 1 .92-2.83l4.18-.55a1.57 1.57 0 0 0 1.23-.93Z"/></symbol>
	<symbol viewBox="0 0 24 24" id="ds-icon-dashboard-thumbnail"><path d="M20 4H4a2 2 0 0 0-2 2v12a2 2 0 0 0 2 2h16a2 2 0 0 0 2-2V6a2 2 0 0 0-2-2ZM7.48 11.63a2.08 2.08 0 1 1 2.09-2.08 2.08 2.08 0 0 1-2.09 2.08Zm11.13 4.11h-8a.49.49 0 0 1-.41-.78l4-5.71a.5.5 0 0 1 .82 0L19 15a.5.5 0 0 1-.39.74Z"/></symbol>
	<symbol viewBox="0 0 24 24" id="ds-icon-dashboard-tool"><path d="m21.49 5.46-3 3-2.97-2.92 3-3A5.7 5.7 0 0 0 16.17 2a5.84 5.84 0 0 0-5.84 5.83 5.77 5.77 0 0 0 .35 2l-7.95 7.9a2.5 2.5 0 0 0 3.54 3.54l7.94-7.95a5.77 5.77 0 0 0 2 .35A5.84 5.84 0 0 0 22 7.83a5.7 5.7 0 0 0-.51-2.37Zm-17 15.31a1.25 1.25 0 1 1 1.25-1.25 1.25 1.25 0 0 1-1.26 1.25Z"/></symbol>
	<symbol viewBox="0 0 24 24" id="ds-icon-dashboard-trash"><path d="M21 4h-4a1 1 0 0 0 0-2H7a1 1 0 0 0 0 2H3a1 1 0 0 0 0 2h18a1 1 0 0 0 0-2Z"/><rect x="6" y="8.91" width="12" height="13.09" rx="1" ry="1"/></symbol>
	<symbol viewBox="0 0 24 24" id="ds-icon-dashboard-trim"><path d="M18 14a4 4 0 0 0-2.25.7l-2-2.48c.27-.19.57-.42.91-.7.53-.43 5.18-4.29 5.31-7.07a2.4 2.4 0 0 0-.86-1.73L18.35 2 12 10 5.65 2l-.79.7A2.4 2.4 0 0 0 4 4.43c.13 2.78 4.78 6.64 5.31 7.07.34.28.64.51.91.7l-2 2.48A4 4 0 1 0 10 18a4 4 0 0 0-.42-1.77l2.42-3 2.42 3A4 4 0 1 0 22 18a4 4 0 0 0-4-4ZM6 20a2 2 0 1 1 2-2 2 2 0 0 1-2 2Zm12 0a2 2 0 1 1 2-2 2 2 0 0 1-2 2Z"/></symbol>
	<symbol viewBox="0 0 24 24" id="ds-icon-dashboard-undo"><path d="M18.4 7.63a8.45 8.45 0 0 0-6.06-2.53 7.26 7.26 0 0 0-.93.06l.5-.5a1.5 1.5 0 0 0-2.13-2.12l-3 3a1.51 1.51 0 0 0 0 2.12l3 3a1.51 1.51 0 0 0 2.13 0 1.51 1.51 0 0 0 0-2.12l-.38-.38a5.52 5.52 0 0 1 .81-.06 5.5 5.5 0 0 1 5.5 5.58 5.61 5.61 0 0 1-5.42 5.42h-.08a5.51 5.51 0 0 1-5.5-5.5 1.5 1.5 0 1 0-3 0 8.52 8.52 0 0 0 8.5 8.5h.12a8.56 8.56 0 0 0 8.38-8.38 8.39 8.39 0 0 0-2.44-6.09Z"/></symbol>
	<symbol viewBox="0 0 24 24" id="ds-icon-dashboard-upload"><path d="M20.5 5h-17a1.5 1.5 0 0 1 0-3h17a1.5 1.5 0 0 1 0 3Z"/><path d="m18.06 14.44-5-5a1.49 1.49 0 0 0-2.12 0l-5 5a1.5 1.5 0 1 0 2.12 2.12l2.44-2.44v6.38a1.5 1.5 0 0 0 3 0v-6.38l2.44 2.44a1.5 1.5 0 0 0 2.12 0 1.49 1.49 0 0 0 0-2.12Z"/></symbol>
	<symbol viewBox="0 0 24 24" id="ds-icon-dashboard-volume-0"><path d="M10.448 4.787a.7.7 0 0 1 1.192.544v12.987a.878.878 0 0 1-1.436.642c-1.56-1.39-3.886-3.455-4.354-3.87H3.87a1.5 1.5 0 0 1-1.5-1.5V10.4a1.5 1.5 0 0 1 1.5-1.5h1.98c.496-.441 3.05-2.736 4.598-4.113ZM20.5 10.37a1.032 1.032 0 0 0-1.46-1.46l-1.63 1.63-1.63-1.63a1.032 1.032 0 0 0-1.46 1.46L15.95 12l-1.63 1.63a1.032 1.032 0 0 0 1.46 1.46l1.63-1.63 1.63 1.63a1.032 1.032 0 0 0 1.46-1.46L18.87 12Z"/></symbol>
	<symbol viewBox="0 0 24 24" id="ds-icon-dashboard-volume-50"><path d="M10.448 4.787a.7.7 0 0 1 1.192.544v12.987a.878.878 0 0 1-1.436.642c-1.56-1.39-3.886-3.455-4.354-3.87H3.87a1.5 1.5 0 0 1-1.5-1.5V10.4a1.5 1.5 0 0 1 1.5-1.5h1.98c.496-.441 3.05-2.736 4.598-4.113Z"/><path d="M13.753 8.777a1 1 0 0 1 1.269-.624 4.1 4.1 0 0 1 0 7.764 1 1 0 1 1-.644-1.893 2.1 2.1 0 0 0 0-3.977 1 1 0 0 1-.625-1.27Z" style="fill-rule:evenodd"/></symbol>
	<symbol viewBox="0 0 24 24" id="ds-icon-dashboard-volume-100"><defs><style>.cls-1{fill-rule:evenodd}</style></defs><path d="M10.448 4.787a.7.7 0 0 1 1.192.544v12.987a.878.878 0 0 1-1.436.642c-1.56-1.39-3.886-3.455-4.354-3.87H3.87a1.5 1.5 0 0 1-1.5-1.5V10.4a1.5 1.5 0 0 1 1.5-1.5h1.98c.496-.441 3.05-2.736 4.598-4.113Z"/><path class="cls-1" d="M13.753 8.777a1 1 0 0 1 1.269-.624 4.1 4.1 0 0 1 0 7.764 1 1 0 1 1-.644-1.893 2.1 2.1 0 0 0 0-3.977 1 1 0 0 1-.625-1.27Z"/><path class="cls-1" d="M13.714 4.832a1 1 0 0 1 1.154-.818 8.1 8.1 0 0 1 0 15.97 1 1 0 0 1-.336-1.972 6.1 6.1 0 0 0 0-12.026 1 1 0 0 1-.818-1.154Z"/></symbol>
	<symbol viewBox="0 0 24 24" id="ds-icon-dashboard-warning"><path d="M12 2a10 10 0 1 0 10 10A10 10 0 0 0 12 2Zm1 15.79a1.43 1.43 0 0 1-1 .37 1.46 1.46 0 0 1-1-.37 1.32 1.32 0 0 1-.44-1.05 1.39 1.39 0 0 1 .41-1 1.45 1.45 0 0 1 2 0 1.44 1.44 0 0 1 0 2ZM13.37 9 13 12.81a3.31 3.31 0 0 1-.22 1.19.85.85 0 0 1-.82.51.83.83 0 0 1-.81-.5 3.7 3.7 0 0 1-.26-1.16l-.25-3.74c-.05-.73-.07-1.27-.07-1.59A1.66 1.66 0 0 1 11 6.28a1.37 1.37 0 0 1 1.07-.44 1.15 1.15 0 0 1 1.13.6 3.34 3.34 0 0 1 .25 1.45A9.73 9.73 0 0 1 13.37 9Z"/></symbol>
</svg>