<svg xmlns="http://www.w3.org/2000/svg" viewBox="0 0 240 240" id="ds-icon-player-captions-on"><path d="M215 40H25c-2.7 0-5 2.2-5 5v150c0 2.7 2.2 5 5 5h190c2.7 0 5-2.2 5-5V45c0-2.8-2.2-5-5-5zm-106.9 97.7c.7-.7 1.5-1.5 2.4-2.3l6.6 7.8c-2.2 2.4-5 4.4-8 5.8-8 3.5-17.3 2.4-24.3-2.9-3.9-3.6-5.9-8.7-5.5-14v-25.6c0-2.7.5-5.3 1.5-7.8.9-2.2 2.4-4.3 4.2-5.9 5.7-4.5 13.2-6.2 20.3-4.6 3.3.5 6.3 2 8.7 4.3 1.3 1.3 2.5 2.6 3.5 4.2l-7.1 6.9c-2.4-3.7-6.5-5.9-10.9-5.9-2.4-.2-4.8.7-6.6 2.3-1.7 1.7-2.5 4.1-2.4 6.5v25.6c-.1 9.6 11.5 11.4 17.6 5.6zm44.8 0c.7-.7 1.5-1.5 2.4-2.3l6.6 7.8c-2.2 2.4-5 4.4-8 5.8-8 3.5-17.3 2.4-24.3-2.9-3.9-3.6-5.9-8.7-5.5-14v-25.6c0-2.7.5-5.3 1.5-7.8.9-2.2 2.4-4.3 4.2-5.9 5.7-4.5 13.2-6.2 20.3-4.6 3.3.5 6.3 2 8.7 4.3 1.3 1.3 2.5 2.6 3.5 4.2l-7.1 6.9c-2.4-3.7-6.5-5.9-10.9-5.9-2.4-.2-4.8.7-6.6 2.3-1.7 1.7-2.5 4.1-2.4 6.5v25.6c-.1 9.6 11.5 11.4 17.6 5.6z"/></svg>