<svg xmlns="http://www.w3.org/2000/svg" viewBox="0 0 160 160" id="ds-icon-player-google"><path d="M145.8 67.8H83.1v25.5h36.6a30.5 30.5 0 0 1-13.1 20.2 56.7 56.7 0 0 1-14.4 5.9 58.951 58.951 0 0 1-15.7 0 42.79 42.79 0 0 1-15-6.5 38.861 38.861 0 0 1-15-20.2 42.658 42.658 0 0 1 0-25.5 40.873 40.873 0 0 1 9.8-15.7 38.276 38.276 0 0 1 39.2-9.8 32.516 32.516 0 0 1 14.4 8.5c3.9-3.9 8.5-7.8 12.4-11.8a66.468 66.468 0 0 0 6.5-6.5 73.511 73.511 0 0 0-21.6-13.1 70.341 70.341 0 0 0-45.1-.6 64.526 64.526 0 0 0-37.9 32.7 62.475 62.475 0 0 0 0 58.8 63.293 63.293 0 0 0 18.3 21.5A60.151 60.151 0 0 0 66.7 143a76.5 76.5 0 0 0 34 .7 61.272 61.272 0 0 0 27.4-13.7 63.793 63.793 0 0 0 17-27.4 99.333 99.333 0 0 0 .7-34.8Z"/></svg>