<svg xmlns="http://www.w3.org/2000/svg" viewBox="0 0 160 160" id="ds-icon-player-linked-in"><path d="M135.237 15.006H24.739A9.427 9.427 0 0 0 15 24.107v111.149a9.553 9.553 0 0 0 9.365 9.737h110.9a9.427 9.427 0 0 0 9.737-9.1V24.081a9.461 9.461 0 0 0-9.765-9.075zm-81.9 110.512H34.476V63.774h19.5v61.744zM43.576 55.31a10.994 10.994 0 0 1-11.063-10.86v-.2a11.05 11.05 0 0 1 22.1 0A10.537 10.537 0 0 1 44.6 55.283h-.051a4.07 4.07 0 0 1-.973.027zm81.9 70.208h-19.5v-29.9c0-7.164 0-16.265-9.737-16.265s-11.7 7.8-11.7 16.265v29.9h-19.5V63.774h18.2v8.464a19.766 19.766 0 0 1 18.2-9.738c19.5 0 23.4 13 23.4 29.266v33.8h.637z"/></svg>