<svg xmlns="http://www.w3.org/2000/svg" viewBox="0 0 160 160" id="ds-icon-player-link"><path d="M79.4 99.6h13.1v2a33.6 33.6 0 0 1-9.8 24.2l-9.8 9.8a34.716 34.716 0 0 1-48.4 0 34.716 34.716 0 0 1 0-48.4l9.2-10.5a33.6 33.6 0 0 1 24.2-9.8h1.9V80h-1.3a19.359 19.359 0 0 0-15.1 6.5l-9.8 9.8a20.976 20.976 0 0 0-.5 29.6l.5.5a20.976 20.976 0 0 0 29.6.5l.5-.5 9.8-9.8a20.905 20.905 0 0 0 6.5-15v-2zM135 24.4a34.716 34.716 0 0 0-48.4 0l-10.5 9.8a33.6 33.6 0 0 0-9.8 24.2v2h13.1v-2a19.359 19.359 0 0 1 6.5-15.1l9.8-9.8a20.976 20.976 0 0 1 29.6-.5l.5.5a20.976 20.976 0 0 1 .5 29.6l-.5.5-10.5 9.8a20.905 20.905 0 0 1-15 6.5H99V93h1.3a33.6 33.6 0 0 0 24.2-9.8l9.8-9.8a34.89 34.89 0 0 0 .7-49zm-72 81.8l42.5-42.5-9.8-9.8-42.5 42.5z"/></svg>