<svg xmlns="http://www.w3.org/2000/svg" viewBox="0 0 160 160" id="ds-icon-player-pinterest"><path d="M80 15a65.127 65.127 0 0 0-65 65 66.121 66.121 0 0 0 39 59.8 62.151 62.151 0 0 1 1.3-14.9c1.3-5.2 8.5-35.1 8.5-35.1a26.386 26.386 0 0 1-2-10.4c0-9.7 5.9-16.9 12.4-16.9 5.9 0 8.5 4.5 8.5 9.7a128.456 128.456 0 0 1-5.9 22.7 9.646 9.646 0 0 0 6.6 12 8.105 8.105 0 0 0 3.8.3c12.4 0 20.8-15.6 20.8-34.4 0-14.3-9.7-24.7-27.3-24.7a30.869 30.869 0 0 0-31.8 30v1.2a19.8 19.8 0 0 0 4.5 13 2.586 2.586 0 0 1 .6 3.3c0 1.3-1.3 3.9-1.3 5.2-.6 2-2 2-3.3 2-9.1-3.9-13-13.6-13-24.7 0-18.2 15.6-40.3 46.1-40.3a38.763 38.763 0 0 1 40.9 36.7v.4c0 25.4-14.3 44.9-35.1 44.9a18.163 18.163 0 0 1-15.6-7.8s-3.9 14.9-4.5 17.6a46.615 46.615 0 0 1-6.5 13.7 79.828 79.828 0 0 0 18.2 1.9A65.1 65.1 0 0 0 80 15z"/></svg>