<svg xmlns="http://www.w3.org/2000/svg" viewBox="0 0 160 160" id="ds-icon-player-reddit"><path d="M136.7 60.7a18.265 18.265 0 0 0-11.6 4.1 83.108 83.108 0 0 0-40-11.5l8.1-25.1 21.1 4.7a14.927 14.927 0 1 0 14.9-16.2 15.418 15.418 0 0 0-13.6 8.1l-25.1-6.1a3.75 3.75 0 0 0-4.7 2.7L77 52.6a93.15 93.15 0 0 0-42.8 11.5A19.471 19.471 0 0 0 23.3 60 19.137 19.137 0 0 0 5 78.3a19.777 19.777 0 0 0 7.5 14.9v4.1a38.88 38.88 0 0 0 20.4 31.9 85.678 85.678 0 0 0 46.8 12.2 93.7 93.7 0 0 0 46.8-12.2 38.741 38.741 0 0 0 20.4-31.9v-4.1a18.324 18.324 0 0 0 8.1-14.9 18.952 18.952 0 0 0-18.3-17.6Zm-7.5-35.3a6.459 6.459 0 0 1 6.8 6v.8a6.744 6.744 0 0 1-6.8 6.8 6.459 6.459 0 0 1-6.8-6v-.8a7.312 7.312 0 0 1 6.8-6.8ZM47.1 89.2a10.2 10.2 0 1 1 10.2 10.2 10.514 10.514 0 0 1-10.2-10.2Zm57 29.8a31.975 31.975 0 0 1-24.4 7.5 34.711 34.711 0 0 1-24.4-7.5 3.821 3.821 0 1 1 5.2-5.6l.2.2a26.476 26.476 0 0 0 19 5.4 28.644 28.644 0 0 0 19-5.4 4 4 0 0 1 5.4 0c2 1.3 2 3.4 0 5.4Zm-2-19.7a10.2 10.2 0 1 1 10.2-10.2 10.514 10.514 0 0 1-10.2 10.2Z"/></svg>