<svg xmlns="http://www.w3.org/2000/svg" viewBox="0 0 240 240" id="ds-icon-player-rewind-10"><path d="M113.2 131.078a21.589 21.589 0 0 0-17.7-10.6 21.589 21.589 0 0 0-17.7 10.6 44.769 44.769 0 0 0 0 46.3 21.589 21.589 0 0 0 17.7 10.6 21.589 21.589 0 0 0 17.7-10.6 44.769 44.769 0 0 0 0-46.3zm-17.7 47.2c-7.8 0-14.4-11-14.4-24.1s6.6-24.1 14.4-24.1 14.4 11 14.4 24.1-6.5 24.1-14.4 24.1zm-43.4 9.7v-51l-4.8 4.8-6.8-6.8 13-13a4.8 4.8 0 0 1 8.2 3.4v62.7l-9.6-.1zm162-130.2v125.3a4.867 4.867 0 0 1-4.8 4.8h-62.7v-19.3h48.2v-96.4H79.1v19.3c0 5.3-3.6 7.2-8 4.3l-41.8-27.9a6.013 6.013 0 0 1-2.7-8 5.887 5.887 0 0 1 2.7-2.7l41.8-27.9c4.4-2.9 8-1 8 4.3v19.3h130.1a4.974 4.974 0 0 1 4.9 4.9z"/></svg>