<svg xmlns="http://www.w3.org/2000/svg" viewBox="0 0 160 160" id="ds-icon-player-tumblr"><path d="M115.3 131.6a30.935 30.935 0 0 1-22 7.3h-.7c-28 0-34.6-20.6-34.6-32.7v-34H46.7a2.9 2.9 0 0 1-2.7-2.7V54.2a6.2 6.2 0 0 1 2.7-4 30.359 30.359 0 0 0 20-27.3 3.574 3.574 0 0 1 3-4 1.7 1.7 0 0 1 1 0h16.7a2.9 2.9 0 0 1 2.7 2.7v26.7h19.3a3.18 3.18 0 0 1 2.7 2v19.3a2.9 2.9 0 0 1-2.7 2.7H90v31.3a8.709 8.709 0 0 0 7.4 9.9 5.7 5.7 0 0 0 1.3.1 58.63 58.63 0 0 0 7.3-1.3 4.953 4.953 0 0 1 2.7-.7c.7 0 1.3.7 2 2l5.3 15.3c-.7.7 0 1.4-.7 2.7z"/></svg>