<svg xmlns="http://www.w3.org/2000/svg" viewBox="0 0 160 160" id="ds-icon-player-twitter"><path d="M56.8 132.5a75.177 75.177 0 0 0 75.3-75.1V54A53.405 53.405 0 0 0 145 40.5a58.075 58.075 0 0 1-15.4 3.9 27.138 27.138 0 0 0 11.6-14.8 53.038 53.038 0 0 1-16.7 6.4 25.736 25.736 0 0 0-19.3-8.4 26.12 26.12 0 0 0-26.4 25.8v.6a16.5 16.5 0 0 0 .7 5.8 71.966 71.966 0 0 1-54.1-27 23.9 23.9 0 0 0-3.9 13.5 26.043 26.043 0 0 0 11.6 21.9A27.018 27.018 0 0 1 20.9 65v.7a26.15 26.15 0 0 0 21.2 25.7 24.149 24.149 0 0 1-7.1.7 12.625 12.625 0 0 1-5.1-.7 25.657 25.657 0 0 0 24.5 18A53.519 53.519 0 0 1 21.6 121a19.683 19.683 0 0 1-6.4-.7 80.388 80.388 0 0 0 41.6 12.2"/></svg>